<?xml version="1.0" encoding="UTF-8" standalone="no"?>
<!DOCTYPE svg PUBLIC "-//W3C//DTD SVG 1.1//EN" "http://www.w3.org/Graphics/SVG/1.1/DTD/svg11.dtd">
<svg xmlns="http://www.w3.org/2000/svg" version="1.1" viewBox="0 0 1129 928" width="752.0pt" height="618.0pt">
<path d="M 0.00 0.00 L 1129.00 0.00 L 1129.00 928.00 L 0.00 928.00 L 0.00 0.00 Z" fill="#ffffff" />
<path d="M 467.42 79.77 C 467.76 84.73 466.56 88.94 470.34 92.87 C 470.34 94.20 470.33 95.54 470.33 96.88 C 471.30 96.37 472.27 95.86 473.24 95.35 C 477.25 96.54 481.10 98.43 485.31 97.24 C 488.79 96.31 492.03 96.23 495.59 96.60 C 496.38 100.22 496.13 105.11 499.67 107.29 C 503.94 110.43 508.65 112.80 512.73 116.28 C 516.22 119.13 518.47 122.46 522.50 124.50 C 526.01 126.24 529.38 128.05 532.28 130.72 C 535.49 133.60 539.54 136.80 541.01 140.96 C 542.90 146.05 543.52 151.73 545.17 156.88 C 546.23 160.27 548.93 163.16 550.60 166.39 C 552.86 170.72 554.19 175.58 555.86 180.17 C 558.16 186.36 557.35 192.56 558.49 199.33 C 557.20 200.59 555.89 201.85 554.59 203.11 C 554.99 206.60 555.38 210.08 555.67 213.58 C 553.86 214.65 552.06 215.72 550.26 216.79 C 551.33 218.85 552.76 220.30 552.52 222.76 C 552.50 229.06 550.48 237.48 553.92 243.07 C 556.53 248.04 557.91 253.31 560.86 258.11 C 564.06 263.59 568.55 267.60 572.19 272.80 C 576.70 279.14 581.80 285.20 587.59 290.41 C 592.20 294.59 598.53 294.99 603.21 299.24 C 610.26 297.39 615.99 300.57 622.97 300.53 C 626.75 300.52 630.27 301.42 633.82 302.64 C 640.83 298.75 648.09 299.52 655.54 301.49 C 661.88 303.19 667.60 301.08 673.85 301.42 C 676.39 302.85 678.47 305.74 681.23 306.68 C 684.54 307.00 688.13 305.76 691.37 305.07 C 691.82 306.53 692.26 308.00 692.70 309.47 C 696.43 310.74 700.09 311.25 704.02 311.45 C 707.04 311.46 709.27 313.78 711.62 315.37 C 715.56 318.38 719.95 320.42 724.30 322.72 C 727.32 324.31 729.87 326.48 732.68 328.37 C 735.90 330.53 740.02 331.65 742.83 334.21 C 745.39 336.55 747.06 340.18 748.78 343.17 C 751.40 347.97 754.86 351.91 756.96 357.02 C 758.97 361.70 760.48 366.09 764.46 369.55 C 771.30 375.82 780.80 377.14 789.56 378.72 C 794.91 379.61 797.68 383.30 802.43 385.57 C 807.04 387.95 811.96 388.61 817.07 388.95 C 817.97 387.82 818.86 386.69 819.76 385.57 C 820.43 385.52 821.10 385.46 821.77 385.41 C 822.38 386.49 822.98 387.57 823.59 388.65 C 827.42 388.58 831.97 388.17 835.61 389.51 C 838.64 390.77 841.34 393.15 844.16 394.86 C 847.12 396.73 850.30 397.75 853.62 398.78 C 853.87 400.02 854.91 401.74 854.11 402.89 C 853.04 404.69 851.55 407.31 849.05 406.72 C 845.96 406.08 843.15 404.51 840.06 403.82 C 834.21 402.51 828.01 401.27 822.00 401.40 C 814.69 401.51 806.46 401.81 799.46 399.38 C 797.09 398.65 794.51 397.48 792.03 397.64 C 781.09 398.64 769.94 398.84 759.03 397.46 C 753.71 396.91 748.56 397.44 743.27 397.82 C 743.38 398.87 743.49 399.93 743.60 400.98 C 740.75 403.97 738.47 406.83 734.05 407.29 C 729.28 408.32 723.90 405.27 719.86 407.88 C 714.83 410.53 710.51 414.03 704.96 416.00 C 701.07 417.35 696.68 417.29 692.60 417.39 C 691.90 418.04 691.20 418.70 690.50 419.36 C 685.76 419.61 681.14 420.45 676.49 421.35 C 672.91 422.08 669.90 420.82 666.43 420.54 C 664.97 421.31 663.68 422.45 662.39 423.46 C 657.32 423.85 652.09 423.18 647.09 423.94 C 642.41 425.76 638.50 429.10 633.64 430.64 C 626.67 433.35 618.03 433.00 611.65 436.73 C 606.09 440.68 603.41 447.36 596.59 450.53 C 591.80 452.73 587.19 450.67 582.62 449.06 C 581.55 452.80 580.49 456.54 579.39 460.26 C 577.16 458.68 574.98 457.04 572.83 455.36 C 569.80 458.13 566.90 461.14 563.63 463.63 C 559.69 466.65 555.01 467.90 550.50 470.46 C 548.30 471.52 545.58 473.54 543.07 473.07 C 537.74 472.57 532.23 470.64 527.04 472.89 C 522.61 475.05 520.08 480.17 515.73 482.72 C 512.11 485.12 508.18 485.43 503.98 485.77 C 500.23 485.73 498.07 489.22 494.81 490.66 C 490.83 491.17 486.40 489.48 482.58 488.43 C 475.17 485.97 467.91 483.75 460.00 483.80 C 453.50 483.67 445.44 485.93 439.27 483.73 C 433.57 480.99 434.51 475.97 433.61 470.63 C 428.52 472.40 422.47 475.50 417.02 474.99 C 410.85 473.25 404.89 468.54 402.85 462.29 C 404.41 462.06 405.96 461.85 407.52 461.64 C 403.57 458.78 404.44 454.01 401.07 450.94 C 398.67 448.61 395.94 446.90 393.69 444.34 C 391.01 441.33 389.08 437.37 387.10 433.87 C 385.69 437.03 383.64 439.85 382.22 442.97 C 382.36 444.32 383.08 446.01 384.31 446.68 C 386.61 447.33 389.10 447.41 391.47 447.66 C 391.43 449.82 391.48 452.05 391.17 454.19 C 389.53 456.98 385.21 457.59 382.38 456.54 C 378.40 455.16 374.64 453.08 370.80 451.34 C 370.26 452.40 369.72 453.46 369.18 454.52 C 367.13 454.08 365.07 453.65 363.02 453.22 C 362.11 451.96 361.20 450.70 360.29 449.44 C 357.58 450.47 354.86 451.45 352.11 452.37 C 349.96 451.60 347.80 450.85 345.64 450.10 C 343.16 455.42 340.54 461.15 339.69 466.99 C 339.60 471.05 342.05 475.32 343.49 479.06 C 342.68 480.05 341.87 481.03 341.06 482.02 C 342.76 484.51 344.86 487.08 345.90 489.93 C 344.06 494.53 338.74 498.81 337.69 503.96 C 337.68 508.78 341.58 513.77 344.20 517.62 C 346.61 517.90 349.02 518.18 351.43 518.46 C 352.05 521.71 352.67 524.96 353.34 528.20 C 352.26 531.17 349.42 535.17 350.66 538.36 C 351.73 541.84 352.99 545.35 354.30 548.75 C 354.91 551.45 358.52 551.89 360.68 552.98 C 360.14 556.59 359.32 560.41 359.38 564.05 C 359.36 566.85 360.85 569.57 361.92 572.13 C 367.65 573.74 373.17 575.87 378.64 578.20 C 378.55 580.45 378.80 582.96 378.16 585.13 C 375.56 588.84 371.72 591.46 369.41 595.48 C 367.62 598.37 366.43 601.35 368.30 604.56 C 370.41 608.84 374.15 609.97 378.22 611.72 C 378.92 618.42 383.37 623.26 383.42 629.98 C 383.61 636.34 383.22 642.66 384.04 649.00 C 384.80 655.19 383.75 661.49 384.58 667.63 C 386.21 671.82 390.59 674.78 392.41 678.98 C 391.99 681.77 390.34 684.53 388.97 686.97 C 386.28 691.54 383.94 696.28 382.35 701.35 C 380.13 708.66 377.40 716.13 373.76 722.86 C 372.10 725.82 369.36 726.96 366.61 728.68 C 362.51 731.04 359.45 734.63 355.63 737.66 C 352.54 740.06 350.55 743.21 348.22 746.26 C 345.18 750.20 340.71 751.66 337.52 755.52 C 335.23 758.28 333.36 761.24 330.66 763.65 C 328.87 765.41 326.56 767.04 325.26 769.19 C 324.01 771.77 323.37 774.63 322.18 777.25 C 321.30 779.42 319.94 781.62 319.56 783.94 C 319.59 786.53 320.28 789.16 320.75 791.70 C 316.86 792.72 312.89 793.14 308.96 793.88 C 305.62 794.43 303.41 798.67 300.10 799.17 C 295.51 799.78 290.63 799.11 285.99 799.24 C 278.62 798.71 272.87 807.30 265.85 808.72 C 263.51 808.79 261.05 807.24 258.92 806.37 C 254.56 811.51 251.27 817.76 246.41 822.40 C 240.70 826.87 232.16 828.13 225.38 830.47 C 219.49 832.57 213.85 831.57 207.96 830.18 C 206.11 826.41 203.65 822.62 202.58 818.55 C 201.83 813.77 203.62 807.87 201.99 803.11 C 200.36 798.28 197.53 793.66 194.16 789.84 C 190.42 785.62 185.10 784.77 180.95 781.06 C 176.98 777.47 175.34 772.42 171.17 768.83 C 166.16 764.56 160.72 761.88 156.61 756.40 C 153.43 752.02 151.67 746.48 149.40 741.58 C 147.20 736.83 146.49 731.84 145.20 726.83 C 143.76 721.22 140.18 716.76 136.96 712.05 C 134.39 708.31 131.50 704.88 127.75 702.26 C 125.08 700.15 121.31 698.26 120.29 694.81 C 118.02 688.23 119.98 680.00 119.64 673.00 C 119.39 667.59 120.22 661.91 119.37 656.59 C 117.56 653.79 114.52 651.83 112.67 649.01 C 112.52 647.00 113.72 644.86 114.33 642.98 C 113.09 640.83 111.04 638.66 111.30 636.04 C 111.38 631.99 112.03 628.06 111.70 623.99 C 111.22 618.05 109.77 611.87 109.94 605.91 C 110.58 602.50 115.56 599.75 113.00 596.06 C 109.92 592.56 104.38 591.00 100.27 588.97 C 100.63 584.62 102.22 580.93 104.03 577.03 C 106.04 572.71 104.88 567.86 104.53 563.29 C 103.93 559.03 103.57 554.20 101.68 550.30 C 99.62 547.53 95.28 546.59 93.31 543.78 C 91.20 538.31 94.01 531.06 93.22 525.92 C 91.72 521.43 87.18 516.90 86.80 512.06 C 87.21 506.92 89.71 502.35 89.72 497.03 C 89.82 491.54 89.11 484.84 85.71 480.31 C 80.64 473.69 72.24 469.38 67.62 462.45 C 63.65 455.52 62.07 446.87 59.74 439.27 C 57.98 432.89 54.29 427.59 53.33 420.94 C 55.46 419.63 57.88 418.43 59.65 416.66 C 60.48 412.94 61.03 408.75 61.28 404.94 C 60.57 400.04 57.84 396.23 58.81 390.97 C 59.74 385.15 63.69 381.97 67.50 377.95 C 65.10 377.22 62.69 376.48 60.28 375.76 C 60.25 372.65 60.24 369.54 60.25 366.43 C 65.09 363.28 70.86 360.99 75.21 357.24 C 75.88 352.88 74.85 348.12 75.90 343.86 C 77.46 340.11 80.46 336.99 82.38 333.39 C 84.71 329.45 86.15 324.53 89.10 321.06 C 91.81 317.95 97.45 318.97 100.00 316.07 C 101.98 314.26 103.50 312.04 106.27 311.44 C 111.38 310.30 116.97 310.77 122.20 310.53 C 124.38 307.14 126.74 304.00 129.74 301.28 C 134.02 302.66 138.51 305.78 143.00 305.33 C 145.37 305.44 147.69 304.83 149.68 306.28 C 153.76 309.03 158.27 311.80 161.25 315.68 C 163.17 318.16 165.66 319.95 167.86 322.13 C 169.56 324.05 169.91 327.26 170.65 329.66 C 181.30 329.90 192.08 331.14 201.51 336.51 C 204.44 338.15 204.62 343.75 208.20 343.67 C 209.19 340.95 209.77 337.99 210.43 335.16 C 213.61 336.94 217.23 338.64 219.95 341.10 C 222.36 343.45 223.96 346.86 225.63 349.77 C 226.96 349.03 228.30 347.92 229.77 347.51 C 230.87 347.70 231.97 347.94 233.05 348.24 C 239.53 345.38 246.72 344.44 253.57 346.55 C 256.48 347.48 260.42 348.17 262.59 350.44 C 265.20 352.73 262.10 355.78 261.21 358.15 C 264.18 358.62 267.02 359.03 269.83 360.18 C 274.02 361.85 277.61 364.46 281.62 366.36 C 283.09 367.06 284.35 367.38 285.99 367.12 C 293.15 366.24 299.92 362.84 307.02 361.89 C 311.30 361.21 316.42 365.81 314.30 370.30 C 312.48 373.50 307.33 374.25 305.16 377.14 C 303.36 381.07 303.84 386.01 302.04 390.02 C 300.85 392.58 297.94 394.71 295.07 394.63 C 293.15 394.20 291.35 393.04 289.61 392.16 C 287.85 394.30 286.18 396.50 284.56 398.76 C 290.98 397.60 296.96 395.41 303.54 395.22 C 305.23 400.58 303.04 404.80 302.19 410.05 C 305.80 407.28 309.31 404.71 311.61 400.67 C 313.51 397.21 315.23 393.65 317.33 390.28 C 318.14 390.27 318.94 390.25 319.75 390.24 C 321.59 396.66 323.20 402.69 319.64 408.88 C 322.56 408.69 326.12 409.11 328.83 407.89 C 331.77 405.99 334.02 402.80 336.00 399.96 C 339.03 395.51 340.02 390.56 341.80 385.48 C 345.42 385.46 349.18 385.93 352.78 385.44 C 355.00 384.42 356.84 382.40 359.14 381.61 C 361.99 380.97 365.08 380.58 367.98 381.00 C 373.12 382.48 376.87 385.76 378.48 390.97 C 378.33 388.29 377.94 385.65 377.65 382.98 C 377.22 379.49 378.23 375.69 378.85 372.22 C 380.74 372.43 382.63 372.63 384.51 372.85 C 381.97 370.09 379.98 367.21 378.19 363.92 C 379.11 362.72 379.92 361.19 381.15 360.26 C 382.97 359.25 385.10 358.74 387.07 358.10 C 389.60 353.42 392.13 348.26 393.00 342.98 C 393.01 338.96 392.49 335.02 393.04 330.99 C 393.58 327.12 391.96 323.49 391.05 319.70 C 395.42 316.86 399.63 313.84 403.65 310.50 C 403.62 307.87 403.58 305.23 403.52 302.59 C 401.46 301.68 399.19 300.90 397.37 299.56 C 396.55 298.31 396.22 296.71 395.71 295.31 C 399.59 295.70 403.05 296.42 406.24 298.78 C 410.82 302.06 415.86 304.07 421.21 305.71 C 423.04 304.08 424.88 302.46 426.71 300.84 C 424.62 300.56 422.52 300.32 420.42 300.04 C 420.41 298.68 420.39 297.32 420.38 295.96 C 425.60 295.18 429.87 292.68 434.42 290.24 C 434.32 289.14 434.22 288.04 434.12 286.94 C 434.90 285.94 435.68 284.94 436.46 283.94 C 434.92 281.37 433.41 278.78 431.96 276.16 C 436.75 272.12 437.46 265.41 435.14 259.85 C 433.01 255.31 428.72 252.17 424.96 249.04 C 424.34 250.00 423.73 250.97 423.11 251.93 C 421.23 251.75 419.36 251.56 417.48 251.36 C 415.96 249.38 415.06 247.37 412.45 246.65 C 406.19 244.47 399.89 242.97 395.64 237.40 C 392.89 234.07 391.88 230.19 391.33 226.00 C 390.97 222.30 388.76 220.06 387.06 216.95 C 384.94 213.36 384.50 209.31 383.62 205.30 C 382.55 200.02 380.70 194.99 379.17 189.73 C 377.49 188.82 375.81 187.92 374.12 187.02 C 375.31 183.38 377.02 179.99 378.50 176.48 C 380.23 172.28 379.65 167.79 380.80 163.66 C 383.03 160.40 386.26 157.84 388.69 154.68 C 390.68 152.09 393.45 150.92 395.96 148.97 C 398.43 146.80 399.87 143.54 402.28 141.26 C 405.20 138.69 409.62 138.00 412.53 135.50 C 414.42 132.43 414.30 128.22 416.00 125.04 C 418.25 123.20 421.20 122.20 423.63 120.59 C 426.63 118.67 428.77 115.63 431.80 113.93 C 434.69 112.27 437.60 111.42 439.98 108.97 C 444.04 104.89 445.04 99.92 448.21 95.17 C 449.79 92.80 451.13 90.39 452.05 87.69 C 456.39 83.57 461.70 81.28 467.42 79.77 Z" fill="none" />
<!-- Anse-Bertrand --><path d="M 464.40 85.49 C 464.42 87.06 464.43 88.63 464.46 90.19 C 466.93 92.95 467.26 95.77 467.59 99.33 C 471.15 99.40 474.56 99.29 478.02 100.16 C 479.93 100.55 481.90 101.26 483.86 101.26 C 486.59 100.17 489.21 98.93 492.08 98.23 C 493.42 101.79 494.37 107.01 497.64 109.32 C 503.10 113.48 509.52 116.30 514.45 121.53 C 516.25 123.31 517.86 125.62 520.00 126.98 C 522.89 128.29 525.77 128.56 528.26 130.72 C 532.17 133.98 536.57 137.88 538.34 142.77 C 540.31 148.00 541.50 153.63 542.28 159.16 C 542.32 159.91 542.35 160.65 542.37 161.40 C 536.88 168.33 536.24 176.10 534.44 184.40 C 531.41 185.73 528.36 187.03 525.32 188.31 C 524.54 190.83 523.77 193.35 523.00 195.88 C 519.68 195.18 516.37 194.42 513.07 193.63 C 512.40 189.43 512.11 185.20 511.64 180.98 C 511.43 179.90 511.40 178.33 510.55 177.53 C 507.33 174.42 501.91 172.70 499.05 168.96 C 496.82 166.00 495.08 162.66 493.09 159.52 C 489.35 160.79 486.03 162.63 482.69 164.69 C 477.68 167.83 471.17 166.29 466.07 169.07 C 462.00 171.36 459.03 175.00 454.48 176.50 C 450.69 177.66 446.47 178.16 442.56 177.42 C 438.26 176.35 434.35 172.71 430.46 170.59 C 425.69 167.88 420.61 167.76 415.40 165.59 C 411.36 163.99 407.11 161.03 402.77 160.62 C 397.14 160.34 392.67 162.74 387.16 160.70 C 389.94 157.50 392.84 154.68 396.36 152.30 C 399.78 150.03 401.06 146.60 403.71 143.71 C 406.75 140.83 412.35 140.27 414.96 136.96 C 416.88 133.99 417.45 129.98 418.37 126.60 C 421.42 125.24 424.30 124.10 426.79 121.78 C 429.10 119.76 431.01 117.05 433.83 115.86 C 437.28 114.32 440.54 113.08 442.88 109.92 C 448.27 102.87 451.39 94.01 457.16 87.11 C 458.63 85.00 462.13 85.81 464.40 85.49 Z" fill="#e6ddd3" />
<path d="M 542.28 159.16 C 543.35 160.58 544.55 161.89 545.63 163.30 C 543.58 164.95 541.54 166.10 540.66 168.74 C 538.58 174.40 537.73 180.56 536.33 186.42 C 533.50 187.61 530.66 188.76 527.81 189.87 C 526.54 192.86 525.30 195.87 524.07 198.87 C 519.57 197.83 515.06 196.95 510.49 196.23 C 509.83 190.67 509.63 185.09 509.56 179.48 C 508.02 178.59 506.48 177.69 504.94 176.79 C 504.27 179.31 503.85 182.14 502.58 184.43 C 498.25 186.72 492.83 187.10 488.54 189.55 C 487.52 190.09 487.09 191.59 486.63 192.59 C 484.18 199.48 482.61 206.94 479.52 213.58 C 477.98 217.14 474.44 217.59 471.03 218.14 C 466.26 218.78 461.99 217.62 457.47 216.32 C 451.50 214.54 445.11 213.93 438.92 214.66 C 437.07 214.75 436.31 215.98 435.22 217.26 C 432.51 220.76 430.10 224.36 428.63 228.57 C 427.89 230.33 427.38 232.51 426.13 233.98 C 423.55 235.93 420.50 237.28 417.73 238.95 C 419.27 240.64 420.82 242.39 422.52 243.93 C 422.21 246.06 421.90 248.19 421.59 250.32 L 420.45 249.01 C 420.67 247.95 420.90 246.90 421.14 245.85 C 418.80 243.90 416.45 241.96 414.12 240.00 C 416.88 236.51 420.60 234.65 424.04 232.02 C 427.68 226.07 430.63 218.68 435.41 213.33 C 441.87 210.81 450.00 211.32 456.53 213.49 C 462.07 215.23 468.27 216.32 474.04 215.23 C 476.24 214.81 477.13 212.81 477.99 210.98 C 480.56 204.92 481.99 198.35 484.27 192.18 C 485.14 190.09 485.83 188.09 488.06 187.11 C 492.38 185.22 497.04 184.16 501.42 182.40 C 501.73 180.36 502.04 178.33 502.34 176.29 C 497.03 172.91 495.05 167.78 491.88 162.67 C 488.45 164.22 485.26 166.20 481.91 167.91 C 477.89 169.89 472.62 169.02 468.62 170.68 C 464.03 173.12 461.12 177.17 455.85 178.76 C 451.61 180.00 446.85 180.99 442.44 180.33 C 437.46 179.07 432.97 174.93 428.45 172.52 C 423.37 169.64 418.09 169.66 412.69 167.28 C 408.55 165.57 405.00 163.03 400.33 163.38 C 394.95 163.83 389.66 164.74 384.24 164.78 C 383.76 167.20 383.27 169.61 382.77 172.02 C 383.07 168.06 383.43 164.17 384.68 160.36 C 385.50 160.47 386.33 160.59 387.16 160.70 C 392.67 162.74 397.14 160.34 402.77 160.62 C 407.11 161.03 411.36 163.99 415.40 165.59 C 420.61 167.76 425.69 167.88 430.46 170.59 C 434.35 172.71 438.26 176.35 442.56 177.42 C 446.47 178.16 450.69 177.66 454.48 176.50 C 459.03 175.00 462.00 171.36 466.07 169.07 C 471.17 166.29 477.68 167.83 482.69 164.69 C 486.03 162.63 489.35 160.79 493.09 159.52 C 495.08 162.66 496.82 166.00 499.05 168.96 C 501.91 172.70 507.33 174.42 510.55 177.53 C 511.40 178.33 511.43 179.90 511.64 180.98 C 512.11 185.20 512.40 189.43 513.07 193.63 C 516.37 194.42 519.68 195.18 523.00 195.88 C 523.77 193.35 524.54 190.83 525.32 188.31 C 528.36 187.03 531.41 185.73 534.44 184.40 C 536.24 176.10 536.88 168.33 542.37 161.40 C 542.35 160.65 542.32 159.91 542.28 159.16 Z" fill="none" />
<!-- Port-Louis --><path d="M 400.33 163.38 C 405.00 163.03 408.55 165.57 412.69 167.28 C 418.09 169.66 423.37 169.64 428.45 172.52 C 432.97 174.93 437.46 179.07 442.44 180.33 C 446.85 180.99 451.61 180.00 455.85 178.76 C 461.12 177.17 464.03 173.12 468.62 170.68 C 472.62 169.02 477.89 169.89 481.91 167.91 C 485.26 166.20 488.45 164.22 491.88 162.67 C 495.05 167.78 497.03 172.91 502.34 176.29 C 502.04 178.33 501.73 180.36 501.42 182.40 C 497.04 184.16 492.38 185.22 488.06 187.11 C 485.83 188.09 485.14 190.09 484.27 192.18 C 481.99 198.35 480.56 204.92 477.99 210.98 C 477.13 212.81 476.24 214.81 474.04 215.23 C 468.27 216.32 462.07 215.23 456.53 213.49 C 450.00 211.32 441.87 210.81 435.41 213.33 C 430.63 218.68 427.68 226.07 424.04 232.02 C 420.60 234.65 416.88 236.51 414.12 240.00 C 416.45 241.96 418.80 243.90 421.14 245.85 C 420.90 246.90 420.67 247.95 420.45 249.01 C 417.88 246.51 415.42 244.21 411.95 243.03 C 408.75 241.82 405.02 241.52 402.01 239.93 C 399.57 238.11 397.66 235.47 396.28 232.79 C 394.63 229.47 394.68 225.55 393.54 222.32 C 392.38 219.96 390.58 217.94 389.37 215.59 C 388.11 213.22 387.68 210.61 387.20 208.00 C 386.34 202.57 384.52 197.33 383.09 191.99 C 382.28 188.63 379.61 187.02 378.18 184.12 C 379.76 180.01 382.12 176.50 382.77 172.02 C 383.27 169.61 383.76 167.20 384.24 164.78 C 389.66 164.74 394.95 163.83 400.33 163.38 Z" fill="#e6ddd3" />
<!-- Petit-Canal --><path d="M 545.63 163.30 C 548.76 168.50 550.65 174.52 552.91 180.14 C 554.42 183.86 553.77 187.37 554.54 191.21 C 554.88 193.13 555.45 195.10 555.50 197.05 C 554.70 198.98 553.02 200.61 551.69 202.19 C 551.98 205.77 552.37 209.35 552.75 212.93 C 550.83 213.25 548.91 213.53 546.99 213.85 C 548.61 219.64 549.52 225.21 549.31 231.26 C 544.17 232.09 539.16 233.43 534.22 235.05 C 535.18 240.82 536.80 246.40 538.43 252.00 C 535.72 254.55 531.74 257.37 530.63 261.04 C 531.81 263.78 533.98 265.83 535.34 268.40 C 536.10 271.04 535.76 274.08 535.81 276.81 C 532.82 279.15 528.83 281.63 527.29 285.20 C 525.52 289.19 524.45 293.51 523.02 297.64 C 519.53 298.74 516.05 299.89 512.57 301.02 C 510.95 297.53 509.61 293.68 507.38 290.53 C 505.85 288.74 502.93 288.07 500.84 287.12 C 499.67 285.08 498.61 282.72 496.96 281.02 C 491.73 280.29 486.23 280.48 480.97 280.89 C 474.73 281.48 470.56 284.96 464.93 286.97 C 462.04 288.01 458.98 287.71 455.99 287.38 C 450.25 286.62 444.54 286.36 438.89 284.93 C 438.08 282.32 437.06 279.67 436.64 276.96 C 437.39 271.76 440.59 267.52 438.93 262.02 C 436.68 253.71 428.79 249.00 422.52 243.93 C 420.82 242.39 419.27 240.64 417.73 238.95 C 420.50 237.28 423.55 235.93 426.13 233.98 C 427.38 232.51 427.89 230.33 428.63 228.57 C 430.10 224.36 432.51 220.76 435.22 217.26 C 436.31 215.98 437.07 214.75 438.92 214.66 C 445.11 213.93 451.50 214.54 457.47 216.32 C 461.99 217.62 466.26 218.78 471.03 218.14 C 474.44 217.59 477.98 217.14 479.52 213.58 C 482.61 206.94 484.18 199.48 486.63 192.59 C 487.09 191.59 487.52 190.09 488.54 189.55 C 492.83 187.10 498.25 186.72 502.58 184.43 C 503.85 182.14 504.27 179.31 504.94 176.79 C 506.48 177.69 508.02 178.59 509.56 179.48 C 509.63 185.09 509.83 190.67 510.49 196.23 C 515.06 196.95 519.57 197.83 524.07 198.87 C 525.30 195.87 526.54 192.86 527.81 189.87 C 530.66 188.76 533.50 187.61 536.33 186.42 C 537.73 180.56 538.58 174.40 540.66 168.74 C 541.54 166.10 543.58 164.95 545.63 163.30 Z" fill="#e6ddd3" />
<path d="M 549.31 231.26 C 549.31 232.01 549.29 232.77 549.25 233.54 C 545.09 234.53 540.98 235.66 536.90 236.97 C 538.06 242.48 539.82 247.79 541.57 253.13 C 538.79 255.37 536.07 257.66 533.39 260.02 C 534.90 263.01 536.67 265.95 537.85 269.09 C 538.95 271.89 538.64 275.37 538.64 278.35 C 535.75 280.21 532.04 282.18 530.24 285.20 C 527.98 288.88 526.83 293.52 525.76 297.68 C 529.86 301.57 532.50 306.63 536.44 310.58 C 540.43 314.20 548.14 311.52 553.00 311.04 C 556.01 316.31 556.27 322.35 559.56 327.42 C 561.67 330.73 563.08 333.93 564.19 337.70 C 555.86 343.98 546.95 348.83 536.39 349.87 C 533.36 346.90 530.19 344.25 526.75 341.75 C 524.22 347.70 523.20 353.98 518.63 358.61 C 515.45 361.90 512.45 365.25 509.86 369.02 C 512.13 371.77 514.28 374.72 516.84 377.21 C 518.60 379.14 521.41 379.14 523.82 379.52 C 527.96 379.86 532.62 380.34 536.44 378.45 C 542.42 375.70 548.02 371.69 554.12 369.17 C 560.39 366.61 567.28 365.77 573.71 363.70 C 577.89 362.37 581.79 360.41 585.99 359.11 C 588.94 358.13 592.24 357.44 594.97 355.94 C 598.17 354.03 600.58 350.88 603.71 348.79 C 607.90 345.96 612.92 344.54 617.73 343.15 C 617.73 345.91 617.72 348.68 617.70 351.45 C 615.78 352.63 613.86 353.81 611.94 355.00 C 613.10 357.24 613.88 360.57 616.49 361.53 C 620.02 363.01 624.28 363.04 628.04 362.81 C 632.17 362.52 635.40 360.47 639.28 359.59 C 642.93 359.12 647.30 361.18 650.99 360.21 C 655.85 358.98 660.50 356.80 665.15 354.96 C 665.24 350.06 665.61 345.65 668.18 341.35 C 670.72 341.69 673.37 342.18 675.93 342.01 C 679.37 340.49 681.97 336.73 684.50 334.03 C 688.04 335.25 691.41 336.87 694.91 338.16 C 697.10 339.07 699.27 338.07 701.47 337.62 C 705.77 336.43 710.06 336.28 714.48 335.86 C 715.54 331.44 716.58 327.01 717.55 322.56 C 718.48 323.08 719.41 323.59 720.35 324.09 C 718.30 328.30 717.24 332.77 716.20 337.30 C 712.03 337.94 707.88 338.61 703.79 339.65 C 700.81 340.32 697.48 341.35 694.46 340.42 C 691.10 339.41 687.90 337.69 684.72 336.22 C 682.11 338.86 679.83 342.36 676.73 344.40 C 674.02 344.74 671.16 344.35 668.44 344.18 C 667.89 348.37 667.29 352.54 666.61 356.71 C 660.41 359.36 653.95 360.93 648.05 364.30 C 649.13 372.27 652.64 379.31 657.14 385.86 C 660.14 390.18 663.54 393.85 664.74 399.14 C 665.94 404.76 665.32 410.78 665.75 416.51 L 663.94 415.48 C 663.04 408.14 664.11 398.62 659.35 392.65 C 655.42 387.26 651.49 382.20 649.25 375.80 C 647.41 370.48 645.76 365.16 643.17 360.13 C 637.78 362.40 633.03 364.86 627.00 364.86 C 622.95 364.89 617.82 364.92 614.24 362.76 C 611.23 360.89 610.75 356.39 609.92 353.23 C 611.88 352.08 613.83 350.92 615.78 349.75 C 615.61 348.55 615.45 347.36 615.28 346.17 C 611.57 347.55 607.38 348.89 604.17 351.23 C 601.52 353.14 599.47 355.88 596.76 357.66 C 594.27 359.04 591.25 359.62 588.54 360.49 C 584.01 361.81 579.83 363.90 575.34 365.31 C 569.57 367.14 563.74 367.90 557.98 370.02 C 550.77 372.69 544.28 377.29 537.29 380.28 C 531.96 382.60 525.55 381.16 519.88 381.39 C 516.20 381.16 513.35 384.81 510.77 386.98 C 511.12 392.50 511.27 397.99 510.76 403.50 C 506.40 405.21 502.79 407.26 499.06 410.10 C 500.92 412.64 502.87 415.72 505.67 417.30 C 508.23 418.69 511.47 419.13 514.26 419.96 C 519.60 421.38 524.21 425.28 526.96 430.02 C 529.86 434.95 531.65 440.36 534.78 445.24 C 536.96 448.73 539.71 451.58 542.25 454.77 C 545.48 458.68 546.43 463.53 549.30 467.75 C 548.34 468.24 547.39 468.74 546.43 469.24 C 545.22 465.62 544.17 462.07 542.20 458.77 C 539.79 454.71 536.27 451.48 533.58 447.46 C 530.14 442.41 528.06 436.20 524.92 431.10 C 522.80 427.61 519.76 424.72 516.12 422.86 C 512.97 421.28 509.42 420.92 506.29 419.61 C 502.83 417.92 500.51 413.96 497.03 412.34 C 493.02 413.04 489.16 414.94 485.32 416.29 C 474.78 420.10 465.79 425.66 455.83 430.76 C 448.40 434.55 442.04 439.77 435.00 444.17 C 432.94 442.97 430.88 441.78 428.82 440.59 C 424.06 447.35 420.84 454.93 415.77 461.50 C 414.37 461.68 412.98 461.87 411.58 462.07 C 419.60 455.15 421.11 444.83 429.57 438.31 C 431.38 439.42 433.18 440.52 434.99 441.63 C 441.61 437.25 447.70 432.46 454.81 428.85 C 464.50 423.90 474.07 417.86 484.22 414.35 C 490.20 412.18 495.81 410.98 500.84 406.81 C 503.62 404.43 506.29 403.15 509.78 402.08 C 509.58 397.14 508.28 391.95 508.90 387.06 C 510.33 384.14 513.33 381.84 515.62 379.60 C 513.91 377.30 512.16 373.55 508.96 373.26 C 503.18 372.48 497.53 372.51 491.96 370.41 C 490.71 366.25 489.04 363.06 485.26 360.69 C 480.97 357.37 475.58 359.42 470.71 358.23 C 467.30 356.60 464.53 353.35 461.74 350.84 C 459.04 353.01 456.49 355.69 453.44 357.34 C 451.17 357.66 448.54 356.34 446.37 355.72 C 442.04 354.06 437.53 353.50 432.93 353.16 C 432.45 355.00 431.96 356.85 431.48 358.69 C 427.84 358.72 424.01 359.02 420.42 358.38 C 416.92 357.54 413.60 355.23 410.40 353.61 C 405.46 350.94 400.21 349.25 394.84 347.67 C 395.88 344.75 396.34 342.13 395.89 339.03 C 395.39 335.51 395.93 332.17 396.50 328.71 C 396.70 334.44 396.55 340.17 396.75 345.89 C 401.57 347.42 406.31 348.96 410.83 351.28 C 414.11 352.90 417.20 354.99 420.56 356.41 C 423.70 357.73 426.76 357.70 430.09 357.90 C 430.50 355.71 430.91 353.52 431.32 351.33 C 439.01 350.85 445.80 353.19 452.98 355.52 C 455.74 353.31 458.52 351.12 461.28 348.92 C 464.69 351.03 467.55 353.88 470.90 356.03 C 475.22 357.63 481.74 355.14 485.74 358.25 C 489.88 360.81 491.96 364.02 493.42 368.61 C 497.68 370.19 501.90 371.18 506.40 371.77 C 508.07 368.70 509.60 365.61 512.02 363.05 C 514.88 359.95 518.05 357.79 519.86 353.83 C 521.68 349.75 522.83 345.36 524.27 341.14 C 526.60 341.52 529.11 341.40 531.03 342.94 C 534.05 344.82 536.05 348.15 540.02 347.19 C 547.72 345.99 555.27 341.21 561.63 336.88 C 560.45 333.65 558.99 330.72 557.22 327.78 C 554.50 323.33 554.86 318.09 551.94 313.71 C 547.30 313.55 541.64 315.85 537.33 313.74 C 532.76 311.70 530.85 306.76 527.78 303.16 C 526.04 300.87 522.57 300.24 519.98 299.31 C 519.18 300.86 518.36 302.40 517.56 303.95 C 515.05 303.38 511.46 303.51 510.05 300.99 C 507.94 297.79 506.57 294.07 504.86 290.64 C 503.01 290.12 500.68 289.94 499.06 288.93 C 497.56 286.99 496.65 284.53 495.61 282.32 C 490.10 282.38 484.15 282.33 478.81 283.74 C 472.46 285.47 467.74 289.84 461.03 289.81 C 452.82 290.19 445.92 287.01 438.01 288.51 C 437.67 288.28 437.32 288.06 436.98 287.84 C 437.62 286.87 438.26 285.90 438.89 284.93 C 444.54 286.36 450.25 286.62 455.99 287.38 C 458.98 287.71 462.04 288.01 464.93 286.97 C 470.56 284.96 474.73 281.48 480.97 280.89 C 486.23 280.48 491.73 280.29 496.96 281.02 C 498.61 282.72 499.67 285.08 500.84 287.12 C 502.93 288.07 505.85 288.74 507.38 290.53 C 509.61 293.68 510.95 297.53 512.57 301.02 C 516.05 299.89 519.53 298.74 523.02 297.64 C 524.45 293.51 525.52 289.19 527.29 285.20 C 528.83 281.63 532.82 279.15 535.81 276.81 C 535.76 274.08 536.10 271.04 535.34 268.40 C 533.98 265.83 531.81 263.78 530.63 261.04 C 531.74 257.37 535.72 254.55 538.43 252.00 C 536.80 246.40 535.18 240.82 534.22 235.05 C 539.16 233.43 544.17 232.09 549.31 231.26 Z" fill="none" />
<!-- Le Moule --><path d="M 549.25 233.54 C 549.06 235.68 548.80 237.81 548.55 239.94 C 551.62 243.99 553.45 248.27 554.97 253.08 C 558.31 262.48 565.22 267.48 570.72 275.31 C 575.19 281.64 580.36 287.71 586.20 292.82 C 590.02 296.12 594.50 297.62 599.08 299.56 C 599.55 301.28 600.02 302.99 600.50 304.70 C 602.61 303.59 604.82 301.97 607.18 301.49 C 609.59 301.39 612.09 301.94 614.48 302.24 C 618.64 302.82 622.86 302.80 627.00 303.41 C 629.94 303.69 632.14 306.07 634.38 307.77 C 635.36 306.38 636.36 304.99 637.34 303.59 C 640.15 303.15 643.17 302.54 646.01 302.66 C 651.67 302.97 657.26 305.90 663.00 305.33 C 666.12 305.15 669.51 304.04 672.61 304.47 C 675.02 305.85 677.02 308.15 679.51 309.38 C 682.46 310.12 685.89 309.47 688.92 309.31 C 689.83 310.54 690.63 312.04 691.84 313.01 C 696.31 313.94 701.61 313.40 705.86 315.10 C 709.99 317.16 713.47 320.37 717.55 322.56 C 716.58 327.01 715.54 331.44 714.48 335.86 C 710.06 336.28 705.77 336.43 701.47 337.62 C 699.27 338.07 697.10 339.07 694.91 338.16 C 691.41 336.87 688.04 335.25 684.50 334.03 C 681.97 336.73 679.37 340.49 675.93 342.01 C 673.37 342.18 670.72 341.69 668.18 341.35 C 665.61 345.65 665.24 350.06 665.15 354.96 C 660.50 356.80 655.85 358.98 650.99 360.21 C 647.30 361.18 642.93 359.12 639.28 359.59 C 635.40 360.47 632.17 362.52 628.04 362.81 C 624.28 363.04 620.02 363.01 616.49 361.53 C 613.88 360.57 613.10 357.24 611.94 355.00 C 613.86 353.81 615.78 352.63 617.70 351.45 C 617.72 348.68 617.73 345.91 617.73 343.15 C 612.92 344.54 607.90 345.96 603.71 348.79 C 600.58 350.88 598.17 354.03 594.97 355.94 C 592.24 357.44 588.94 358.13 585.99 359.11 C 581.79 360.41 577.89 362.37 573.71 363.70 C 567.28 365.77 560.39 366.61 554.12 369.17 C 548.02 371.69 542.42 375.70 536.44 378.45 C 532.62 380.34 527.96 379.86 523.82 379.52 C 521.41 379.14 518.60 379.14 516.84 377.21 C 514.28 374.72 512.13 371.77 509.86 369.02 C 512.45 365.25 515.45 361.90 518.63 358.61 C 523.20 353.98 524.22 347.70 526.75 341.75 C 530.19 344.25 533.36 346.90 536.39 349.87 C 546.95 348.83 555.86 343.98 564.19 337.70 C 563.08 333.93 561.67 330.73 559.56 327.42 C 556.27 322.35 556.01 316.31 553.00 311.04 C 548.14 311.52 540.43 314.20 536.44 310.58 C 532.50 306.63 529.86 301.57 525.76 297.68 C 526.83 293.52 527.98 288.88 530.24 285.20 C 532.04 282.18 535.75 280.21 538.64 278.35 C 538.64 275.37 538.95 271.89 537.85 269.09 C 536.67 265.95 534.90 263.01 533.39 260.02 C 536.07 257.66 538.79 255.37 541.57 253.13 C 539.82 247.79 538.06 242.48 536.90 236.97 C 540.98 235.66 545.09 234.53 549.25 233.54 Z" fill="#e6ddd3" />
<path d="M 1044.09 249.51 C 1045.89 251.89 1047.68 254.37 1048.96 257.07 C 1050.17 259.64 1050.07 262.97 1051.80 265.16 C 1053.72 267.68 1055.68 270.13 1057.30 272.85 C 1053.15 274.76 1049.19 277.01 1045.11 279.04 C 1041.60 280.77 1037.95 281.18 1034.31 282.41 C 1031.21 283.44 1028.46 285.87 1025.89 287.84 C 1021.63 291.27 1017.13 294.39 1012.94 297.90 C 1008.03 302.05 1004.99 307.26 999.81 310.80 C 996.57 313.02 992.86 313.99 989.17 315.18 C 984.30 316.68 979.86 318.59 974.82 319.49 C 971.91 320.10 968.44 320.36 965.82 321.83 C 962.73 323.67 960.20 327.11 956.87 328.82 C 953.53 330.52 949.43 331.24 946.30 333.28 C 944.07 334.73 942.06 336.55 939.99 338.22 C 938.98 336.24 937.65 334.16 937.21 331.96 C 937.02 329.61 937.94 327.04 938.52 324.79 C 937.74 323.13 936.96 321.49 936.17 319.84 C 939.40 316.79 942.11 313.35 944.97 309.96 C 948.06 306.17 953.58 305.50 958.03 304.17 C 959.26 301.96 960.43 299.05 962.48 297.48 C 964.29 296.33 967.01 296.57 969.07 296.24 C 973.72 296.17 977.86 292.11 981.73 289.77 C 987.13 286.39 991.65 282.59 995.31 277.34 C 996.56 277.51 997.81 277.68 999.06 277.85 C 1001.35 275.57 1003.56 273.12 1006.08 271.09 C 1008.76 268.97 1011.78 268.22 1014.84 266.83 C 1017.77 265.51 1020.05 263.53 1022.70 261.74 C 1026.00 259.38 1029.49 258.24 1031.74 254.64 C 1034.29 250.42 1039.68 250.01 1044.09 249.51 Z" fill="none" />
<!-- La Désirade --><path d="M 1042.44 252.34 C 1044.98 255.85 1047.14 258.75 1046.93 263.35 C 1048.92 266.23 1050.98 269.06 1052.92 271.98 C 1050.67 272.61 1048.42 273.26 1046.18 273.96 C 1042.89 278.44 1038.49 277.86 1033.74 279.58 C 1029.79 280.84 1026.99 283.29 1023.80 285.79 C 1018.85 289.72 1013.34 293.43 1008.79 297.80 C 1005.28 301.15 1002.26 305.53 998.40 308.40 C 995.25 310.75 991.38 311.58 987.67 312.66 C 982.97 313.91 978.61 315.76 973.86 316.75 C 970.97 317.42 967.81 317.80 965.09 319.00 C 960.35 321.40 957.86 325.83 952.59 327.57 C 948.12 329.03 944.32 330.74 940.36 333.29 C 940.54 328.70 940.59 324.12 940.37 319.53 C 943.52 316.65 946.13 313.06 949.56 310.54 C 953.25 308.33 957.59 307.18 961.54 305.48 C 962.43 303.40 963.33 301.32 964.23 299.24 C 968.02 299.05 973.20 299.84 976.27 297.29 C 981.26 293.45 986.66 290.53 991.25 286.26 C 993.11 284.67 995.00 282.58 997.34 281.78 C 999.16 280.97 1000.97 280.80 1002.22 279.26 C 1004.72 276.56 1006.78 273.88 1010.01 271.96 C 1012.09 270.84 1014.73 270.90 1016.81 269.83 C 1018.99 268.39 1020.84 266.47 1022.97 264.94 C 1025.84 262.82 1028.93 261.53 1032.15 260.05 C 1033.07 258.33 1033.99 256.58 1035.00 254.92 C 1037.44 253.89 1039.93 253.15 1042.44 252.34 Z" fill="#e6ddd3" />
<path d="M 193.19 265.38 C 198.09 265.32 202.43 266.75 207.12 267.87 C 212.80 269.26 218.22 269.34 223.79 271.30 C 232.25 274.20 238.37 279.21 247.03 280.98 C 251.44 282.10 256.03 282.14 259.34 285.62 C 261.91 288.28 264.19 289.96 267.59 291.46 C 267.63 293.29 267.67 295.12 267.71 296.95 C 265.51 297.10 263.16 297.40 260.97 297.07 C 255.74 295.76 251.38 290.41 246.05 289.44 C 240.69 289.37 235.38 290.80 229.99 290.93 C 227.29 287.26 225.90 281.92 221.23 280.64 C 217.95 279.34 214.71 277.60 211.28 276.79 C 206.14 275.90 200.30 277.67 195.89 274.12 C 192.91 272.00 193.19 268.65 193.19 265.38 Z" fill="none" />
<path d="M 425.75 267.81 C 427.59 271.61 428.89 275.61 429.98 279.69 C 428.17 280.12 426.07 281.00 424.20 280.72 C 422.37 279.95 420.76 278.57 419.17 277.41 C 420.85 273.66 422.10 270.12 425.75 267.81 Z" fill="none" />
<path d="M 195.62 268.42 C 200.53 269.37 205.24 270.67 210.19 271.35 C 213.73 271.83 217.22 272.30 220.64 273.38 C 230.07 276.24 237.55 281.60 247.05 283.93 C 250.59 284.93 255.11 285.46 257.86 288.06 C 260.25 290.20 262.48 292.52 264.70 294.85 C 257.25 294.40 253.74 288.32 246.86 286.32 C 242.01 286.03 236.82 288.75 231.46 287.49 C 229.51 285.44 228.56 282.42 226.78 280.22 C 225.02 278.86 222.66 278.18 220.64 277.28 C 216.69 275.74 213.40 273.71 209.03 273.61 C 204.54 273.27 200.74 274.20 196.83 271.44 C 196.41 270.43 196.01 269.43 195.62 268.42 Z" fill="none" />
<path d="M 423.77 272.57 C 425.20 274.71 426.41 276.88 427.48 279.22 C 426.03 278.69 424.59 278.16 423.17 277.57 C 423.26 275.89 423.54 274.22 423.77 272.57 Z" fill="none" />
<path d="M 359.17 281.25 C 361.80 280.57 364.89 281.25 367.56 281.53 C 369.78 285.76 371.70 289.86 371.95 294.72 C 366.16 294.90 360.43 294.14 355.02 291.99 C 352.38 291.02 350.75 287.70 349.14 285.56 C 352.33 283.96 355.70 282.12 359.17 281.25 Z" fill="none" />
<!-- Morne-à-l'Eau --><path d="M 495.61 282.32 C 496.65 284.53 497.56 286.99 499.06 288.93 C 500.68 289.94 503.01 290.12 504.86 290.64 C 506.57 294.07 507.94 297.79 510.05 300.99 C 511.46 303.51 515.05 303.38 517.56 303.95 C 518.36 302.40 519.18 300.86 519.98 299.31 C 522.57 300.24 526.04 300.87 527.78 303.16 C 530.85 306.76 532.76 311.70 537.33 313.74 C 541.64 315.85 547.30 313.55 551.94 313.71 C 554.86 318.09 554.50 323.33 557.22 327.78 C 558.99 330.72 560.45 333.65 561.63 336.88 C 555.27 341.21 547.72 345.99 540.02 347.19 C 536.05 348.15 534.05 344.82 531.03 342.94 C 529.11 341.40 526.60 341.52 524.27 341.14 C 522.83 345.36 521.68 349.75 519.86 353.83 C 518.05 357.79 514.88 359.95 512.02 363.05 C 509.60 365.61 508.07 368.70 506.40 371.77 C 501.90 371.18 497.68 370.19 493.42 368.61 C 491.96 364.02 489.88 360.81 485.74 358.25 C 481.74 355.14 475.22 357.63 470.90 356.03 C 467.55 353.88 464.69 351.03 461.28 348.92 C 458.52 351.12 455.74 353.31 452.98 355.52 C 445.80 353.19 439.01 350.85 431.32 351.33 C 430.91 353.52 430.50 355.71 430.09 357.90 C 426.76 357.70 423.70 357.73 420.56 356.41 C 417.20 354.99 414.11 352.90 410.83 351.28 C 406.31 348.96 401.57 347.42 396.75 345.89 C 396.55 340.17 396.70 334.44 396.50 328.71 C 396.33 325.93 394.92 323.15 393.98 320.55 C 398.10 318.03 402.22 315.53 406.36 313.05 C 406.48 309.45 406.50 305.87 406.39 302.27 C 411.26 305.43 416.08 307.51 421.68 309.02 C 424.04 306.96 426.42 304.91 428.82 302.88 C 428.71 300.76 428.59 298.63 428.48 296.50 C 432.57 294.44 436.72 292.52 440.74 290.30 L 438.01 288.51 C 445.92 287.01 452.82 290.19 461.03 289.81 C 467.74 289.84 472.46 285.47 478.81 283.74 C 484.15 282.33 490.10 282.38 495.61 282.32 Z" fill="#e6ddd3" />
<path d="M 364.40 283.15 C 366.02 286.09 367.58 289.06 369.06 292.06 C 363.57 291.42 358.38 290.18 353.33 287.89 C 356.44 284.68 360.18 283.96 364.40 283.15 Z" fill="none" />
<path d="M 332.03 284.70 C 335.68 285.54 339.34 287.30 342.01 289.97 C 344.01 291.97 344.48 294.41 345.30 297.00 C 339.93 298.06 335.35 296.87 330.20 295.61 C 320.69 294.34 310.10 296.44 300.54 296.53 C 300.99 293.97 299.79 289.98 303.03 288.99 C 308.04 287.05 313.95 287.06 319.21 285.99 C 323.25 285.31 327.99 283.77 332.03 284.70 Z" fill="none" />
<path d="M 320.46 288.66 C 324.75 288.00 329.59 286.65 333.78 288.23 C 337.42 289.45 339.94 291.90 342.61 294.52 C 335.20 294.15 328.39 291.96 320.99 292.14 C 314.62 292.12 308.66 293.97 302.24 293.03 C 308.14 289.72 314.02 289.91 320.46 288.66 Z" fill="none" />
<path d="M 192.00 290.09 C 196.37 289.29 201.35 290.87 205.33 292.67 C 211.62 295.58 217.82 298.69 224.09 301.66 C 223.30 304.39 222.38 307.08 221.39 309.74 C 217.76 309.59 214.14 309.37 210.51 309.11 C 210.04 311.75 209.56 314.39 209.10 317.04 C 205.15 314.78 202.17 312.42 199.95 308.36 C 201.24 307.36 202.52 306.35 203.79 305.32 C 201.64 305.61 199.70 305.47 197.93 306.89 C 196.13 307.84 193.67 310.70 191.52 309.44 C 186.62 306.41 185.77 300.17 186.81 294.94 C 187.46 292.34 189.36 290.56 192.00 290.09 Z" fill="none" />
<path d="M 81.37 293.25 C 83.83 293.89 86.20 295.04 88.54 296.03 C 88.52 299.40 88.20 302.57 87.47 305.87 C 85.26 305.34 82.13 305.19 80.40 303.71 C 79.78 300.24 80.12 296.54 81.37 293.25 Z" fill="none" />
<path d="M 200.50 293.68 C 207.06 296.37 213.28 299.85 219.88 302.48 C 219.71 303.92 219.53 305.35 219.36 306.78 C 212.27 306.94 206.50 304.10 200.19 301.33 C 197.48 303.34 194.73 305.28 191.89 307.09 C 189.65 302.45 189.23 298.76 189.63 293.63 C 193.42 292.97 196.77 292.06 200.50 293.68 Z" fill="none" />
<path d="M 321.55 297.49 C 327.52 296.58 333.71 297.32 337.92 302.07 C 337.53 305.79 335.49 310.20 332.25 312.25 C 328.57 313.32 323.88 311.74 320.34 313.34 C 317.89 314.31 315.47 315.35 312.97 316.21 C 314.25 309.82 317.71 302.73 321.55 297.49 Z" fill="none" />
<path d="M 81.74 297.08 C 83.52 297.95 85.29 298.85 87.05 299.77 C 86.19 301.04 85.32 302.31 84.44 303.58 C 83.08 301.53 82.31 299.46 81.74 297.08 Z" fill="none" />
<path d="M 322.80 300.68 C 326.87 300.26 330.77 300.73 334.73 301.69 C 334.40 305.35 333.38 307.61 331.32 310.55 C 328.25 309.77 325.09 308.77 321.93 308.52 C 320.11 308.78 318.49 310.58 316.99 311.58 C 318.96 307.96 320.62 304.14 322.80 300.68 Z" fill="none" />
<!-- Sainte-Rose --><path d="M 129.44 305.43 C 132.82 304.63 136.55 307.72 139.98 307.86 C 142.20 308.07 144.75 307.51 146.86 308.14 C 153.93 312.18 159.03 317.68 164.68 323.38 C 166.85 325.68 166.93 329.65 168.99 331.94 C 173.72 333.94 179.94 332.81 185.03 333.84 C 190.16 334.82 195.54 336.34 200.03 339.07 C 201.89 340.85 202.59 343.79 204.25 345.80 C 206.43 346.69 209.10 346.56 211.42 346.79 C 211.50 344.20 211.57 341.62 211.66 339.04 C 214.08 340.49 217.05 341.88 218.91 344.04 C 220.83 346.47 221.84 349.82 222.93 352.69 C 224.30 352.74 225.67 352.79 227.04 352.84 C 227.74 352.30 228.43 351.76 229.13 351.22 C 230.35 351.60 231.57 351.99 232.79 352.37 C 236.19 349.86 238.72 348.99 242.98 348.67 C 249.46 347.85 254.87 349.98 260.87 351.94 C 259.55 354.95 258.50 357.92 258.16 361.21 C 261.73 361.43 264.94 361.10 268.21 362.81 C 273.75 365.68 278.64 369.08 285.10 369.73 C 291.78 370.19 297.89 366.19 304.88 365.57 C 300.48 370.03 295.66 374.04 289.03 374.01 C 283.14 374.25 277.76 371.72 272.04 371.41 C 267.55 372.04 263.77 374.56 259.01 374.39 C 251.59 374.44 244.99 373.61 238.39 377.81 C 238.91 379.60 239.43 381.39 239.96 383.19 C 237.22 383.98 233.33 384.27 231.18 386.20 C 228.61 389.87 228.92 395.73 227.97 400.03 C 227.36 404.08 223.86 407.13 223.02 410.92 C 223.19 413.58 224.10 416.24 224.08 418.91 C 223.70 420.93 222.89 422.86 222.53 424.88 C 223.14 427.10 225.35 428.90 226.25 431.06 C 226.68 432.91 226.73 434.90 226.85 436.79 C 223.61 438.92 220.04 440.69 217.01 443.10 C 214.58 445.72 213.66 449.57 211.35 452.35 C 206.64 457.97 200.84 462.59 193.81 464.92 C 188.85 466.52 184.64 469.66 179.82 471.45 C 175.84 471.68 170.79 470.56 167.16 468.89 C 162.29 465.88 160.97 458.26 156.24 454.83 C 153.52 452.82 150.51 451.25 147.83 449.17 C 143.05 445.59 139.09 441.76 133.20 439.99 C 130.11 438.86 126.96 438.85 124.95 436.03 C 123.23 433.69 120.68 430.50 121.57 427.42 C 122.03 424.37 123.30 421.04 122.99 417.97 C 121.92 412.92 117.34 409.54 116.91 404.04 C 116.37 398.07 116.86 392.00 116.74 386.00 C 116.82 380.65 116.34 375.28 116.64 369.95 C 116.74 364.22 124.65 359.97 124.17 354.05 C 123.62 344.65 122.25 335.94 124.35 326.54 C 125.70 320.88 126.73 315.35 126.68 309.50 C 127.45 308.09 128.31 306.59 129.44 305.43 Z" fill="#e6ddd3" />
<path d="M 356.76 309.39 C 362.78 312.50 366.55 318.20 367.88 324.78 C 362.25 323.87 356.78 322.44 352.41 318.57 C 350.37 317.15 351.63 314.36 352.73 312.75 C 353.67 311.50 355.09 309.54 356.76 309.39 Z" fill="none" />
<path d="M 126.68 309.50 C 126.73 315.35 125.70 320.88 124.35 326.54 C 122.25 335.94 123.62 344.65 124.17 354.05 C 124.65 359.97 116.74 364.22 116.64 369.95 C 116.34 375.28 116.82 380.65 116.74 386.00 C 116.86 392.00 116.37 398.07 116.91 404.04 C 117.34 409.54 121.92 412.92 122.99 417.97 C 123.30 421.04 122.03 424.37 121.57 427.42 C 120.68 430.50 123.23 433.69 124.95 436.03 C 126.96 438.85 130.11 438.86 133.20 439.99 C 139.09 441.76 143.05 445.59 147.83 449.17 C 150.51 451.25 153.52 452.82 156.24 454.83 C 160.97 458.26 162.29 465.88 167.16 468.89 C 170.79 470.56 175.84 471.68 179.82 471.45 C 184.64 469.66 188.85 466.52 193.81 464.92 C 200.84 462.59 206.64 457.97 211.35 452.35 C 213.66 449.57 214.58 445.72 217.01 443.10 C 220.04 440.69 223.61 438.92 226.85 436.79 C 226.73 434.90 226.68 432.91 226.25 431.06 C 225.35 428.90 223.14 427.10 222.53 424.88 C 222.89 422.86 223.70 420.93 224.08 418.91 C 224.10 416.24 223.19 413.58 223.02 410.92 C 223.86 407.13 227.36 404.08 227.97 400.03 C 228.92 395.73 228.61 389.87 231.18 386.20 C 233.33 384.27 237.22 383.98 239.96 383.19 C 239.43 381.39 238.91 379.60 238.39 377.81 C 244.99 373.61 251.59 374.44 259.01 374.39 C 263.77 374.56 267.55 372.04 272.04 371.41 C 277.76 371.72 283.14 374.25 289.03 374.01 C 295.66 374.04 300.48 370.03 304.88 365.57 C 306.97 365.76 309.05 366.11 311.11 366.45 C 306.44 366.93 304.09 370.81 300.16 373.20 C 295.72 376.37 290.13 375.59 284.97 375.60 C 280.57 375.63 276.37 374.16 272.01 374.07 C 268.53 374.84 265.75 376.70 262.04 376.73 C 255.78 376.80 249.66 376.55 243.48 377.87 C 243.15 380.85 242.71 383.81 242.13 386.75 C 239.01 386.91 235.89 387.09 232.78 387.26 C 231.96 391.81 231.66 396.43 230.79 400.97 C 230.13 404.62 227.37 407.90 225.31 410.91 C 226.00 413.50 227.09 416.26 227.15 418.95 C 226.86 421.13 225.91 423.26 225.17 425.33 C 226.64 426.38 229.40 427.29 230.13 428.99 C 230.56 432.04 230.04 435.67 228.26 438.26 C 226.04 441.15 221.76 442.63 219.11 445.07 C 217.95 446.30 217.08 447.85 216.17 449.27 C 213.35 454.08 209.01 458.18 204.84 461.84 C 201.12 465.09 196.83 466.50 192.38 468.41 C 188.26 470.15 184.53 472.46 180.75 474.83 C 175.96 473.75 171.16 472.78 166.30 472.07 C 164.27 478.84 161.66 484.41 157.29 489.99 C 158.61 493.28 159.95 496.30 159.58 499.96 C 159.18 505.08 158.45 510.15 158.32 515.29 C 160.41 516.85 162.60 518.88 165.08 519.75 C 167.35 519.08 169.60 517.60 171.94 517.33 C 177.04 516.89 183.30 518.00 188.19 516.30 C 194.95 513.40 199.87 504.51 207.20 502.41 C 215.19 500.16 223.82 499.51 232.09 499.30 C 234.43 496.26 236.58 493.04 239.71 490.76 C 244.98 486.93 250.78 484.20 256.75 481.69 C 259.96 480.48 261.43 476.59 262.73 473.68 C 265.44 467.28 264.76 460.90 268.00 454.93 C 271.27 448.92 275.54 443.51 276.53 436.46 C 277.14 430.25 275.74 424.30 277.03 418.00 C 277.92 412.52 279.96 407.50 281.85 402.33 C 282.52 402.20 283.19 402.08 283.87 401.95 C 281.80 409.20 279.08 416.40 278.78 423.99 C 278.48 429.01 279.15 434.36 278.29 439.30 C 277.00 445.95 272.71 450.96 269.86 456.88 C 267.96 460.76 267.54 464.66 266.59 468.81 C 265.65 472.89 264.01 476.49 262.43 480.33 C 266.37 478.30 270.32 476.09 274.37 474.35 C 279.11 472.28 283.80 470.83 288.39 468.37 C 292.25 466.36 295.39 463.84 299.68 462.79 C 303.60 461.75 307.66 461.60 311.00 459.07 C 314.98 456.30 318.68 451.30 323.68 450.70 C 329.08 449.96 335.12 451.42 340.55 451.93 C 340.17 453.98 339.77 456.02 339.22 458.04 C 339.37 456.95 339.51 455.85 339.64 454.76 C 334.46 452.94 328.10 451.13 322.65 452.71 C 317.42 455.10 313.32 461.83 307.58 463.33 C 303.02 464.46 298.60 464.94 294.48 467.42 C 289.45 470.38 284.40 472.88 278.91 474.89 C 272.21 477.32 266.35 481.33 259.59 483.59 C 252.52 486.00 244.97 489.31 239.41 494.40 C 236.96 496.48 235.06 501.25 231.63 501.42 C 223.41 502.62 213.21 501.98 205.53 505.53 C 199.33 508.34 195.67 514.94 189.80 517.83 C 184.08 519.85 176.21 516.88 170.74 519.76 C 165.52 522.87 161.14 527.83 156.93 532.18 C 158.02 536.58 159.48 540.86 160.78 545.19 C 162.42 550.69 162.70 556.38 164.12 561.90 C 165.83 568.50 169.75 573.71 171.19 580.47 C 172.00 583.67 172.10 587.40 173.59 590.35 C 176.65 593.12 181.57 593.77 182.81 598.13 C 184.50 602.87 186.01 607.57 188.60 611.92 C 192.57 611.34 196.42 610.40 200.28 609.34 C 202.93 608.43 204.78 609.86 207.34 610.53 C 213.86 612.97 221.90 609.54 227.73 613.26 C 231.95 615.99 235.56 619.57 239.77 622.35 C 244.00 619.75 248.95 617.83 252.73 614.63 C 255.01 610.54 255.63 605.27 256.70 600.73 C 258.47 592.77 256.11 585.84 256.26 577.95 C 255.86 574.70 259.04 571.06 262.09 570.46 C 269.96 569.96 278.13 571.14 286.02 570.11 C 291.42 569.36 296.06 566.31 301.48 564.76 C 305.89 563.49 310.13 562.73 314.00 560.05 C 318.14 557.22 322.42 554.47 326.26 551.24 C 329.86 548.21 332.30 543.89 336.02 541.08 C 339.23 539.13 343.60 538.84 347.24 538.11 C 347.41 538.83 347.61 539.54 347.84 540.24 C 344.56 540.69 340.44 540.78 337.63 542.68 C 335.18 544.35 333.24 547.08 331.29 549.30 C 327.37 554.16 321.38 557.52 316.30 561.28 C 312.48 564.18 308.12 565.44 303.54 566.58 C 298.31 567.84 293.30 571.03 288.04 571.29 C 280.38 571.69 272.59 570.81 264.94 571.50 C 262.14 571.75 258.81 573.04 258.44 576.23 C 257.44 584.41 260.62 591.76 258.89 599.99 C 257.87 604.88 256.92 609.85 255.40 614.61 C 254.85 616.50 253.01 617.38 251.47 618.38 C 248.17 620.27 244.83 622.10 241.59 624.12 C 244.23 627.72 247.04 631.68 250.47 634.57 C 253.39 637.14 258.28 637.50 262.00 638.17 C 268.78 639.07 275.34 640.55 281.59 643.40 C 287.08 645.87 292.64 647.43 298.72 646.63 C 308.00 645.80 314.98 639.17 322.74 634.74 C 327.75 631.66 333.58 630.67 338.55 627.62 C 342.54 625.11 346.01 621.63 349.85 618.84 C 355.40 614.70 361.42 612.04 367.57 608.95 C 368.16 609.54 368.77 610.11 369.40 610.65 C 364.05 612.96 358.80 615.76 353.84 618.82 C 349.53 621.47 346.03 624.99 342.01 627.99 C 336.39 632.20 329.82 632.98 323.73 636.72 C 317.44 640.22 311.05 646.18 303.99 647.67 C 299.43 648.58 294.66 648.98 290.02 648.56 C 285.85 648.07 281.65 645.76 277.72 644.27 C 270.20 641.29 262.03 639.73 253.97 639.18 C 249.65 638.43 247.15 643.55 243.47 645.11 C 239.40 645.90 234.18 644.69 230.26 646.26 C 228.30 647.20 226.31 649.75 228.08 651.78 C 230.52 655.65 235.05 658.59 238.08 661.98 C 239.44 663.39 239.50 665.17 239.92 667.00 C 240.81 672.23 242.01 678.46 245.18 682.81 C 247.50 684.65 250.74 685.50 253.46 686.61 C 253.51 690.58 253.69 694.54 254.04 698.49 C 256.64 699.07 259.23 699.65 261.83 700.23 C 263.62 706.25 264.33 712.41 265.55 718.56 C 269.72 719.36 273.91 719.47 278.13 719.83 C 281.62 720.07 283.82 722.56 286.23 724.77 C 289.40 727.93 292.73 730.95 295.78 734.22 C 300.56 739.31 303.72 746.28 306.21 752.73 C 308.48 758.56 309.72 765.22 314.05 769.94 C 315.97 772.17 318.46 773.11 321.11 774.16 C 320.68 775.24 320.21 776.30 319.67 777.33 C 316.34 774.60 312.02 771.97 309.84 768.22 C 304.92 760.01 303.86 750.45 298.98 742.06 C 296.00 736.36 291.50 732.44 286.97 728.04 C 284.50 725.78 281.53 722.34 278.06 721.93 C 273.67 721.32 269.11 721.61 264.69 721.63 C 264.99 728.44 265.73 735.75 263.20 742.24 C 260.39 749.12 256.13 755.47 253.54 762.44 C 252.30 765.35 254.91 768.24 256.23 770.68 C 258.59 774.30 259.80 777.68 260.13 782.01 C 260.73 789.47 261.36 796.94 261.70 804.42 C 261.02 803.93 260.34 803.44 259.67 802.93 C 259.47 798.71 258.34 793.87 254.47 791.53 C 248.86 790.23 243.55 794.35 239.07 797.11 C 235.96 799.54 231.65 797.03 228.18 798.09 C 225.32 799.22 223.21 801.13 220.03 801.24 C 215.33 801.51 210.60 801.32 205.88 801.48 C 205.85 802.69 205.82 803.89 205.79 805.10 C 205.22 803.24 204.51 801.43 203.72 799.65 C 209.69 799.56 215.65 799.62 221.62 799.55 C 223.11 797.95 224.61 796.36 226.11 794.77 C 229.42 795.08 233.13 796.00 236.41 795.34 C 240.96 793.71 244.44 790.48 249.43 789.57 C 252.66 788.82 255.51 789.70 258.57 790.62 C 257.38 783.92 257.37 776.34 253.33 770.69 C 252.02 768.29 249.66 765.72 250.85 762.82 C 254.06 753.24 261.38 745.31 262.57 735.04 C 263.73 726.62 264.51 716.76 261.40 708.68 C 260.02 710.12 258.36 711.58 257.32 713.30 C 257.31 717.98 260.87 722.93 260.20 728.05 C 259.73 731.88 256.34 735.10 253.86 737.84 C 251.14 740.62 248.39 743.95 245.01 745.92 C 239.39 748.75 231.88 747.52 226.29 750.26 C 223.16 752.77 221.27 756.50 217.91 758.85 C 211.37 763.49 204.67 767.82 197.61 771.61 C 193.09 774.18 189.36 777.37 189.15 782.95 C 187.85 782.27 186.54 781.62 185.28 780.88 C 188.47 777.51 191.17 773.77 193.79 769.96 C 191.75 764.87 189.81 760.15 185.44 756.59 C 182.87 754.59 179.57 751.72 176.24 751.40 C 170.70 751.97 165.19 753.98 159.92 755.75 C 159.33 755.02 158.78 754.26 158.25 753.47 C 163.58 752.24 169.08 751.16 174.20 749.21 C 178.43 747.62 181.48 743.71 184.49 740.48 C 187.22 737.33 190.89 733.68 192.00 729.58 C 193.20 724.27 191.45 717.98 193.44 712.45 C 195.33 707.17 197.60 701.99 199.97 696.90 C 201.25 694.38 202.51 691.52 204.49 689.47 C 207.16 687.74 210.86 687.40 213.43 685.45 C 215.75 683.48 217.57 680.83 219.45 678.46 C 222.10 674.90 224.74 671.74 225.27 667.16 C 225.95 661.28 226.24 655.32 226.27 649.40 C 221.75 652.05 217.85 655.45 213.90 658.86 C 209.33 662.83 204.07 666.56 200.12 671.11 C 194.63 677.39 190.45 684.96 185.37 691.45 C 181.00 697.09 174.67 698.70 169.88 703.88 C 165.71 708.17 163.59 713.46 160.08 718.09 C 157.38 721.83 151.77 722.74 147.63 724.11 C 147.43 723.36 147.22 722.63 146.97 721.90 C 151.33 720.57 155.95 719.76 158.84 715.88 C 162.36 711.21 164.51 706.02 168.77 701.76 C 173.52 696.93 179.56 695.27 183.82 689.85 C 188.64 683.61 192.67 676.74 197.66 670.62 C 201.49 665.93 206.10 662.64 210.71 658.76 C 214.91 655.31 218.90 651.59 223.14 648.20 C 224.96 646.80 227.13 645.12 229.42 644.68 C 233.39 644.05 237.88 644.70 241.77 643.66 C 244.80 642.71 247.40 639.87 249.74 637.82 C 244.62 630.91 238.77 624.33 231.99 619.00 C 229.55 617.11 226.82 615.11 223.76 614.41 C 219.02 613.34 213.74 613.93 208.96 612.93 C 206.40 612.46 203.65 611.59 201.04 611.69 C 197.30 611.93 193.75 612.82 189.96 612.75 C 188.58 612.63 187.31 612.87 186.35 611.67 C 182.58 607.34 182.25 600.87 179.55 596.47 C 177.46 594.89 174.53 594.20 172.02 593.55 C 169.45 595.58 166.46 598.13 165.18 601.21 C 163.71 605.57 165.24 611.22 163.32 615.45 C 162.23 617.76 160.76 620.10 158.80 621.77 C 155.40 623.37 151.67 622.88 148.52 625.49 C 143.15 629.74 138.52 634.86 133.30 639.30 C 128.01 644.05 122.33 650.73 122.29 658.22 C 121.99 656.32 121.62 654.44 121.23 652.56 C 124.30 643.89 130.80 639.23 137.31 633.30 C 140.72 630.38 143.76 627.04 147.23 624.20 C 150.09 621.84 153.91 621.66 157.12 620.05 C 159.39 618.32 160.99 615.56 162.16 613.00 C 164.08 608.86 162.93 603.70 163.96 599.83 C 165.47 596.73 168.69 594.46 170.42 591.48 C 171.08 589.18 170.35 586.36 169.94 584.07 C 168.78 578.35 166.29 573.32 163.97 568.04 C 160.76 560.74 160.98 553.28 158.69 545.29 C 157.48 541.32 156.34 536.55 153.64 533.31 C 150.60 530.75 145.83 530.00 141.98 529.79 C 137.43 529.60 133.88 532.05 129.94 533.93 C 125.50 536.20 120.34 537.07 115.41 536.34 C 112.50 535.77 109.84 533.21 107.41 531.57 C 104.45 529.37 101.20 528.62 97.83 527.31 L 97.75 527.23 C 100.54 527.38 103.64 527.10 106.33 527.89 C 109.78 529.76 113.00 534.37 117.07 534.71 C 124.29 535.23 129.44 531.01 135.78 528.85 C 141.93 527.19 149.20 529.07 155.21 530.70 C 158.29 528.24 161.15 525.63 163.92 522.82 C 161.65 520.95 158.95 519.19 157.17 516.83 C 155.78 511.39 157.97 504.88 157.56 499.28 C 157.20 496.11 155.80 492.93 154.69 489.96 C 158.12 484.65 162.65 479.65 162.80 472.99 C 163.18 468.26 160.28 464.02 157.82 460.22 C 155.12 455.97 150.98 454.79 147.14 451.81 C 143.02 448.68 139.59 445.30 134.64 443.42 C 130.98 441.81 125.87 440.91 123.29 437.72 C 121.33 435.37 119.38 432.62 118.54 429.66 C 118.70 425.61 120.23 421.54 120.99 417.56 C 108.39 421.32 96.07 417.53 83.27 421.26 C 75.49 423.67 67.97 427.00 60.35 429.89 C 60.46 430.97 60.59 432.05 60.73 433.13 C 60.27 431.56 59.74 430.02 59.21 428.47 C 65.51 425.46 71.93 422.99 78.46 420.50 C 82.18 419.08 85.98 418.09 89.99 418.10 C 100.11 417.99 109.67 418.54 119.42 415.21 C 117.13 411.21 114.64 407.87 114.56 403.05 C 114.30 394.37 114.60 385.68 114.36 377.00 C 114.36 373.57 114.06 369.87 114.85 366.53 C 116.23 362.66 120.20 359.72 121.34 355.81 C 122.55 348.71 120.71 340.80 120.94 334.01 C 121.49 327.15 123.34 320.36 124.67 313.61 C 122.72 313.55 120.77 313.47 118.82 313.46 C 120.82 313.30 122.83 313.04 124.82 312.81 C 125.44 311.71 126.06 310.61 126.68 309.50 Z" fill="none" />
<path d="M 357.68 313.46 C 360.38 315.43 362.41 318.53 364.40 321.19 C 360.84 320.32 357.67 318.88 354.52 317.03 C 355.40 315.99 355.85 312.58 357.68 313.46 Z" fill="none" />
<!-- Deshaies --><path d="M 106.44 314.62 C 110.39 313.57 114.75 313.72 118.82 313.46 C 120.77 313.47 122.72 313.55 124.67 313.61 C 123.34 320.36 121.49 327.15 120.94 334.01 C 120.71 340.80 122.55 348.71 121.34 355.81 C 120.20 359.72 116.23 362.66 114.85 366.53 C 114.06 369.87 114.36 373.57 114.36 377.00 C 114.60 385.68 114.30 394.37 114.56 403.05 C 114.64 407.87 117.13 411.21 119.42 415.21 C 109.67 418.54 100.11 417.99 89.99 418.10 C 85.98 418.09 82.18 419.08 78.46 420.50 C 71.93 422.99 65.51 425.46 59.21 428.47 C 58.09 426.62 57.10 424.70 56.13 422.76 C 58.21 421.53 60.29 420.30 62.37 419.08 C 62.88 414.36 63.91 409.72 64.47 405.02 C 64.33 401.32 61.58 397.82 61.57 394.02 C 61.67 391.06 62.55 388.06 63.26 385.20 C 63.70 387.63 64.13 390.07 64.54 392.51 C 65.09 392.66 65.65 392.81 66.20 392.96 C 65.25 389.46 65.76 386.39 66.57 382.93 C 68.46 381.33 70.31 379.70 72.15 378.04 C 68.80 375.25 65.14 373.93 60.98 372.86 C 61.82 371.45 62.61 369.92 63.66 368.65 C 67.41 364.59 74.36 363.08 77.57 358.62 C 79.10 354.28 77.65 348.94 78.68 344.47 C 80.18 340.77 83.21 337.68 85.14 334.16 C 87.33 330.61 88.55 326.33 91.09 323.05 C 93.79 320.62 98.92 321.30 101.63 318.67 C 103.21 317.36 104.64 315.61 106.44 314.62 Z" fill="#e6ddd3" />
<path d="M 216.23 316.59 C 218.23 317.68 217.39 320.37 217.61 322.28 C 216.51 322.39 215.41 322.50 214.31 322.62 C 213.17 321.23 212.04 319.86 210.98 318.41 C 212.52 317.61 214.40 315.95 216.23 316.59 Z" fill="none" />
<path d="M 252.74 317.07 C 253.18 320.49 253.44 323.87 253.52 327.32 C 251.73 326.66 249.56 326.17 248.03 324.98 C 246.03 323.30 245.58 320.21 244.89 317.83 C 247.51 317.57 250.12 317.32 252.74 317.07 Z" fill="none" />
<path d="M 372.40 321.43 C 375.55 321.07 378.82 321.28 381.98 321.38 C 380.98 322.68 379.97 323.98 378.97 325.28 C 376.74 325.39 374.51 325.49 372.29 325.60 C 372.30 324.22 372.29 322.81 372.40 321.43 Z" fill="none" />
<!-- Saint-François --><path d="M 720.35 324.09 C 723.97 325.89 727.27 328.12 730.54 330.47 C 733.37 332.52 736.73 333.49 739.64 335.35 C 742.22 337.31 743.82 340.79 745.51 343.50 C 748.23 348.27 751.79 352.01 753.85 357.17 C 755.95 362.30 757.81 367.13 762.00 370.99 C 769.14 377.94 778.45 380.06 788.02 381.25 C 793.82 381.61 797.39 386.96 803.07 389.01 C 813.46 393.97 823.48 389.41 834.69 392.44 C 837.13 393.31 839.37 395.06 841.55 396.45 C 844.98 398.75 848.63 400.35 852.24 402.32 C 850.61 402.63 848.68 403.49 847.02 403.09 C 842.70 402.17 838.58 400.47 834.24 399.59 C 824.52 397.38 814.01 400.01 804.52 397.68 C 799.53 396.54 795.30 394.60 790.04 395.01 C 779.78 395.80 769.22 395.94 759.02 394.55 C 751.52 393.55 744.24 394.52 736.86 395.82 C 737.73 397.33 738.60 398.84 739.50 400.33 C 738.81 401.46 738.12 402.59 737.43 403.72 C 732.10 404.06 726.47 403.24 721.24 404.28 C 715.74 406.18 711.27 410.56 705.76 412.63 C 700.63 414.74 695.47 413.82 690.36 415.35 C 685.01 416.96 679.48 418.09 673.92 418.63 C 670.87 418.97 668.41 417.79 665.75 416.51 C 665.32 410.78 665.94 404.76 664.74 399.14 C 663.54 393.85 660.14 390.18 657.14 385.86 C 652.64 379.31 649.13 372.27 648.05 364.30 C 653.95 360.93 660.41 359.36 666.61 356.71 C 667.29 352.54 667.89 348.37 668.44 344.18 C 671.16 344.35 674.02 344.74 676.73 344.40 C 679.83 342.36 682.11 338.86 684.72 336.22 C 687.90 337.69 691.10 339.41 694.46 340.42 C 697.48 341.35 700.81 340.32 703.79 339.65 C 707.88 338.61 712.03 337.94 716.20 337.30 C 717.24 332.77 718.30 328.30 720.35 324.09 Z" fill="#e6ddd3" />
<path d="M 267.00 330.28 C 271.51 330.29 274.57 334.05 277.45 337.02 C 276.39 337.99 275.34 338.96 274.28 339.92 C 274.49 341.20 274.70 342.48 274.90 343.77 C 272.25 344.05 269.60 344.30 266.94 344.50 C 267.55 342.58 268.19 340.66 268.82 338.74 C 266.80 337.07 264.77 335.41 262.74 333.75 C 263.94 332.54 265.05 330.06 267.00 330.28 Z" fill="none" />
<path d="M 266.00 332.89 C 267.17 333.11 268.34 333.34 269.50 333.59 C 271.21 334.69 272.65 336.07 274.08 337.51 C 270.34 336.70 268.57 335.65 266.00 332.89 Z" fill="none" />
<path d="M 261.51 337.55 C 262.82 337.50 264.12 337.45 265.43 337.39 C 266.00 340.14 266.41 342.86 266.69 345.65 C 264.52 344.95 262.35 344.24 260.20 343.50 C 260.63 341.52 261.07 339.53 261.51 337.55 Z" fill="none" />
<!-- Sainte-Anne --><path d="M 615.28 346.17 C 615.45 347.36 615.61 348.55 615.78 349.75 C 613.83 350.92 611.88 352.08 609.92 353.23 C 610.75 356.39 611.23 360.89 614.24 362.76 C 617.82 364.92 622.95 364.89 627.00 364.86 C 633.03 364.86 637.78 362.40 643.17 360.13 C 645.76 365.16 647.41 370.48 649.25 375.80 C 651.49 382.20 655.42 387.26 659.35 392.65 C 664.11 398.62 663.04 408.14 663.94 415.48 C 663.52 417.24 663.01 418.98 662.49 420.72 C 657.97 420.84 653.44 420.62 648.92 420.82 C 644.45 420.92 640.34 424.38 636.40 426.29 C 628.98 430.20 620.06 429.94 612.81 432.86 C 605.04 436.00 602.77 444.59 594.90 448.01 C 590.30 449.86 585.64 447.20 581.50 445.38 C 580.26 448.32 579.09 451.27 577.99 454.26 C 575.89 453.54 573.11 451.14 571.06 453.00 C 567.17 455.81 564.83 460.00 560.45 462.49 C 556.85 464.47 552.94 465.83 549.30 467.75 C 546.43 463.53 545.48 458.68 542.25 454.77 C 539.71 451.58 536.96 448.73 534.78 445.24 C 531.65 440.36 529.86 434.95 526.96 430.02 C 524.21 425.28 519.60 421.38 514.26 419.96 C 511.47 419.13 508.23 418.69 505.67 417.30 C 502.87 415.72 500.92 412.64 499.06 410.10 C 502.79 407.26 506.40 405.21 510.76 403.50 C 511.27 397.99 511.12 392.50 510.77 386.98 C 513.35 384.81 516.20 381.16 519.88 381.39 C 525.55 381.16 531.96 382.60 537.29 380.28 C 544.28 377.29 550.77 372.69 557.98 370.02 C 563.74 367.90 569.57 367.14 575.34 365.31 C 579.83 363.90 584.01 361.81 588.54 360.49 C 591.25 359.62 594.27 359.04 596.76 357.66 C 599.47 355.88 601.52 353.14 604.17 351.23 C 607.38 348.89 611.57 347.55 615.28 346.17 Z" fill="#e6ddd3" />
<!-- Les Abymes --><path d="M 394.84 347.67 C 400.21 349.25 405.46 350.94 410.40 353.61 C 413.60 355.23 416.92 357.54 420.42 358.38 C 424.01 359.02 427.84 358.72 431.48 358.69 C 431.96 356.85 432.45 355.00 432.93 353.16 C 437.53 353.50 442.04 354.06 446.37 355.72 C 448.54 356.34 451.17 357.66 453.44 357.34 C 456.49 355.69 459.04 353.01 461.74 350.84 C 464.53 353.35 467.30 356.60 470.71 358.23 C 475.58 359.42 480.97 357.37 485.26 360.69 C 489.04 363.06 490.71 366.25 491.96 370.41 C 497.53 372.51 503.18 372.48 508.96 373.26 C 512.16 373.55 513.91 377.30 515.62 379.60 C 513.33 381.84 510.33 384.14 508.90 387.06 C 508.28 391.95 509.58 397.14 509.78 402.08 C 506.29 403.15 503.62 404.43 500.84 406.81 C 495.81 410.98 490.20 412.18 484.22 414.35 C 474.07 417.86 464.50 423.90 454.81 428.85 C 447.70 432.46 441.61 437.25 434.99 441.63 C 433.18 440.52 431.38 439.42 429.57 438.31 C 421.11 444.83 419.60 455.15 411.58 462.07 C 408.11 459.12 406.42 455.38 404.74 451.27 C 407.52 444.27 409.50 435.91 408.50 428.40 C 405.96 424.34 399.95 424.40 395.76 423.65 C 391.62 423.20 388.20 421.32 384.76 419.12 C 384.69 414.44 384.84 409.99 383.56 405.45 C 382.45 401.49 380.70 397.68 378.80 394.04 C 379.78 392.48 381.13 390.85 381.58 389.05 C 381.86 386.95 381.06 384.61 380.65 382.55 C 379.94 380.17 381.08 377.73 381.65 375.42 C 384.23 376.41 386.83 377.30 389.51 378.03 C 389.53 375.18 389.51 372.34 389.49 369.50 C 386.86 368.34 384.23 367.18 381.60 366.02 C 381.66 364.76 381.72 363.50 381.78 362.24 C 383.54 362.24 385.29 362.24 387.05 362.25 C 390.84 357.99 393.06 353.03 394.84 347.67 Z" fill="#e6ddd3" />
<path d="M 273.69 349.40 C 276.36 349.91 279.00 350.57 281.63 351.24 C 281.55 352.69 281.47 354.14 281.39 355.58 C 278.17 354.93 274.99 354.19 271.82 353.34 C 272.42 352.02 273.03 350.70 273.69 349.40 Z" fill="none" />
<!-- Le Lamentin --><path d="M 311.11 366.45 L 313.25 366.81 C 310.71 370.05 307.22 371.61 304.05 374.03 C 300.13 377.42 302.02 385.11 299.20 389.15 C 297.93 390.44 296.21 391.39 294.70 392.37 C 294.93 389.40 295.74 385.96 295.00 383.04 C 294.12 380.94 291.10 379.89 289.25 378.77 C 289.30 381.96 289.39 385.14 289.48 388.33 C 287.54 390.40 285.35 392.41 283.78 394.77 C 282.50 396.94 282.43 399.90 281.85 402.33 C 279.96 407.50 277.92 412.52 277.03 418.00 C 275.74 424.30 277.14 430.25 276.53 436.46 C 275.54 443.51 271.27 448.92 268.00 454.93 C 264.76 460.90 265.44 467.28 262.73 473.68 C 261.43 476.59 259.96 480.48 256.75 481.69 C 250.78 484.20 244.98 486.93 239.71 490.76 C 236.58 493.04 234.43 496.26 232.09 499.30 C 223.82 499.51 215.19 500.16 207.20 502.41 C 199.87 504.51 194.95 513.40 188.19 516.30 C 183.30 518.00 177.04 516.89 171.94 517.33 C 169.60 517.60 167.35 519.08 165.08 519.75 C 162.60 518.88 160.41 516.85 158.32 515.29 C 158.45 510.15 159.18 505.08 159.58 499.96 C 159.95 496.30 158.61 493.28 157.29 489.99 C 161.66 484.41 164.27 478.84 166.30 472.07 C 171.16 472.78 175.96 473.75 180.75 474.83 C 184.53 472.46 188.26 470.15 192.38 468.41 C 196.83 466.50 201.12 465.09 204.84 461.84 C 209.01 458.18 213.35 454.08 216.17 449.27 C 217.08 447.85 217.95 446.30 219.11 445.07 C 221.76 442.63 226.04 441.15 228.26 438.26 C 230.04 435.67 230.56 432.04 230.13 428.99 C 229.40 427.29 226.64 426.38 225.17 425.33 C 225.91 423.26 226.86 421.13 227.15 418.95 C 227.09 416.26 226.00 413.50 225.31 410.91 C 227.37 407.90 230.13 404.62 230.79 400.97 C 231.66 396.43 231.96 391.81 232.78 387.26 C 235.89 387.09 239.01 386.91 242.13 386.75 C 242.71 383.81 243.15 380.85 243.48 377.87 C 249.66 376.55 255.78 376.80 262.04 376.73 C 265.75 376.70 268.53 374.84 272.01 374.07 C 276.37 374.16 280.57 375.63 284.97 375.60 C 290.13 375.59 295.72 376.37 300.16 373.20 C 304.09 370.81 306.44 366.93 311.11 366.45 Z" fill="#e6ddd3" />
<path d="M 353.54 370.90 C 355.60 372.22 357.65 373.55 359.80 374.73 C 359.39 375.83 358.98 376.93 358.57 378.03 C 353.93 377.71 351.57 375.39 348.71 372.04 C 350.31 371.63 351.91 371.22 353.54 370.90 Z" fill="none" />
<path d="M 339.47 373.51 C 340.98 372.80 342.84 374.54 342.71 376.07 C 342.60 379.80 339.88 383.42 337.79 386.34 C 337.01 384.64 336.08 382.84 335.68 381.02 C 336.05 378.25 337.39 375.41 339.47 373.51 Z" fill="none" />
<path d="M 324.07 375.97 C 325.89 375.15 328.12 376.14 329.35 377.56 C 329.63 378.94 329.72 380.40 329.85 381.81 C 326.71 381.09 323.62 380.26 320.57 379.23 C 321.61 378.12 322.65 376.56 324.07 375.97 Z" fill="none" />
<!-- Baie-Mahault --><path d="M 360.15 384.47 C 362.74 383.75 365.52 383.54 368.18 383.21 C 370.26 384.86 372.32 386.52 374.31 388.28 C 374.00 390.37 373.70 392.44 373.76 394.56 C 375.86 396.88 377.99 398.83 379.27 401.76 C 381.67 406.95 381.74 413.52 382.34 419.15 C 380.86 420.17 379.38 421.19 377.89 422.20 C 377.43 424.35 376.69 426.61 376.69 428.82 C 377.79 431.82 380.17 434.49 381.84 437.21 C 380.63 437.99 379.43 438.78 378.22 439.57 C 379.14 442.49 379.73 445.95 381.43 448.53 C 384.38 449.95 387.59 450.78 390.57 452.14 C 387.85 452.98 384.28 455.02 381.54 453.45 C 377.26 451.33 373.50 448.44 368.96 446.80 C 368.04 448.56 367.13 450.32 366.20 452.07 C 364.66 449.89 363.17 447.68 361.71 445.44 C 359.38 446.48 357.01 447.74 354.53 448.37 C 351.99 448.79 349.27 448.34 346.69 448.40 C 344.22 448.13 342.34 450.51 340.55 451.93 C 335.12 451.42 329.08 449.96 323.68 450.70 C 318.68 451.30 314.98 456.30 311.00 459.07 C 307.66 461.60 303.60 461.75 299.68 462.79 C 295.39 463.84 292.25 466.36 288.39 468.37 C 283.80 470.83 279.11 472.28 274.37 474.35 C 270.32 476.09 266.37 478.30 262.43 480.33 C 264.01 476.49 265.65 472.89 266.59 468.81 C 267.54 464.66 267.96 460.76 269.86 456.88 C 272.71 450.96 277.00 445.95 278.29 439.30 C 279.15 434.36 278.48 429.01 278.78 423.99 C 279.08 416.40 281.80 409.20 283.87 401.95 C 289.85 400.78 295.71 399.08 301.72 398.02 C 301.79 402.25 300.21 405.37 298.57 409.09 C 298.85 411.21 302.50 412.09 304.06 413.05 C 306.83 410.15 309.83 407.47 312.57 404.54 C 315.24 401.68 316.44 397.94 317.95 394.40 C 318.39 397.04 318.87 399.68 319.40 402.31 C 318.02 404.72 316.61 407.11 315.20 409.50 C 319.79 411.49 325.01 413.03 329.81 410.77 C 333.75 408.48 336.50 403.74 339.14 400.10 C 341.79 396.56 342.84 392.53 343.72 388.27 C 346.42 388.60 349.27 389.19 351.99 388.95 C 354.88 387.90 357.25 385.45 360.15 384.47 Z" fill="#e6ddd3" />
<path d="M 376.22 393.20 C 377.08 393.45 377.95 393.73 378.80 394.04 C 380.70 397.68 382.45 401.49 383.56 405.45 C 384.84 409.99 384.69 414.44 384.76 419.12 C 388.20 421.32 391.62 423.20 395.76 423.65 C 399.95 424.40 405.96 424.34 408.50 428.40 C 409.50 435.91 407.52 444.27 404.74 451.27 C 404.21 450.12 403.68 448.98 403.09 447.86 C 405.13 442.26 404.97 436.26 406.73 430.54 C 401.83 427.93 396.61 427.34 391.25 426.30 C 390.45 426.72 389.64 427.14 388.84 427.56 C 387.64 426.19 386.47 424.00 384.78 423.29 C 383.16 423.27 381.51 423.54 379.91 423.75 C 380.56 424.96 381.20 426.17 381.88 427.36 C 382.89 429.12 384.00 430.82 385.14 432.51 C 384.56 433.74 383.98 434.98 383.40 436.21 C 382.88 436.54 382.36 436.88 381.84 437.21 C 380.17 434.49 377.79 431.82 376.69 428.82 C 376.69 426.61 377.43 424.35 377.89 422.20 C 379.38 421.19 380.86 420.17 382.34 419.15 C 381.74 413.52 381.67 406.95 379.27 401.76 C 377.99 398.83 375.86 396.88 373.76 394.56 C 374.57 394.10 375.39 393.65 376.22 393.20 Z" fill="none" />
<!-- Le Gosier --><path d="M 497.03 412.34 C 500.51 413.96 502.83 417.92 506.29 419.61 C 509.42 420.92 512.97 421.28 516.12 422.86 C 519.76 424.72 522.80 427.61 524.92 431.10 C 528.06 436.20 530.14 442.41 533.58 447.46 C 536.27 451.48 539.79 454.71 542.20 458.77 C 544.17 462.07 545.22 465.62 546.43 469.24 C 545.66 469.63 544.90 470.03 544.13 470.42 C 538.45 469.19 531.78 468.38 526.13 470.07 C 521.04 472.39 518.03 478.28 513.00 481.01 C 509.40 483.27 504.35 482.48 500.24 482.60 C 498.65 484.30 496.99 486.22 495.06 487.52 C 492.31 487.71 489.40 486.81 486.74 486.17 C 479.32 484.33 472.62 481.98 465.00 481.65 C 459.29 481.28 453.66 481.81 447.97 482.16 C 444.02 482.46 440.91 480.88 437.41 479.36 C 437.53 475.53 437.30 471.91 436.58 468.14 C 431.76 468.08 427.68 469.56 423.23 471.18 C 419.52 472.54 416.01 471.97 412.29 471.07 C 414.58 469.76 416.91 468.52 419.26 467.30 C 418.12 465.35 416.96 463.42 415.77 461.50 C 420.84 454.93 424.06 447.35 428.82 440.59 C 430.88 441.78 432.94 442.97 435.00 444.17 C 442.04 439.77 448.40 434.55 455.83 430.76 C 465.79 425.66 474.78 420.10 485.32 416.29 C 489.16 414.94 493.02 413.04 497.03 412.34 Z" fill="#e6ddd3" />
<!-- Pointe-Noire --><path d="M 120.99 417.56 C 120.23 421.54 118.70 425.61 118.54 429.66 C 119.38 432.62 121.33 435.37 123.29 437.72 C 125.87 440.91 130.98 441.81 134.64 443.42 C 139.59 445.30 143.02 448.68 147.14 451.81 C 150.98 454.79 155.12 455.97 157.82 460.22 C 160.28 464.02 163.18 468.26 162.80 472.99 C 162.65 479.65 158.12 484.65 154.69 489.96 C 155.80 492.93 157.20 496.11 157.56 499.28 C 157.97 504.88 155.78 511.39 157.17 516.83 C 158.95 519.19 161.65 520.95 163.92 522.82 C 161.15 525.63 158.29 528.24 155.21 530.70 C 149.20 529.07 141.93 527.19 135.78 528.85 C 129.44 531.01 124.29 535.23 117.07 534.71 C 113.00 534.37 109.78 529.76 106.33 527.89 C 103.64 527.10 100.54 527.38 97.75 527.23 C 95.62 524.34 93.72 521.24 91.99 518.09 C 90.74 515.59 89.34 512.97 90.00 510.08 C 91.05 504.53 93.09 499.83 92.48 494.00 C 91.92 488.81 91.38 482.41 87.59 478.45 C 82.67 473.03 76.83 468.46 71.96 463.00 C 68.13 458.62 66.82 453.17 65.21 447.73 C 63.85 442.81 61.95 438.09 60.73 433.13 C 60.59 432.05 60.46 430.97 60.35 429.89 C 67.97 427.00 75.49 423.67 83.27 421.26 C 96.07 417.53 108.39 421.32 120.99 417.56 Z" fill="#e6ddd3" />
<!-- Pointe-à-Pitre --><path d="M 384.78 423.29 C 386.47 424.00 387.64 426.19 388.84 427.56 C 389.64 427.14 390.45 426.72 391.25 426.30 C 396.61 427.34 401.83 427.93 406.73 430.54 C 404.97 436.26 405.13 442.26 403.09 447.86 C 400.51 446.13 397.22 445.18 395.69 442.43 C 391.93 436.35 388.79 430.38 381.88 427.36 C 381.20 426.17 380.56 424.96 379.91 423.75 C 381.51 423.54 383.16 423.27 384.78 423.29 Z" fill="#e6ddd3" />
<path d="M 940.36 446.10 C 938.81 449.74 937.01 454.55 932.87 455.85 C 929.01 456.94 924.21 454.58 920.70 453.09 C 926.03 448.52 933.48 446.55 940.36 446.10 Z" fill="none" />
<path d="M 936.07 450.07 C 935.08 451.22 934.14 452.37 933.02 453.39 C 930.96 453.41 928.83 452.93 926.81 452.60 C 928.68 451.80 930.58 451.05 932.53 450.47 C 933.71 450.32 934.89 450.19 936.07 450.07 Z" fill="none" />
<!-- Petit-Bourg --><path d="M 339.64 454.76 C 339.51 455.85 339.37 456.95 339.22 458.04 C 338.24 461.98 335.68 466.68 336.56 470.78 C 337.52 473.44 339.36 475.84 340.83 478.24 C 338.69 479.91 336.55 481.56 334.39 483.18 C 336.60 484.19 339.55 484.93 340.93 487.04 C 341.83 488.58 343.17 490.01 341.86 491.76 C 339.25 496.02 334.44 499.52 334.64 505.00 C 335.23 509.79 337.96 514.39 341.09 517.98 C 343.38 520.63 346.65 521.12 349.85 522.09 C 349.84 527.63 348.21 532.73 347.24 538.11 C 343.60 538.84 339.23 539.13 336.02 541.08 C 332.30 543.89 329.86 548.21 326.26 551.24 C 322.42 554.47 318.14 557.22 314.00 560.05 C 310.13 562.73 305.89 563.49 301.48 564.76 C 296.06 566.31 291.42 569.36 286.02 570.11 C 278.13 571.14 269.96 569.96 262.09 570.46 C 259.04 571.06 255.86 574.70 256.26 577.95 C 256.11 585.84 258.47 592.77 256.70 600.73 C 255.63 605.27 255.01 610.54 252.73 614.63 C 248.95 617.83 244.00 619.75 239.77 622.35 C 235.56 619.57 231.95 615.99 227.73 613.26 C 221.90 609.54 213.86 612.97 207.34 610.53 C 204.78 609.86 202.93 608.43 200.28 609.34 C 196.42 610.40 192.57 611.34 188.60 611.92 C 186.01 607.57 184.50 602.87 182.81 598.13 C 181.57 593.77 176.65 593.12 173.59 590.35 C 172.10 587.40 172.00 583.67 171.19 580.47 C 169.75 573.71 165.83 568.50 164.12 561.90 C 162.70 556.38 162.42 550.69 160.78 545.19 C 159.48 540.86 158.02 536.58 156.93 532.18 C 161.14 527.83 165.52 522.87 170.74 519.76 C 176.21 516.88 184.08 519.85 189.80 517.83 C 195.67 514.94 199.33 508.34 205.53 505.53 C 213.21 501.98 223.41 502.62 231.63 501.42 C 235.06 501.25 236.96 496.48 239.41 494.40 C 244.97 489.31 252.52 486.00 259.59 483.59 C 266.35 481.33 272.21 477.32 278.91 474.89 C 284.40 472.88 289.45 470.38 294.48 467.42 C 298.60 464.94 303.02 464.46 307.58 463.33 C 313.32 461.83 317.42 455.10 322.65 452.71 C 328.10 451.13 334.46 452.94 339.64 454.76 Z" fill="#F4C430" />
<path d="M 923.99 456.80 C 927.69 455.96 931.35 457.17 934.96 457.94 C 934.45 460.05 935.17 463.74 932.59 464.53 C 924.69 467.64 915.42 468.29 907.11 466.70 C 902.95 465.86 900.10 463.21 897.54 460.00 C 902.03 458.56 906.37 458.44 911.03 458.73 C 915.57 459.05 919.63 457.69 923.99 456.80 Z" fill="none" />
<path d="M 928.01 459.13 C 929.85 459.59 932.13 459.30 931.86 461.89 C 928.99 463.22 925.90 463.73 922.79 464.13 C 924.38 463.10 925.90 461.97 927.42 460.83 C 925.91 460.46 924.39 460.12 922.86 459.80 C 924.56 459.39 926.25 458.99 928.01 459.13 Z" fill="none" />
<path d="M 375.94 459.73 C 379.75 459.72 383.10 460.18 386.68 461.52 C 386.23 463.05 385.78 464.57 385.32 466.09 C 384.53 466.56 383.73 467.03 382.93 467.50 C 380.97 466.71 378.82 466.00 377.07 464.81 C 376.41 463.23 376.25 461.41 375.94 459.73 Z" fill="none" />
<path d="M 922.86 459.80 C 924.39 460.12 925.91 460.46 927.42 460.83 C 925.90 461.97 924.38 463.10 922.79 464.13 C 916.04 464.77 908.79 465.04 902.60 461.83 C 909.54 461.65 916.18 462.16 922.86 459.80 Z" fill="none" />
<path d="M 380.25 462.15 C 381.47 460.92 383.62 462.16 382.67 463.80 C 381.45 465.02 379.30 463.79 380.25 462.15 Z" fill="none" />
<path d="M 403.53 471.25 C 403.64 473.47 403.74 475.69 403.85 477.91 C 399.18 477.36 395.24 476.34 391.25 473.81 C 391.28 471.80 391.30 469.78 391.40 467.77 C 396.21 466.72 399.56 468.96 403.53 471.25 Z" fill="none" />
<path d="M 396.28 472.30 C 397.66 471.97 400.30 472.43 400.90 473.87 C 400.14 475.49 396.35 473.84 396.28 472.30 Z" fill="none" />
<path d="M 522.37 480.52 C 524.70 480.26 529.07 479.58 530.56 481.87 C 530.40 487.37 521.71 492.27 517.90 486.94 C 516.32 484.04 519.87 481.18 522.37 480.52 Z" fill="none" />
<path d="M 527.62 482.24 C 526.66 483.81 525.68 485.35 524.70 486.90 C 522.97 486.58 521.24 486.23 519.52 485.88 C 521.90 483.27 524.20 482.79 527.62 482.24 Z" fill="none" />
<path d="M 466.07 496.88 C 465.14 498.40 464.19 499.91 463.25 501.43 C 460.94 501.00 458.64 500.58 456.33 500.18 C 456.38 498.55 456.44 496.92 456.56 495.30 C 459.91 495.07 462.94 495.80 466.07 496.88 Z" fill="none" />
<!-- Bouillante --><path d="M 97.83 527.31 C 101.20 528.62 104.45 529.37 107.41 531.57 C 109.84 533.21 112.50 535.77 115.41 536.34 C 120.34 537.07 125.50 536.20 129.94 533.93 C 133.88 532.05 137.43 529.60 141.98 529.79 C 145.83 530.00 150.60 530.75 153.64 533.31 C 156.34 536.55 157.48 541.32 158.69 545.29 C 160.98 553.28 160.76 560.74 163.97 568.04 C 166.29 573.32 168.78 578.35 169.94 584.07 C 170.35 586.36 171.08 589.18 170.42 591.48 C 168.69 594.46 165.47 596.73 163.96 599.83 C 162.93 603.70 164.08 608.86 162.16 613.00 C 160.99 615.56 159.39 618.32 157.12 620.05 C 153.91 621.66 150.09 621.84 147.23 624.20 C 143.76 627.04 140.72 630.38 137.31 633.30 C 130.80 639.23 124.30 643.89 121.23 652.56 C 119.21 651.46 117.21 650.35 115.21 649.22 C 116.09 646.95 117.32 644.61 117.69 642.19 C 116.58 640.29 114.97 638.64 113.55 636.97 C 114.24 633.33 114.80 629.70 114.67 625.97 C 114.60 620.20 113.06 614.66 112.68 608.97 C 112.27 604.28 118.21 600.92 116.03 596.04 C 114.47 591.44 107.82 589.12 103.88 586.90 C 104.73 583.31 106.08 579.94 107.46 576.54 C 109.05 572.88 107.95 568.68 107.63 564.82 C 106.95 559.61 106.82 553.32 104.36 548.60 C 102.53 545.09 99.01 544.37 95.64 542.96 C 95.37 537.45 95.20 532.35 97.83 527.31 Z" fill="#e6ddd3" />
<!-- Goyave --><path d="M 347.84 540.24 C 349.43 543.52 350.59 546.81 351.66 550.29 C 352.34 553.27 355.28 554.17 357.55 555.78 C 356.92 559.69 355.96 564.19 356.63 568.13 C 357.65 570.81 359.98 573.09 362.29 574.73 C 366.11 577.39 371.17 577.65 374.99 580.08 C 375.86 581.92 376.16 583.92 374.44 585.38 C 370.04 589.73 366.03 593.71 364.46 599.96 C 364.09 603.01 366.06 606.40 367.57 608.95 C 361.42 612.04 355.40 614.70 349.85 618.84 C 346.01 621.63 342.54 625.11 338.55 627.62 C 333.58 630.67 327.75 631.66 322.74 634.74 C 314.98 639.17 308.00 645.80 298.72 646.63 C 292.64 647.43 287.08 645.87 281.59 643.40 C 275.34 640.55 268.78 639.07 262.00 638.17 C 258.28 637.50 253.39 637.14 250.47 634.57 C 247.04 631.68 244.23 627.72 241.59 624.12 C 244.83 622.10 248.17 620.27 251.47 618.38 C 253.01 617.38 254.85 616.50 255.40 614.61 C 256.92 609.85 257.87 604.88 258.89 599.99 C 260.62 591.76 257.44 584.41 258.44 576.23 C 258.81 573.04 262.14 571.75 264.94 571.50 C 272.59 570.81 280.38 571.69 288.04 571.29 C 293.30 571.03 298.31 567.84 303.54 566.58 C 308.12 565.44 312.48 564.18 316.30 561.28 C 321.38 557.52 327.37 554.16 331.29 549.30 C 333.24 547.08 335.18 544.35 337.63 542.68 C 340.44 540.78 344.56 540.69 347.84 540.24 Z" fill="#e6ddd3" />
<!-- Vieux-Habitants --><path d="M 172.02 593.55 C 174.53 594.20 177.46 594.89 179.55 596.47 C 182.25 600.87 182.58 607.34 186.35 611.67 C 187.31 612.87 188.58 612.63 189.96 612.75 C 193.75 612.82 197.30 611.93 201.04 611.69 C 203.65 611.59 206.40 612.46 208.96 612.93 C 213.74 613.93 219.02 613.34 223.76 614.41 C 226.82 615.11 229.55 617.11 231.99 619.00 C 238.77 624.33 244.62 630.91 249.74 637.82 C 247.40 639.87 244.80 642.71 241.77 643.66 C 237.88 644.70 233.39 644.05 229.42 644.68 C 227.13 645.12 224.96 646.80 223.14 648.20 C 218.90 651.59 214.91 655.31 210.71 658.76 C 206.10 662.64 201.49 665.93 197.66 670.62 C 192.67 676.74 188.64 683.61 183.82 689.85 C 179.56 695.27 173.52 696.93 168.77 701.76 C 164.51 706.02 162.36 711.21 158.84 715.88 C 155.95 719.76 151.33 720.57 146.97 721.90 C 143.67 716.41 139.72 711.23 135.83 706.15 C 132.31 701.60 126.91 698.97 123.41 694.53 C 120.37 689.22 122.33 682.75 122.42 677.01 C 122.45 670.75 122.59 664.47 122.29 658.22 C 122.33 650.73 128.01 644.05 133.30 639.30 C 138.52 634.86 143.15 629.74 148.52 625.49 C 151.67 622.88 155.40 623.37 158.80 621.77 C 160.76 620.10 162.23 617.76 163.32 615.45 C 165.24 611.22 163.71 605.57 165.18 601.21 C 166.46 598.13 169.45 595.58 172.02 593.55 Z" fill="#e6ddd3" />
<!-- Capesterre-Belle-Eau --><path d="M 369.40 610.65 C 371.41 611.65 373.42 612.65 375.42 613.67 C 375.49 619.23 379.93 622.48 380.19 627.90 C 380.62 633.27 380.22 638.65 380.98 644.01 C 381.98 651.02 381.59 657.97 381.59 665.02 C 381.02 670.55 386.72 674.83 389.63 679.11 C 386.89 685.82 382.44 691.29 380.28 698.26 C 377.91 705.97 375.27 713.53 371.80 720.82 C 370.89 722.82 368.69 723.81 366.95 725.00 C 362.06 727.94 358.11 731.88 353.58 735.64 C 350.40 738.28 348.37 741.67 345.75 744.79 C 342.65 748.44 338.18 749.61 335.40 753.36 C 333.35 756.06 331.76 758.88 329.29 761.27 C 326.89 763.58 324.20 765.60 321.65 767.74 C 321.51 769.89 321.36 772.02 321.11 774.16 C 318.46 773.11 315.97 772.17 314.05 769.94 C 309.72 765.22 308.48 758.56 306.21 752.73 C 303.72 746.28 300.56 739.31 295.78 734.22 C 292.73 730.95 289.40 727.93 286.23 724.77 C 283.82 722.56 281.62 720.07 278.13 719.83 C 273.91 719.47 269.72 719.36 265.55 718.56 C 264.33 712.41 263.62 706.25 261.83 700.23 C 259.23 699.65 256.64 699.07 254.04 698.49 C 253.69 694.54 253.51 690.58 253.46 686.61 C 250.74 685.50 247.50 684.65 245.18 682.81 C 242.01 678.46 240.81 672.23 239.92 667.00 C 239.50 665.17 239.44 663.39 238.08 661.98 C 235.05 658.59 230.52 655.65 228.08 651.78 C 226.31 649.75 228.30 647.20 230.26 646.26 C 234.18 644.69 239.40 645.90 243.47 645.11 C 247.15 643.55 249.65 638.43 253.97 639.18 C 262.03 639.73 270.20 641.29 277.72 644.27 C 281.65 645.76 285.85 648.07 290.02 648.56 C 294.66 648.98 299.43 648.58 303.99 647.67 C 311.05 646.18 317.44 640.22 323.73 636.72 C 329.82 632.98 336.39 632.20 342.01 627.99 C 346.03 624.99 349.53 621.47 353.84 618.82 C 358.80 615.76 364.05 612.96 369.40 610.65 Z" fill="#e6ddd3" />
<path d="M 725.80 636.31 C 728.31 637.52 730.21 639.97 732.63 641.38 C 735.39 641.95 738.50 641.40 741.31 641.29 C 744.40 643.98 747.19 647.08 750.45 649.57 C 754.71 652.73 759.92 652.93 764.81 654.46 C 768.55 655.62 771.36 658.82 775.24 659.59 C 777.57 660.23 780.39 660.29 782.50 661.50 C 785.22 665.06 785.61 670.55 787.28 674.70 C 789.07 680.05 793.72 683.58 797.57 687.43 C 801.96 691.47 806.39 696.71 811.85 699.15 C 816.68 701.43 821.25 703.00 825.04 706.98 C 829.31 711.39 829.75 717.22 832.57 722.43 C 833.74 724.73 835.45 726.81 836.43 729.20 C 836.62 731.44 836.12 733.77 835.98 736.02 C 835.62 739.99 836.93 744.13 836.42 748.05 C 835.54 751.90 833.26 755.34 832.21 759.18 C 830.99 763.05 830.89 767.52 829.13 771.16 C 825.69 775.09 817.49 773.64 814.01 777.98 C 809.98 782.69 807.31 788.44 803.10 793.07 C 798.35 798.58 792.57 801.57 786.68 805.69 C 782.47 808.44 778.46 811.47 774.31 814.30 C 770.19 817.09 765.81 817.07 761.13 818.21 C 755.61 819.41 751.29 822.67 745.53 823.19 C 740.00 823.60 734.28 825.19 729.05 823.79 C 722.32 822.30 715.64 820.60 708.90 819.13 C 701.73 817.62 696.02 813.70 689.39 810.63 C 685.99 808.98 682.34 807.79 679.04 805.96 C 676.48 804.56 675.05 801.87 673.46 799.54 C 670.32 794.56 666.43 790.42 662.69 785.91 C 663.26 782.66 664.32 778.82 663.37 775.58 C 662.33 772.09 660.83 768.76 659.74 765.29 C 657.27 757.26 654.00 750.07 653.57 741.53 C 653.49 737.82 652.15 733.05 653.59 729.59 C 657.45 724.25 664.09 720.30 668.70 715.68 C 671.05 713.30 672.52 710.50 672.09 707.05 C 671.25 699.00 671.93 690.94 671.13 682.88 C 676.17 680.80 681.40 679.40 686.58 677.74 C 686.18 675.20 685.16 672.28 685.60 669.70 C 686.90 667.26 689.64 665.51 691.52 663.50 C 696.65 658.60 697.51 651.32 702.08 646.08 C 704.19 643.70 706.84 642.31 709.59 640.84 C 712.01 641.05 714.14 641.55 716.40 640.31 C 719.28 639.14 722.61 635.92 725.80 636.31 Z" fill="none" />
<!-- Saint-Louis --><path d="M 724.32 639.63 C 726.97 641.11 729.56 643.32 732.47 644.22 C 735.34 644.77 738.40 644.56 741.31 644.59 C 744.34 647.72 747.50 651.44 751.23 653.72 C 755.28 656.23 760.43 656.58 765.04 657.52 C 768.85 662.47 774.71 662.84 780.42 663.78 C 781.96 667.99 783.08 672.35 784.68 676.53 C 786.31 680.77 789.96 684.09 793.00 687.39 C 790.19 691.49 786.07 692.63 782.03 695.05 C 778.49 697.08 776.98 701.05 773.78 703.74 C 767.62 708.59 760.80 710.94 753.44 713.26 C 753.22 721.16 753.22 729.21 752.08 737.04 C 751.81 739.69 749.60 741.24 747.07 741.38 C 743.56 741.52 740.00 741.10 736.53 740.65 C 730.31 740.54 728.51 732.39 722.37 730.62 C 717.56 729.07 712.75 733.46 708.08 733.79 C 703.93 732.56 700.93 727.55 696.63 726.53 C 691.95 726.03 687.11 726.68 682.39 726.69 C 678.95 722.79 676.16 718.81 673.65 714.26 C 675.07 711.48 676.11 709.00 675.34 705.84 C 673.71 698.41 674.68 691.24 675.53 683.80 C 679.40 682.80 683.91 682.41 687.42 680.43 C 690.96 678.05 688.82 673.48 688.55 670.08 C 691.43 668.05 694.18 666.25 696.27 663.33 C 698.83 659.91 700.01 656.11 701.57 652.22 C 702.75 649.16 705.25 646.53 708.24 645.20 C 710.40 644.51 712.79 644.51 715.02 644.07 C 717.62 643.63 719.68 642.29 721.92 640.99 C 722.72 640.53 723.52 640.07 724.32 639.63 Z" fill="#e6ddd3" />
<!-- Baillif --><path d="M 226.27 649.40 C 226.24 655.32 225.95 661.28 225.27 667.16 C 224.74 671.74 222.10 674.90 219.45 678.46 C 217.57 680.83 215.75 683.48 213.43 685.45 C 210.86 687.40 207.16 687.74 204.49 689.47 C 202.51 691.52 201.25 694.38 199.97 696.90 C 197.60 701.99 195.33 707.17 193.44 712.45 C 191.45 717.98 193.20 724.27 192.00 729.58 C 190.89 733.68 187.22 737.33 184.49 740.48 C 181.48 743.71 178.43 747.62 174.20 749.21 C 169.08 751.16 163.58 752.24 158.25 753.47 C 153.09 744.44 149.62 734.30 147.63 724.11 C 151.77 722.74 157.38 721.83 160.08 718.09 C 163.59 713.46 165.71 708.17 169.88 703.88 C 174.67 698.70 181.00 697.09 185.37 691.45 C 190.45 684.96 194.63 677.39 200.12 671.11 C 204.07 666.56 209.33 662.83 213.90 658.86 C 217.85 655.45 221.75 652.05 226.27 649.40 Z" fill="#e6ddd3" />
<!-- Saint-Claude --><path d="M 227.34 654.55 C 230.74 657.25 234.74 660.27 237.03 664.01 C 238.57 666.94 238.66 670.75 239.36 673.96 C 240.13 678.34 242.00 682.08 243.95 686.02 C 246.84 686.80 249.70 687.65 252.55 688.57 C 252.52 692.36 252.56 696.16 252.69 699.95 C 256.07 700.87 259.13 702.04 262.19 703.73 C 259.94 707.02 256.99 709.74 254.75 713.01 C 255.05 717.87 259.00 722.87 258.65 727.73 C 258.18 730.89 255.09 733.73 253.00 736.00 C 250.06 738.85 247.14 742.54 243.45 744.39 C 237.68 746.63 230.85 746.18 224.94 748.03 C 222.93 748.51 221.87 751.23 220.67 752.74 C 218.86 755.70 216.17 757.51 213.31 759.33 C 207.60 762.90 202.29 766.89 196.16 769.76 C 194.09 765.24 192.24 759.92 188.53 756.48 C 185.62 753.75 182.25 751.48 179.10 749.03 C 182.37 744.97 185.77 741.15 189.46 737.46 C 190.76 736.01 192.50 734.42 193.11 732.54 C 193.90 727.71 192.68 722.05 194.02 717.08 C 194.97 713.65 196.70 710.38 198.03 707.07 C 199.95 702.58 201.61 697.45 204.48 693.49 C 207.27 689.58 213.21 689.33 216.53 685.56 C 219.53 682.23 222.30 678.55 224.83 674.85 C 228.82 669.52 227.01 660.90 227.34 654.55 Z" fill="#e6ddd3" />
<path d="M 793.00 687.39 C 793.76 688.18 794.55 688.96 795.35 689.72 C 791.70 692.47 788.08 694.99 784.01 697.09 C 780.22 699.00 779.33 702.58 776.42 705.32 C 770.13 710.18 763.07 713.47 755.31 715.23 C 755.04 722.17 755.41 729.11 755.22 736.04 C 755.29 739.41 753.14 741.08 751.28 743.55 C 755.67 747.27 761.04 749.23 765.57 752.75 C 765.19 756.87 764.93 760.83 763.72 764.81 C 763.01 767.44 761.88 770.10 761.53 772.82 C 763.65 775.46 768.19 777.08 769.68 780.28 C 771.28 784.20 769.63 789.46 768.64 793.42 C 766.30 794.53 763.98 795.65 761.66 796.78 C 759.82 802.96 758.50 809.26 757.37 815.60 C 756.62 815.73 755.87 815.86 755.11 815.99 C 755.84 809.61 756.75 802.97 759.01 796.93 C 760.10 793.64 765.16 792.59 766.78 789.81 C 767.75 787.31 768.14 784.24 767.34 781.65 C 765.34 778.53 761.18 776.60 758.15 774.57 C 759.80 767.69 762.39 761.28 763.01 754.16 C 759.09 751.76 755.37 749.07 751.54 746.52 C 746.03 742.83 737.81 743.86 731.74 742.09 C 729.96 741.12 728.64 739.16 727.21 737.74 C 725.16 735.42 722.64 733.80 720.06 732.14 C 716.10 734.04 712.11 735.89 708.11 737.72 C 704.49 734.71 700.56 730.27 695.95 728.97 C 690.69 728.00 685.11 728.67 679.77 728.39 C 677.15 724.67 674.70 720.82 671.93 717.22 C 672.55 716.26 673.12 715.26 673.65 714.26 C 676.16 718.81 678.95 722.79 682.39 726.69 C 687.11 726.68 691.95 726.03 696.63 726.53 C 700.93 727.55 703.93 732.56 708.08 733.79 C 712.75 733.46 717.56 729.07 722.37 730.62 C 728.51 732.39 730.31 740.54 736.53 740.65 C 740.00 741.10 743.56 741.52 747.07 741.38 C 749.60 741.24 751.81 739.69 752.08 737.04 C 753.22 729.21 753.22 721.16 753.44 713.26 C 760.80 710.94 767.62 708.59 773.78 703.74 C 776.98 701.05 778.49 697.08 782.03 695.05 C 786.07 692.63 790.19 691.49 793.00 687.39 Z" fill="none" />
<!-- Capesterre de Marie-Galante --><path d="M 795.35 689.72 C 798.76 692.61 801.92 695.78 805.28 698.73 C 810.34 703.14 816.84 703.50 821.82 708.19 C 825.29 711.45 826.34 715.65 828.06 719.91 C 829.41 723.44 831.35 726.59 833.31 729.80 C 831.72 737.90 835.07 744.40 831.75 751.73 C 829.34 757.43 827.58 763.15 827.09 769.35 C 822.21 771.02 815.35 771.77 811.99 775.97 C 807.95 780.67 805.27 786.42 801.09 791.09 C 796.95 795.87 791.60 798.75 786.45 802.39 C 782.06 805.33 777.85 808.59 773.35 811.35 C 768.35 814.34 762.98 814.60 757.37 815.60 C 758.50 809.26 759.82 802.96 761.66 796.78 C 763.98 795.65 766.30 794.53 768.64 793.42 C 769.63 789.46 771.28 784.20 769.68 780.28 C 768.19 777.08 763.65 775.46 761.53 772.82 C 761.88 770.10 763.01 767.44 763.72 764.81 C 764.93 760.83 765.19 756.87 765.57 752.75 C 761.04 749.23 755.67 747.27 751.28 743.55 C 753.14 741.08 755.29 739.41 755.22 736.04 C 755.41 729.11 755.04 722.17 755.31 715.23 C 763.07 713.47 770.13 710.18 776.42 705.32 C 779.33 702.58 780.22 699.00 784.01 697.09 C 788.08 694.99 791.70 692.47 795.35 689.72 Z" fill="#e6ddd3" />
<!-- Gourbeyre --><path d="M 261.40 708.68 C 264.51 716.76 263.73 726.62 262.57 735.04 C 261.38 745.31 254.06 753.24 250.85 762.82 C 249.66 765.72 252.02 768.29 253.33 770.69 C 257.37 776.34 257.38 783.92 258.57 790.62 C 255.51 789.70 252.66 788.82 249.43 789.57 C 244.44 790.48 240.96 793.71 236.41 795.34 C 233.13 796.00 229.42 795.08 226.11 794.77 C 224.61 796.36 223.11 797.95 221.62 799.55 C 215.65 799.62 209.69 799.56 203.72 799.65 C 199.89 793.19 196.43 786.04 189.15 782.95 C 189.36 777.37 193.09 774.18 197.61 771.61 C 204.67 767.82 211.37 763.49 217.91 758.85 C 221.27 756.50 223.16 752.77 226.29 750.26 C 231.88 747.52 239.39 748.75 245.01 745.92 C 248.39 743.95 251.14 740.62 253.86 737.84 C 256.34 735.10 259.73 731.88 260.20 728.05 C 260.87 722.93 257.31 717.98 257.32 713.30 C 258.36 711.58 260.02 710.12 261.40 708.68 Z" fill="#e6ddd3" />
<!-- Grand-Bourg --><path d="M 671.93 717.22 C 674.70 720.82 677.15 724.67 679.77 728.39 C 685.11 728.67 690.69 728.00 695.95 728.97 C 700.56 730.27 704.49 734.71 708.11 737.72 C 712.11 735.89 716.10 734.04 720.06 732.14 C 722.64 733.80 725.16 735.42 727.21 737.74 C 728.64 739.16 729.96 741.12 731.74 742.09 C 737.81 743.86 746.03 742.83 751.54 746.52 C 755.37 749.07 759.09 751.76 763.01 754.16 C 762.39 761.28 759.80 767.69 758.15 774.57 C 761.18 776.60 765.34 778.53 767.34 781.65 C 768.14 784.24 767.75 787.31 766.78 789.81 C 765.16 792.59 760.10 793.64 759.01 796.93 C 756.75 802.97 755.84 809.61 755.11 815.99 C 752.58 817.90 750.37 819.74 747.06 820.05 C 742.38 820.39 737.67 821.13 732.99 821.22 C 724.93 820.16 717.07 817.01 709.03 815.69 C 702.29 814.61 697.30 810.87 690.92 808.02 C 687.34 806.17 683.32 805.04 679.90 802.92 C 677.57 800.67 676.18 797.42 674.14 794.88 C 671.82 791.63 668.42 789.02 666.45 785.56 C 665.88 781.63 668.50 778.28 666.46 774.45 C 662.92 766.79 661.17 758.61 658.14 750.76 C 655.62 744.00 656.45 737.07 656.54 729.91 C 661.65 725.66 666.92 721.59 671.93 717.22 Z" fill="#e6ddd3" />
<!-- Trois-Rivières --><path d="M 264.69 721.63 C 269.11 721.61 273.67 721.32 278.06 721.93 C 281.53 722.34 284.50 725.78 286.97 728.04 C 291.50 732.44 296.00 736.36 298.98 742.06 C 303.86 750.45 304.92 760.01 309.84 768.22 C 312.02 771.97 316.34 774.60 319.67 777.33 C 318.59 778.93 317.27 780.46 316.41 782.20 C 316.17 784.70 317.12 787.42 317.60 789.85 C 314.67 790.23 311.68 790.39 308.78 790.99 C 305.12 791.83 302.22 795.47 298.61 796.45 C 293.36 797.14 287.63 795.57 282.36 796.50 C 276.64 797.89 271.65 803.28 266.31 805.37 C 264.71 806.05 263.14 805.02 261.70 804.42 C 261.36 796.94 260.73 789.47 260.13 782.01 C 259.80 777.68 258.59 774.30 256.23 770.68 C 254.91 768.24 252.30 765.35 253.54 762.44 C 256.13 755.47 260.39 749.12 263.20 742.24 C 265.73 735.75 264.99 728.44 264.69 721.63 Z" fill="#e6ddd3" />
<!-- Basse-Terre --><path d="M 176.24 751.40 C 179.57 751.72 182.87 754.59 185.44 756.59 C 189.81 760.15 191.75 764.87 193.79 769.96 C 191.17 773.77 188.47 777.51 185.28 780.88 C 179.58 777.06 177.96 770.49 172.50 766.54 C 168.05 763.18 163.59 760.02 159.92 755.75 C 165.19 753.98 170.70 751.97 176.24 751.40 Z" fill="#e6ddd3" />
<!-- Vieux-Fort --><path d="M 254.47 791.53 C 258.34 793.87 259.47 798.71 259.67 802.93 C 257.02 804.86 254.60 807.00 252.74 809.73 C 249.79 813.81 247.21 819.10 242.73 821.69 C 238.00 824.29 232.12 825.24 227.01 826.98 C 224.13 827.83 221.01 829.28 217.99 829.27 C 215.11 828.94 211.93 828.19 209.49 826.56 C 207.59 824.17 206.20 820.80 205.60 817.81 C 205.22 813.61 205.87 809.32 205.79 805.10 C 205.82 803.89 205.85 802.69 205.88 801.48 C 210.60 801.32 215.33 801.51 220.03 801.24 C 223.21 801.13 225.32 799.22 228.18 798.09 C 231.65 797.03 235.96 799.54 239.07 797.11 C 243.55 794.35 248.86 790.23 254.47 791.53 Z" fill="#e6ddd3" />
<path d="M 499.21 793.34 C 500.33 796.20 502.05 798.63 503.57 801.26 C 503.78 802.83 502.79 804.64 502.45 806.16 C 505.31 806.32 508.14 806.64 510.93 807.31 C 508.71 810.98 506.83 816.89 502.54 818.54 C 499.58 820.03 496.54 821.38 493.55 822.80 C 492.80 824.93 492.06 827.07 491.32 829.21 C 492.89 830.69 494.47 832.16 496.06 833.63 C 494.93 835.58 493.78 837.52 492.61 839.44 C 486.94 838.38 481.22 837.69 475.59 836.45 C 474.17 840.51 472.95 844.58 471.91 848.76 C 467.37 845.88 462.48 843.74 457.75 841.22 C 454.30 839.28 450.88 840.10 447.21 838.82 C 448.03 834.86 453.71 832.27 456.81 830.20 C 456.38 828.81 455.95 827.42 455.52 826.03 C 456.18 825.10 456.84 824.17 457.50 823.25 C 459.27 823.93 461.05 824.60 462.83 825.28 C 468.29 824.26 473.77 823.56 479.33 823.44 C 480.06 821.58 480.79 819.72 481.51 817.87 C 480.19 815.30 478.62 812.71 477.74 809.96 C 478.06 806.36 480.47 802.78 482.07 799.59 C 483.10 799.58 484.13 799.57 485.16 799.56 C 486.76 802.75 488.02 805.69 491.34 807.48 C 490.99 802.75 490.30 798.32 491.74 793.67 C 494.21 793.45 496.73 793.40 499.21 793.34 Z" fill="none" />
<!-- Terre-de-Haut --><path d="M 494.40 795.83 C 496.56 797.84 499.07 799.77 500.76 802.20 C 500.80 804.89 498.10 807.45 497.29 810.03 C 497.42 812.66 499.51 813.09 501.44 814.17 C 500.05 815.58 498.69 817.01 497.35 818.46 C 495.71 818.52 494.07 818.59 492.44 818.64 C 490.75 822.37 489.32 826.12 488.14 830.03 C 490.08 831.69 491.71 833.43 493.19 835.51 C 489.33 834.69 485.87 834.35 481.93 834.49 C 478.87 834.63 476.63 833.21 473.86 832.12 C 472.97 835.20 472.10 838.28 471.29 841.38 C 468.71 841.68 465.84 842.70 463.46 841.38 C 460.68 840.02 458.23 837.68 455.88 835.69 C 454.55 836.00 453.22 836.30 451.88 836.60 C 454.06 835.48 456.25 834.37 458.43 833.27 C 459.05 831.68 459.68 830.09 460.29 828.49 C 466.92 827.60 473.48 826.50 480.18 826.25 C 481.81 823.58 484.27 820.22 484.23 816.99 C 483.48 814.44 481.68 812.03 480.23 809.81 C 481.13 807.91 482.00 805.91 483.14 804.14 C 484.68 804.27 484.94 806.11 485.66 807.22 C 487.03 810.39 488.79 812.89 491.14 815.39 C 493.39 808.75 494.42 802.87 494.40 795.83 Z" fill="#e6ddd3" />
<path d="M 455.05 804.14 C 458.96 803.41 463.13 803.59 467.08 803.86 C 468.92 804.06 471.76 804.76 471.85 807.04 C 470.89 809.97 468.93 812.64 466.94 814.97 C 466.05 815.72 465.63 816.89 464.31 816.46 C 462.32 815.26 460.72 813.43 458.75 812.21 C 456.28 811.06 453.36 810.72 450.71 810.13 C 451.80 808.24 452.86 804.97 455.05 804.14 Z" fill="none" />
<path d="M 454.44 807.32 C 459.25 807.50 464.02 807.47 468.83 807.22 C 467.64 808.94 466.45 810.66 465.26 812.39 C 461.73 810.50 458.14 808.84 454.44 807.32 Z" fill="none" />
<path d="M 503.87 808.43 C 503.96 809.29 504.03 810.15 504.10 811.00 C 502.84 811.10 501.58 811.20 500.33 811.30 C 500.77 809.64 501.22 807.98 501.68 806.33 C 502.42 807.01 503.15 807.72 503.87 808.43 Z" fill="#ffffff" />
<path d="M 404.58 820.44 C 407.25 819.74 410.29 822.52 412.93 823.09 C 417.67 824.27 422.44 824.73 427.00 826.67 C 425.43 829.67 423.73 832.60 422.02 835.53 C 426.40 835.71 431.01 834.93 435.32 835.68 C 437.98 836.68 439.44 840.72 440.84 843.00 C 438.58 844.82 436.27 847.20 433.57 848.32 C 431.76 848.24 429.94 847.60 428.18 847.19 C 426.79 852.18 423.53 855.70 421.28 860.30 C 419.66 863.22 418.06 866.46 414.56 867.40 C 411.07 868.21 407.09 866.39 403.88 865.14 C 397.34 862.33 390.55 859.43 384.69 855.36 C 385.59 854.04 386.48 852.70 387.36 851.37 C 386.95 846.43 387.68 841.65 390.40 837.44 C 392.58 835.65 395.72 834.70 397.66 832.64 C 400.49 829.05 401.64 824.00 404.58 820.44 Z" fill="none" />
<!-- Terre-de-Bas --><path d="M 405.92 824.59 C 411.46 825.61 416.96 826.86 422.47 828.02 C 420.04 831.50 420.23 834.69 420.43 838.73 C 424.95 838.76 429.40 838.09 433.90 837.85 C 435.41 839.14 436.38 841.22 437.36 842.93 C 435.66 843.56 433.90 844.37 432.10 844.68 C 430.28 844.22 428.54 843.26 426.83 842.48 C 424.74 848.51 421.68 853.96 418.53 859.48 C 416.95 861.84 416.57 864.61 413.07 864.26 C 404.93 864.08 396.69 858.28 389.25 855.15 C 390.01 850.40 390.38 845.33 391.97 840.78 C 393.53 838.83 396.07 837.59 397.98 835.97 C 401.83 832.98 403.43 828.62 405.92 824.59 Z" fill="#e6ddd3" />
<path d="M 475.37 857.59 C 478.41 859.66 481.78 862.21 483.59 865.47 C 485.19 868.09 484.60 871.95 484.64 874.92 C 478.42 873.63 472.78 871.30 466.30 871.46 C 464.94 870.25 463.59 869.03 462.24 867.81 C 465.27 864.05 468.08 860.15 470.89 856.23 C 472.51 856.39 474.02 856.59 475.37 857.59 Z" fill="none" />
<path d="M 473.77 859.08 C 474.45 861.35 475.11 863.64 475.77 865.92 C 477.29 865.71 478.80 865.50 480.32 865.29 C 481.16 867.22 481.99 869.15 482.80 871.09 C 478.71 870.74 475.35 868.97 471.61 867.54 C 469.55 867.43 467.34 868.34 465.34 868.78 C 467.29 866.29 469.23 863.81 471.41 861.51 C 472.19 860.70 472.98 859.88 473.77 859.08 Z" fill="none" />
<path d="M 438.54 862.66 C 442.54 863.51 446.57 865.02 450.25 866.79 C 451.55 867.58 453.58 868.47 453.69 870.19 C 454.11 872.29 452.50 873.33 451.43 874.90 C 445.91 871.51 440.33 868.24 434.85 864.79 C 435.90 864.14 437.20 862.24 438.54 862.66 Z" fill="none" />
</svg>