<?xml version="1.0" encoding="UTF-8" standalone="no"?>
<!DOCTYPE svg PUBLIC "-//W3C//DTD SVG 1.1//EN" "http://www.w3.org/Graphics/SVG/1.1/DTD/svg11.dtd">
<svg xmlns="http://www.w3.org/2000/svg" version="1.1" viewBox="0 0 1129 928" width="752.0pt" height="618.0pt">
<path d="M 0.00 0.00 L 1129.00 0.00 L 1129.00 928.00 L 0.00 928.00 L 0.00 0.00 Z" fill="#ffffff" />
<path d="M 454.07 53.41 C 458.15 54.25 461.61 58.72 464.56 61.46 C 468.11 65.07 472.40 66.68 476.45 69.54 C 479.03 71.27 481.23 73.02 484.42 73.43 C 490.97 74.21 497.52 74.01 503.99 75.49 C 513.92 77.47 520.63 70.11 530.80 70.18 C 541.09 70.19 550.23 75.90 559.65 79.31 C 566.30 81.91 573.23 81.59 579.99 83.85 C 587.17 85.87 594.60 90.19 602.01 90.80 C 606.70 89.83 610.85 84.45 615.96 84.19 C 619.51 83.97 622.75 85.61 626.07 86.57 C 630.11 87.88 634.90 87.00 638.90 88.12 C 642.79 89.82 645.66 93.35 650.20 94.32 C 656.46 95.66 661.93 90.15 668.10 92.28 C 677.46 94.53 681.97 101.54 690.26 105.48 C 696.12 108.30 701.85 111.38 707.60 114.41 C 711.91 117.05 717.31 115.29 722.06 115.37 C 725.40 115.98 728.56 117.14 731.99 117.35 C 735.54 117.54 738.45 119.10 741.71 120.30 C 745.03 121.55 748.17 121.87 751.18 123.79 C 759.58 129.25 768.29 133.57 776.34 139.66 C 780.14 142.41 782.02 147.41 784.80 151.23 C 790.54 159.74 798.96 164.77 805.17 172.85 C 810.23 178.95 813.51 185.84 817.30 192.72 C 820.20 198.12 824.19 202.10 826.55 207.73 C 829.13 213.77 830.33 220.50 831.33 226.97 C 832.13 232.51 830.21 237.54 830.68 243.03 C 831.20 249.85 832.52 256.13 832.31 263.00 C 832.12 270.82 833.05 278.68 834.62 286.34 C 835.06 289.13 837.23 290.16 839.13 291.94 C 839.08 296.70 839.51 301.02 841.60 305.37 C 846.66 305.53 851.67 307.46 856.00 309.99 C 864.17 315.67 867.65 324.45 870.97 333.39 C 872.86 335.79 877.37 336.29 879.93 338.10 C 881.90 339.03 881.96 341.18 882.23 343.08 C 880.19 346.63 877.10 348.40 877.33 352.98 C 877.08 360.35 881.11 365.15 885.39 370.59 C 891.18 377.60 895.91 386.48 902.79 392.20 C 906.82 395.41 910.84 398.86 914.31 402.68 C 918.35 407.79 920.01 415.11 923.34 420.65 C 927.16 426.90 935.82 428.85 939.68 435.35 C 943.85 442.14 946.14 450.65 950.84 457.16 C 953.15 460.36 956.39 462.09 959.92 463.62 C 961.84 462.20 963.79 460.87 965.82 459.60 C 969.65 461.39 973.63 462.79 977.47 464.55 C 981.21 466.26 983.16 469.24 986.27 471.71 C 987.92 473.06 989.82 474.16 991.34 475.65 C 992.61 477.48 993.30 479.72 994.50 481.61 C 998.37 484.45 1002.17 484.12 1006.68 484.40 C 1011.40 487.00 1016.28 489.45 1020.95 492.12 C 1023.36 495.93 1022.28 501.69 1024.12 505.87 C 1025.88 509.68 1028.01 513.32 1029.85 517.09 C 1031.14 517.56 1032.45 518.02 1033.74 518.49 C 1034.39 520.58 1035.25 522.80 1035.33 524.99 C 1034.62 527.47 1033.17 529.72 1032.49 532.19 C 1031.42 541.65 1033.89 550.26 1037.50 558.89 C 1033.84 561.92 1029.84 564.86 1025.02 565.57 C 1023.04 565.47 1021.07 564.71 1019.17 564.16 C 1018.85 567.12 1018.64 570.06 1018.55 573.04 C 1019.56 574.36 1020.55 575.70 1021.54 577.04 C 1020.21 580.68 1019.65 584.16 1019.47 588.02 C 1019.19 593.00 1016.57 597.72 1012.07 600.06 C 1007.54 602.38 1002.69 606.52 1002.38 611.97 C 1001.93 619.55 996.74 624.36 994.50 631.23 C 992.90 636.88 994.34 643.32 992.59 649.09 C 991.77 652.17 990.18 655.06 989.54 658.17 C 988.95 661.83 989.01 665.63 988.37 669.29 C 987.62 673.57 985.08 676.54 985.10 680.99 C 984.65 688.31 987.59 694.76 987.44 702.01 C 987.37 706.24 986.05 709.83 985.45 713.99 C 983.94 720.84 990.03 728.14 990.62 734.97 C 990.68 741.05 989.67 746.94 989.52 753.01 C 989.46 757.44 988.04 761.59 988.14 766.00 C 988.15 769.44 989.12 772.59 989.41 775.99 C 989.68 779.40 989.46 782.61 990.43 785.95 C 991.37 789.82 993.70 793.14 994.65 796.96 C 995.20 800.50 994.29 804.33 992.82 807.57 C 991.30 810.94 988.56 813.20 986.25 816.25 C 983.41 819.82 981.32 823.92 978.52 827.52 C 976.32 830.29 973.46 831.73 970.51 833.55 C 965.00 836.89 959.93 840.82 955.46 845.48 C 953.14 847.96 950.20 849.17 947.07 850.30 C 943.42 851.59 939.82 853.85 936.04 854.48 C 932.30 855.10 928.67 853.82 925.03 853.17 C 921.33 852.50 917.60 852.16 913.91 851.44 C 911.26 853.81 908.78 857.76 905.04 858.08 C 898.99 859.14 893.17 860.75 886.99 861.01 C 882.28 861.51 876.82 860.76 872.45 862.51 C 865.56 865.02 860.04 869.49 852.99 870.55 C 847.77 871.44 842.26 872.65 837.00 872.64 C 833.59 872.64 830.43 872.05 827.07 871.67 C 822.27 871.11 817.54 871.69 812.74 870.89 C 808.35 870.16 803.25 869.73 798.92 871.00 C 797.49 871.90 797.57 874.36 797.18 875.88 C 793.07 878.59 788.85 882.92 783.99 884.02 C 778.72 884.38 773.28 882.47 767.97 882.65 C 763.40 884.28 759.12 887.31 755.54 890.56 C 752.47 893.50 746.82 894.62 743.44 891.56 C 740.92 889.71 741.20 886.37 739.66 884.26 C 737.42 883.05 734.55 882.78 732.04 882.57 C 724.95 882.35 717.98 882.22 711.02 883.83 C 710.16 885.08 709.30 886.41 708.27 887.53 C 706.43 888.45 703.99 888.32 701.97 888.65 C 698.43 888.95 694.45 890.01 690.97 889.30 C 686.08 887.75 681.63 884.53 678.34 880.62 C 677.15 879.29 676.05 877.74 674.63 876.65 C 671.30 875.11 667.69 874.53 664.46 872.64 C 661.36 870.98 659.12 867.78 656.89 865.12 C 652.34 866.34 648.17 867.92 643.94 869.99 C 639.11 872.55 633.33 871.94 628.62 869.39 C 623.10 866.37 616.13 865.87 609.94 865.75 C 607.46 865.63 605.55 868.24 603.87 869.74 C 602.86 869.17 601.85 868.59 600.85 868.02 C 600.70 866.16 600.62 864.26 600.21 862.44 C 599.31 860.89 597.78 859.64 596.54 858.34 C 594.68 858.47 592.82 858.60 590.96 858.72 C 587.66 855.91 584.30 851.51 579.75 851.10 C 572.98 850.14 566.67 849.94 560.51 846.56 C 556.19 843.99 551.17 843.81 546.89 841.25 C 542.18 838.50 537.21 836.28 532.51 833.52 C 528.14 830.80 522.93 831.52 518.00 831.33 C 514.25 831.45 510.92 830.66 507.55 832.61 C 506.26 833.10 504.83 834.32 503.43 833.58 C 500.60 832.07 500.02 827.56 496.66 826.38 C 492.59 824.63 488.64 822.39 484.42 821.04 C 478.19 819.51 471.96 817.57 466.10 814.96 C 461.95 813.18 459.70 808.44 457.09 804.88 C 455.65 803.11 456.43 800.79 456.42 798.68 C 454.02 797.17 451.82 795.67 448.91 795.39 C 439.30 794.25 429.60 792.92 420.17 790.77 C 410.62 787.12 400.96 781.61 394.20 773.79 C 390.16 769.24 390.09 763.27 386.05 758.96 C 381.98 754.65 376.84 750.67 373.46 745.56 C 372.22 743.86 371.23 741.71 369.32 740.73 C 360.56 735.96 351.97 731.36 342.25 728.80 C 335.47 727.09 328.77 725.12 322.02 723.27 C 314.67 721.22 307.48 721.49 299.99 720.27 C 296.30 719.70 292.73 718.64 289.02 718.18 C 286.52 717.71 283.88 717.85 281.87 716.16 C 278.51 713.59 275.37 710.50 273.05 706.94 C 272.41 705.79 271.23 704.36 271.53 703.00 C 272.64 701.00 274.88 699.21 275.50 697.03 C 274.63 694.38 272.41 691.82 272.45 689.05 C 272.37 685.68 272.26 682.70 269.99 679.99 C 266.30 675.88 261.09 673.12 256.31 670.61 C 254.41 670.01 255.54 666.54 255.28 664.98 C 251.38 661.61 245.70 660.27 242.92 656.06 C 241.02 653.59 239.09 650.23 236.30 648.72 C 232.74 646.92 228.94 646.92 225.57 644.45 C 221.97 641.78 218.24 639.10 215.02 635.97 C 210.68 631.25 213.27 625.02 209.14 619.87 C 204.97 614.20 203.84 607.85 202.32 601.17 C 201.72 596.56 194.49 594.64 194.64 590.00 C 196.40 584.54 200.05 580.07 201.04 574.22 C 201.78 570.02 202.76 565.90 203.78 561.76 C 205.18 556.49 203.96 551.55 203.83 546.03 C 203.82 542.26 202.86 538.71 202.39 535.01 C 201.87 531.08 204.88 526.20 203.43 522.49 C 201.63 519.17 199.28 515.99 196.88 513.07 C 193.40 509.32 187.15 507.78 182.51 505.89 C 182.18 502.77 181.80 500.41 179.68 497.98 C 179.51 494.62 179.97 491.35 180.38 488.03 C 180.88 483.80 180.16 479.83 179.39 475.69 C 178.30 475.09 177.22 474.49 176.14 473.89 C 175.50 472.60 174.94 471.18 174.05 470.04 C 171.84 468.46 168.85 467.89 167.53 465.48 C 165.41 462.12 164.11 458.58 161.37 455.59 C 158.37 452.31 155.04 449.38 152.19 445.96 C 152.88 444.31 153.59 442.68 154.27 441.03 C 152.24 439.29 150.12 437.64 148.08 435.89 C 144.97 433.23 143.31 429.56 139.96 427.09 C 131.82 420.90 123.96 415.54 117.86 407.08 C 115.45 403.75 114.44 400.26 111.70 397.31 C 108.82 394.14 105.90 391.34 104.83 387.01 C 103.63 377.72 105.30 369.59 106.22 360.50 C 106.81 355.83 105.99 351.53 107.64 347.01 C 103.34 339.33 97.46 331.21 98.36 321.96 C 98.17 317.99 103.74 317.88 105.17 314.68 C 106.37 312.29 108.33 310.91 110.27 309.20 C 111.63 308.12 111.87 305.85 112.47 304.29 C 113.81 303.35 115.12 302.49 116.22 301.27 C 119.16 297.83 122.56 295.50 123.96 290.97 C 126.25 289.97 128.61 288.87 131.02 288.20 C 135.65 290.90 140.78 291.51 146.03 291.87 C 148.50 291.80 151.00 290.26 153.18 289.19 C 159.41 285.74 165.72 282.40 171.84 278.76 C 176.58 275.95 180.39 272.10 183.85 267.87 C 186.50 264.54 189.59 262.04 191.00 258.06 C 194.22 250.17 194.76 242.19 196.42 233.94 C 197.58 227.97 197.93 221.98 196.76 215.98 C 195.42 209.24 192.69 203.18 189.99 196.97 C 189.60 195.84 188.84 194.39 189.21 193.20 C 190.78 187.04 194.84 182.57 195.62 176.02 C 196.44 171.76 196.10 166.81 197.82 162.84 C 199.85 160.61 202.84 162.21 205.36 162.55 C 205.42 161.89 205.47 161.23 205.52 160.58 C 203.78 160.15 202.04 159.72 200.30 159.31 C 200.32 156.84 200.50 154.39 200.65 151.93 C 200.93 148.97 199.50 146.29 198.48 143.60 C 201.44 141.57 204.62 140.40 208.05 139.44 C 209.94 140.50 211.88 141.96 214.00 142.48 C 216.70 142.95 219.64 142.67 222.37 142.51 C 224.08 144.34 225.68 146.63 228.21 147.33 C 231.89 148.35 236.22 148.67 239.99 148.08 C 243.44 146.81 246.15 144.80 249.97 144.56 C 252.17 144.49 254.68 144.00 256.12 146.08 C 257.24 148.18 256.73 149.59 256.01 151.66 C 257.31 151.78 258.61 151.89 259.91 152.00 C 258.89 149.86 258.23 148.05 258.11 145.64 C 262.61 143.79 266.90 144.86 271.53 144.23 C 275.23 143.60 278.72 140.72 282.07 139.05 C 285.26 137.39 288.84 136.81 291.55 134.58 C 293.99 132.59 296.14 130.44 297.44 127.52 C 298.61 125.18 299.51 122.27 301.49 120.52 C 305.69 116.66 310.50 114.97 315.32 112.26 C 320.86 108.98 323.17 103.72 327.01 98.99 C 329.96 95.35 334.26 95.26 337.91 92.88 C 341.49 90.14 343.57 86.60 347.98 84.84 C 353.13 82.72 357.93 81.05 361.90 76.90 C 364.25 74.60 365.93 71.12 369.04 69.97 C 376.69 66.69 385.44 65.24 393.47 63.11 C 399.67 61.40 405.71 58.47 412.03 57.28 C 419.97 56.94 427.97 60.89 435.90 60.71 C 442.70 60.09 447.42 51.76 454.07 53.41 Z" fill="none" />
<!-- Saint-Denis --><path d="M 450.98 56.56 C 455.18 56.78 459.17 61.21 462.03 63.97 C 466.13 68.10 471.09 69.95 475.68 73.32 C 477.75 74.72 479.33 76.32 481.93 76.65 C 487.91 77.58 493.96 78.13 499.97 78.75 C 503.37 79.11 506.63 79.80 510.04 79.27 C 516.67 78.14 523.22 74.56 529.93 74.11 C 530.73 81.55 533.44 88.58 533.35 96.00 C 533.31 104.30 534.68 112.81 537.09 120.76 C 538.68 126.19 542.31 130.32 544.56 135.36 C 545.52 137.36 544.04 139.37 542.99 141.00 C 539.22 146.31 532.71 149.86 529.15 155.21 C 527.27 157.83 529.10 161.65 527.65 164.68 C 525.80 169.11 523.72 173.46 521.74 177.84 C 520.14 181.40 517.49 185.11 516.89 188.99 C 516.85 191.53 517.94 194.15 518.61 196.58 C 516.41 198.81 513.06 201.08 512.01 204.09 C 510.97 210.51 511.84 217.56 512.66 223.99 C 513.36 228.52 510.84 231.71 510.36 235.97 C 510.96 238.10 512.90 240.01 514.10 241.87 C 509.01 246.06 503.00 247.47 497.20 250.21 C 493.02 252.33 493.79 259.48 492.10 263.26 C 490.27 266.56 487.91 269.64 485.64 272.66 C 483.11 276.07 478.48 276.64 475.12 279.14 C 472.98 280.82 471.13 282.89 469.17 284.78 C 463.65 276.64 460.87 267.77 453.45 260.56 C 449.95 257.56 445.46 256.25 441.97 253.04 C 439.14 250.61 436.86 247.27 433.75 245.24 C 428.80 243.62 422.15 244.11 417.21 241.70 C 413.56 239.70 410.80 235.85 407.03 233.92 C 405.25 233.03 402.96 232.95 401.01 232.86 C 395.03 232.71 389.09 233.38 383.10 232.97 C 383.48 228.28 383.70 223.66 383.57 218.96 C 383.39 214.53 385.86 211.37 386.24 207.02 C 386.53 204.00 386.49 201.02 387.15 198.04 C 387.53 195.52 388.47 193.25 387.32 190.81 C 385.31 186.54 382.99 181.59 379.21 178.63 C 375.64 175.72 373.65 171.86 370.40 168.61 C 368.57 166.57 366.10 164.47 365.03 161.92 C 364.75 159.36 365.17 156.69 364.73 154.16 C 364.02 151.40 362.61 148.86 361.86 146.10 C 360.90 142.65 361.42 138.76 360.65 135.31 C 358.32 132.61 355.29 130.83 353.28 127.75 C 350.86 124.08 348.88 120.11 346.87 116.20 C 343.56 109.81 343.33 102.96 340.69 96.20 C 342.26 94.21 343.62 92.23 345.65 90.66 C 350.05 87.17 356.21 86.13 360.88 82.86 C 364.21 80.48 366.35 76.95 369.30 74.41 C 371.51 72.43 374.98 71.69 377.78 70.91 C 384.16 69.40 390.61 68.12 396.93 66.06 C 401.51 64.55 406.24 62.12 411.01 61.41 C 419.89 60.31 428.60 65.73 438.03 64.26 C 442.65 63.05 446.88 58.84 450.98 56.56 Z" fill="#e6ddd3" />
<path d="M 529.93 74.11 C 532.68 74.02 535.39 74.12 538.05 74.90 C 536.39 74.79 534.72 74.75 533.06 74.71 C 533.98 79.40 535.59 83.90 536.57 88.56 C 537.58 93.69 535.60 98.22 536.77 103.26 C 537.76 107.21 538.28 111.23 538.95 115.24 C 540.23 121.76 543.73 126.47 547.00 132.01 C 548.94 135.17 548.66 138.64 546.76 141.73 C 543.17 148.10 535.83 151.13 532.18 156.98 C 531.68 160.05 532.40 163.01 531.10 166.04 C 528.40 172.86 524.74 179.40 522.32 186.37 C 520.79 190.45 521.37 195.42 521.00 199.79 C 519.18 201.27 517.17 202.69 515.65 204.48 C 514.94 208.56 515.25 212.90 515.36 217.03 C 515.45 220.37 516.63 223.59 516.66 226.90 C 516.33 229.66 514.93 232.31 514.47 235.05 C 515.51 238.14 518.24 240.39 516.95 243.87 C 512.46 248.74 504.41 250.96 498.42 253.40 C 497.37 257.13 497.12 261.12 495.75 264.73 C 493.99 268.53 490.70 271.70 488.25 275.10 C 495.58 273.35 502.51 270.04 509.66 267.64 C 517.27 265.01 523.93 261.79 531.98 260.94 C 536.18 260.54 541.25 259.60 545.08 261.90 C 549.32 264.33 551.12 269.81 554.22 273.69 C 559.88 272.60 565.28 270.66 570.97 269.74 C 575.49 268.90 580.10 268.47 584.57 267.42 C 585.55 267.10 587.18 266.84 587.60 265.78 C 589.54 262.24 590.78 258.39 592.89 254.92 C 595.44 250.55 598.83 247.40 600.69 242.80 C 602.34 238.65 603.34 234.31 605.21 230.24 C 607.47 225.26 610.11 220.46 612.46 215.52 C 614.94 210.26 618.17 205.70 620.21 200.26 C 621.46 196.94 622.92 193.72 624.38 190.49 C 625.82 187.28 626.76 183.58 628.64 180.65 C 632.24 175.21 638.00 170.97 641.27 165.34 C 642.95 162.51 640.97 158.83 639.78 156.15 C 636.86 150.43 634.70 144.50 634.55 138.00 C 634.37 131.46 633.79 124.51 635.04 118.05 C 636.00 112.96 639.38 108.73 640.52 103.80 C 640.71 99.84 639.25 95.68 638.30 91.86 C 639.74 92.73 641.11 93.68 642.51 94.60 C 643.15 97.86 644.46 101.61 643.90 104.92 C 642.51 110.13 638.28 115.46 637.44 121.13 C 636.92 125.38 637.09 129.73 637.07 134.00 C 636.83 141.17 640.19 148.65 642.94 155.17 C 644.22 158.24 646.63 162.56 644.88 165.79 C 641.82 171.96 635.19 176.66 631.58 182.53 C 629.89 185.27 628.76 188.48 627.58 191.47 C 622.19 205.96 613.45 219.11 607.41 233.42 C 605.29 238.62 604.63 243.64 601.38 248.38 C 597.48 254.12 592.10 260.74 590.90 267.73 C 595.86 269.43 600.96 270.29 606.20 270.45 C 609.98 270.86 613.45 267.33 616.51 265.47 C 622.49 261.05 629.99 258.42 635.20 253.21 C 638.02 250.11 641.75 247.76 644.24 244.43 C 648.86 236.16 655.29 228.63 661.60 221.59 C 665.17 217.62 667.77 213.10 672.52 210.46 C 678.29 207.30 684.69 205.00 690.82 202.64 C 694.13 201.64 694.61 198.27 696.97 195.96 C 699.08 194.06 701.80 192.74 704.16 191.17 C 708.10 188.76 710.95 185.11 714.95 182.77 C 717.04 184.16 719.12 185.57 721.15 187.03 C 724.62 185.63 728.08 184.09 731.30 182.19 C 733.59 181.08 734.46 177.81 735.78 175.73 C 738.08 171.40 741.74 169.34 745.17 166.13 C 746.98 164.70 746.88 162.22 746.69 160.14 C 744.95 157.32 742.62 154.89 740.81 152.10 C 738.98 149.11 735.92 148.80 733.32 146.75 C 732.28 145.65 731.45 144.34 730.59 143.10 C 727.98 142.69 725.36 142.39 722.72 142.13 C 722.27 136.41 722.49 130.74 722.43 125.00 C 722.38 123.01 722.73 121.43 723.51 119.62 C 726.10 119.60 728.53 120.26 731.03 120.86 C 729.76 120.96 728.49 121.08 727.24 121.25 C 725.52 127.22 725.17 133.60 725.03 139.78 C 726.99 139.61 728.95 139.44 730.91 139.26 C 734.31 142.69 737.89 145.43 741.80 148.23 C 744.56 151.83 747.62 155.30 750.24 158.99 C 750.52 161.68 749.83 165.18 748.48 167.54 C 745.49 170.63 740.13 172.16 738.67 176.51 C 737.52 178.85 737.39 182.75 734.82 183.87 C 730.67 186.10 726.31 188.62 721.69 189.69 C 718.97 190.62 717.10 187.28 715.16 185.82 C 713.65 187.42 712.17 189.07 710.59 190.61 C 707.45 193.81 702.31 195.10 699.23 198.29 C 697.05 200.60 696.08 203.83 693.06 205.05 C 687.28 207.72 681.14 209.64 675.42 212.45 C 670.76 214.73 667.96 218.84 664.73 222.71 C 660.30 228.19 655.11 233.28 651.13 239.09 C 649.27 241.74 648.23 244.86 646.42 247.52 C 644.77 249.16 642.76 250.45 640.92 251.87 C 643.62 254.98 646.22 258.18 650.19 259.71 C 654.43 261.29 658.85 262.38 663.15 263.79 C 668.50 265.44 673.54 266.76 679.11 265.13 C 684.52 263.47 690.29 261.94 695.25 259.18 C 698.26 256.70 698.74 250.44 702.49 248.38 C 706.05 246.09 711.77 248.52 715.66 247.62 C 717.75 246.11 719.38 244.02 721.48 242.51 C 724.23 240.51 727.51 239.35 729.70 236.74 C 732.24 233.89 733.70 230.87 737.54 229.51 C 744.83 226.76 753.23 224.87 761.02 225.99 C 770.66 227.33 778.79 236.11 788.02 237.75 C 793.91 238.68 800.45 233.78 805.78 231.60 C 812.93 227.87 819.64 229.55 827.43 229.13 C 827.47 230.19 827.48 231.25 827.49 232.31 C 823.02 232.99 818.63 232.23 814.17 232.54 C 806.05 233.35 799.13 239.96 791.02 241.19 C 788.85 241.54 786.84 241.03 784.82 240.31 C 777.14 237.46 770.42 232.14 762.80 229.28 C 754.52 226.64 746.78 229.52 738.96 232.13 C 735.74 233.03 734.46 236.04 732.37 238.40 C 729.51 242.07 725.66 243.30 722.21 246.24 C 720.20 247.87 718.33 250.08 716.02 251.25 C 712.41 251.41 708.03 249.54 704.59 250.64 C 701.01 252.81 700.87 259.03 697.65 261.68 C 695.74 262.94 693.36 263.59 691.21 264.34 C 685.55 266.16 680.03 268.45 674.00 268.49 C 668.26 268.53 663.13 266.37 657.39 266.05 C 655.82 269.38 654.93 272.62 651.75 274.81 C 647.98 277.81 643.66 279.01 639.20 280.54 C 637.56 280.99 636.88 282.65 635.93 283.91 C 633.71 287.36 631.40 290.70 627.67 292.66 C 625.53 293.85 622.89 294.46 620.97 295.96 C 618.03 299.33 617.00 304.68 615.92 308.91 C 614.73 314.22 611.84 318.69 611.17 324.15 C 613.20 324.91 615.73 325.08 616.97 327.04 C 619.21 330.20 621.24 334.00 621.12 337.98 C 621.13 341.66 620.83 345.32 621.03 349.00 C 621.22 354.16 621.95 359.88 620.97 364.96 C 620.01 369.83 616.38 374.41 613.96 378.75 C 617.94 381.12 622.12 383.80 626.47 385.40 C 629.67 386.62 632.69 387.35 635.34 389.66 C 639.34 393.07 642.79 396.41 647.96 398.04 C 651.16 399.09 654.18 398.54 657.35 397.76 C 657.77 396.07 658.08 394.26 658.80 392.67 C 660.59 390.21 663.02 388.32 664.64 385.69 C 667.47 381.17 670.07 376.67 673.76 372.76 C 676.97 369.26 680.66 367.23 683.44 363.50 C 685.31 360.99 686.92 358.36 689.03 356.03 C 691.08 353.62 693.82 351.17 695.12 348.26 C 696.61 344.47 696.83 340.72 699.20 337.25 C 701.65 333.70 703.99 329.81 707.10 326.81 C 712.19 325.62 718.62 328.55 723.71 326.61 C 727.35 325.20 729.80 321.10 733.31 319.27 C 737.66 317.05 742.20 316.72 747.00 316.77 C 752.69 316.86 758.28 316.10 763.97 316.70 C 769.46 317.28 774.49 315.42 779.54 313.49 C 781.72 312.51 784.77 311.16 785.84 308.89 C 785.00 303.14 781.84 298.07 781.05 292.23 C 783.74 291.05 786.87 290.28 789.30 288.63 C 789.68 286.88 789.85 285.08 790.08 283.30 C 792.30 281.41 793.93 278.96 796.08 277.04 C 800.85 274.55 806.82 275.42 811.86 274.57 C 814.10 273.89 816.03 272.21 818.27 271.53 C 820.95 270.77 824.02 270.60 826.54 269.46 C 828.26 268.82 827.92 267.55 828.23 266.03 C 828.45 263.96 828.45 261.90 828.35 259.82 C 828.47 263.55 828.57 267.07 830.18 270.51 C 829.79 271.14 829.39 271.78 829.02 272.42 C 822.94 272.94 817.92 275.76 812.18 277.38 C 808.00 278.55 803.26 277.79 799.24 279.29 C 795.82 281.91 793.97 285.57 792.19 289.36 C 791.15 292.50 787.17 292.51 784.47 293.54 C 785.68 297.93 787.44 302.18 788.42 306.62 C 789.38 310.40 786.22 313.59 783.14 315.17 C 778.93 317.20 774.29 318.74 769.76 319.85 C 765.54 320.87 762.13 319.14 757.99 318.93 C 755.28 319.16 752.71 320.34 750.02 320.54 C 747.04 320.24 744.44 318.66 741.48 319.61 C 737.97 320.59 734.31 322.04 731.63 324.59 C 729.19 326.79 727.19 329.02 723.95 330.07 C 719.18 331.91 714.21 330.00 709.39 329.30 C 706.03 332.67 703.08 336.58 700.88 340.81 C 699.23 344.09 698.72 347.83 697.12 351.10 C 695.75 353.51 693.45 355.51 691.63 357.60 C 687.51 361.97 685.80 367.23 680.69 370.75 C 673.24 376.10 669.94 383.32 664.55 390.51 C 662.23 393.52 661.44 396.98 660.57 400.59 C 654.71 402.10 649.05 402.48 643.62 399.38 C 637.29 396.70 633.66 390.67 627.15 388.85 C 623.99 387.87 621.21 386.40 618.45 384.60 C 616.48 383.50 614.30 381.93 611.97 382.88 C 607.11 384.66 602.78 387.41 597.67 388.63 C 594.19 389.72 590.30 389.71 586.92 390.98 C 584.26 392.94 582.35 395.71 579.45 397.49 C 577.17 398.98 574.68 399.57 572.08 400.22 C 569.68 398.40 567.28 396.57 564.90 394.71 C 562.17 401.04 561.59 407.26 557.78 412.75 C 555.96 415.48 552.07 416.20 549.15 417.22 C 544.31 418.59 540.49 421.49 536.84 424.84 C 533.74 427.76 531.69 431.64 529.17 435.15 C 527.44 437.55 525.80 440.00 524.31 442.56 C 528.48 446.92 532.58 450.61 534.58 456.51 C 536.72 463.10 539.55 470.07 540.03 476.98 C 540.27 479.62 540.59 482.24 541.05 484.84 C 547.26 484.22 553.38 483.13 559.35 481.28 C 564.19 479.80 568.94 478.83 573.99 479.79 C 577.31 480.27 580.66 481.92 584.01 481.89 C 588.80 481.25 593.33 478.00 598.03 476.97 C 602.14 477.90 605.65 481.70 609.51 483.15 C 611.98 483.36 614.54 482.82 617.00 482.71 C 620.12 482.43 623.67 482.56 626.63 481.54 C 630.47 480.06 633.97 477.83 636.46 474.51 C 639.82 469.90 644.37 468.23 648.93 464.87 C 654.04 461.07 661.41 460.77 666.75 464.22 C 669.43 466.21 671.65 468.83 674.08 471.11 C 677.15 469.21 679.64 466.73 682.26 464.27 C 685.15 460.74 690.49 464.03 694.47 463.40 C 698.56 460.37 700.96 456.08 705.85 453.81 C 711.58 450.77 718.46 450.88 724.15 448.11 C 728.39 443.47 729.64 434.69 734.81 430.85 C 740.26 428.05 747.24 425.31 753.44 426.44 C 759.26 427.62 764.42 432.46 768.25 436.78 C 778.76 448.94 789.08 461.27 799.40 473.59 C 813.23 490.40 827.50 506.85 841.30 523.69 C 845.47 528.57 849.47 533.76 854.11 538.18 C 857.51 536.98 860.69 535.28 864.07 534.04 C 867.76 532.72 871.81 532.63 875.47 531.32 C 877.60 529.94 879.30 527.77 880.72 525.69 C 883.05 522.42 881.88 516.97 883.28 513.52 C 887.18 511.58 890.53 509.83 892.29 505.58 C 892.58 503.97 892.54 502.29 892.87 500.69 C 894.11 498.44 896.08 496.55 897.71 494.57 C 896.12 494.41 894.53 494.22 892.94 494.07 C 890.94 490.88 889.68 487.81 888.78 484.15 C 890.87 480.99 890.25 478.12 890.67 474.62 C 892.76 469.57 897.47 465.06 900.69 460.70 C 902.80 457.83 903.83 454.61 905.60 451.59 C 907.12 449.01 910.01 447.10 912.33 445.27 C 916.14 442.43 919.26 438.94 922.89 435.88 C 924.78 434.33 926.18 432.44 927.48 430.39 C 928.55 430.97 929.66 431.48 930.76 432.00 C 925.84 437.39 920.36 442.18 914.63 446.68 C 912.37 448.53 909.71 450.57 908.30 453.17 C 906.56 456.31 905.63 459.49 903.31 462.32 C 900.01 466.26 895.74 470.65 893.79 475.50 C 893.68 477.25 894.86 479.33 895.35 481.02 C 894.35 483.03 890.70 485.98 892.82 488.19 C 894.83 490.02 897.77 490.97 900.20 492.12 C 900.26 493.42 900.27 494.71 900.23 496.01 C 899.16 497.89 897.62 499.53 896.23 501.18 C 896.48 502.79 896.72 504.40 896.97 506.01 C 893.68 510.27 890.88 514.13 885.31 515.44 C 885.06 518.60 885.32 522.14 884.29 525.16 C 882.95 527.96 880.81 530.42 878.63 532.60 C 877.00 534.41 874.21 534.40 871.93 534.91 C 864.13 536.06 858.28 540.17 851.14 543.23 C 845.04 545.98 839.18 547.37 834.42 552.41 C 829.58 557.19 826.43 563.37 819.00 564.34 C 813.53 565.50 809.11 563.51 803.94 562.23 C 800.67 561.39 797.92 563.58 795.97 565.94 C 792.94 570.01 791.98 574.50 787.72 577.73 C 782.81 581.50 778.13 585.36 773.98 589.98 C 770.39 593.97 765.32 598.28 763.55 603.44 C 762.34 609.64 764.24 616.81 762.35 623.19 C 760.02 630.71 754.13 635.75 751.98 643.49 C 769.92 646.00 787.95 647.61 805.97 649.54 C 845.99 653.31 885.95 657.80 925.97 661.62 C 945.24 663.63 964.52 665.80 983.82 667.49 C 984.15 666.66 984.46 665.83 984.75 664.99 C 984.72 668.15 984.07 671.04 983.02 674.01 L 983.24 672.02 C 983.82 670.15 981.13 670.40 980.03 670.07 C 933.70 665.32 887.33 660.75 840.98 656.02 C 829.66 654.76 818.30 653.91 807.00 652.45 C 803.80 652.04 800.62 651.78 797.41 652.18 C 796.45 661.10 799.02 668.67 799.97 678.01 C 800.60 685.22 803.36 691.81 807.09 697.95 C 809.80 702.44 815.68 704.31 819.68 707.94 C 818.41 711.24 816.69 714.48 815.83 717.90 C 814.71 722.78 815.10 728.32 814.52 733.18 C 813.98 737.53 810.74 741.05 809.53 745.42 C 808.21 750.42 808.51 755.78 810.49 760.56 C 812.70 766.00 815.93 770.82 817.62 776.52 C 819.59 783.22 822.25 789.66 825.00 796.08 C 826.12 798.77 827.79 801.37 828.54 804.19 C 827.92 806.89 826.52 809.07 826.42 811.95 C 826.29 817.71 826.02 823.96 827.53 829.55 C 828.64 833.77 829.60 838.19 832.23 841.76 C 834.31 844.82 836.67 847.15 837.21 850.99 C 837.79 854.94 838.09 859.24 837.32 863.16 C 836.17 865.24 833.82 866.77 832.01 868.27 C 829.97 868.00 827.92 867.66 825.87 867.46 C 829.65 867.91 832.08 864.69 833.47 861.63 C 834.58 857.44 834.88 852.58 833.38 848.44 C 831.68 844.75 828.30 842.07 826.70 838.20 C 823.45 830.66 823.89 821.08 823.21 812.93 C 822.76 809.36 824.29 806.47 824.78 803.06 C 823.93 799.70 821.88 796.63 820.54 793.44 C 816.94 785.63 815.15 777.37 811.13 769.80 C 808.13 763.85 805.03 757.14 805.35 750.33 C 805.68 744.05 809.67 739.41 811.32 733.54 C 812.69 728.31 812.21 723.15 812.84 717.97 C 813.22 714.78 814.52 711.89 815.69 708.91 C 813.16 706.90 810.43 705.14 807.96 703.07 C 804.23 699.89 801.87 695.36 799.96 690.93 C 797.06 684.33 797.06 676.36 795.52 669.16 C 794.29 663.24 793.76 657.41 793.65 651.37 C 779.15 649.04 764.49 648.94 749.95 645.86 C 749.44 643.89 748.33 642.32 749.34 640.32 C 752.00 633.97 757.74 628.24 759.43 621.58 C 760.36 617.56 761.04 613.27 760.62 609.15 C 759.91 604.65 756.98 600.21 754.68 596.33 C 752.99 593.65 751.19 590.33 748.49 588.58 C 745.63 586.71 742.57 585.37 739.98 583.08 C 737.61 581.25 735.33 578.41 731.98 578.98 C 726.11 579.71 722.08 585.28 718.22 589.22 C 714.93 592.83 710.89 595.21 706.96 598.00 C 703.28 600.58 701.82 604.92 699.72 608.71 C 694.85 617.83 689.08 625.54 687.19 636.00 C 686.05 641.38 687.78 646.69 686.96 651.96 C 685.89 655.84 682.77 658.78 681.92 662.91 C 681.05 667.20 680.38 671.65 680.26 676.03 C 680.15 680.60 683.22 684.83 683.81 689.07 C 684.05 693.54 682.39 698.33 683.02 703.02 C 683.58 707.11 685.15 710.97 685.82 715.06 C 686.51 719.33 687.19 723.67 687.28 728.00 C 687.35 733.34 685.29 737.71 684.55 743.16 C 683.88 748.23 682.42 753.45 679.88 757.90 C 677.06 761.80 671.97 764.51 668.09 767.21 C 666.85 768.07 666.07 769.01 665.43 770.37 C 662.90 775.73 662.09 781.20 661.25 786.99 C 660.81 790.39 658.83 793.16 657.20 796.11 C 658.97 798.58 661.19 800.55 663.25 802.75 C 664.47 803.96 664.18 806.40 664.31 808.00 C 664.24 816.67 664.22 825.33 664.40 834.00 C 664.46 838.30 664.43 842.29 662.14 846.09 C 660.19 849.69 656.99 851.44 654.43 854.39 C 653.82 856.35 654.24 858.71 654.27 860.74 C 655.24 860.91 656.20 861.08 657.16 861.26 C 655.35 861.51 653.57 861.90 651.80 862.35 C 650.83 858.89 650.29 855.64 650.57 852.04 C 654.87 848.86 660.46 845.95 661.07 840.02 C 662.55 828.91 660.97 816.78 661.53 805.39 C 659.09 803.01 654.15 800.94 654.67 797.02 C 654.55 793.22 657.43 789.91 657.83 786.04 C 658.58 780.48 659.65 775.04 661.70 769.79 C 662.25 768.40 662.99 767.16 664.18 766.21 C 667.76 763.25 672.23 760.86 675.62 757.60 C 677.11 756.29 677.51 753.93 678.25 752.13 C 679.34 748.73 681.61 746.42 681.85 743.04 C 682.29 738.38 683.02 733.79 683.74 729.18 C 679.81 729.25 675.93 729.38 672.47 731.53 C 669.94 733.96 668.63 737.67 666.48 740.47 C 662.88 745.24 659.30 749.90 654.65 753.71 C 651.22 756.42 651.10 760.39 648.60 763.58 C 646.13 765.31 642.78 765.86 640.05 767.12 C 636.65 768.58 634.21 771.61 630.98 773.18 C 627.00 773.79 623.11 773.20 619.13 774.29 C 614.15 775.59 609.43 778.60 604.79 780.83 C 601.24 782.73 597.66 784.09 596.43 788.34 C 595.37 792.99 596.69 798.00 595.72 802.75 C 594.15 810.23 591.60 817.59 588.62 824.62 C 585.20 831.82 586.36 839.72 583.77 847.32 C 582.53 847.21 581.28 847.11 580.04 847.01 C 582.76 840.61 583.02 833.97 584.45 827.30 C 587.28 818.90 591.09 809.91 592.69 800.88 C 593.39 796.82 592.33 793.12 592.35 789.13 C 594.32 784.16 598.85 779.90 603.68 777.68 C 608.17 775.48 612.58 772.93 617.27 771.20 C 621.30 769.69 625.72 770.50 629.82 769.62 C 633.32 768.31 636.04 764.98 639.58 763.66 C 641.74 762.94 644.05 762.61 646.28 762.18 C 647.46 759.48 648.34 756.46 650.00 754.02 C 652.25 751.31 655.14 749.21 657.35 746.44 C 660.54 742.46 663.94 738.72 666.34 734.37 C 667.93 731.82 668.95 729.00 672.04 727.97 C 675.84 726.59 679.92 725.98 683.81 724.88 C 684.03 717.30 681.77 710.58 679.99 703.16 C 677.44 704.21 674.98 705.17 672.69 706.74 C 669.26 709.06 666.92 712.15 663.62 714.67 C 659.10 718.14 653.15 720.14 648.91 723.90 C 644.51 728.05 642.52 735.15 638.88 739.92 C 636.64 742.63 632.47 743.96 629.33 745.37 C 624.88 747.13 620.92 749.78 616.45 751.46 C 614.44 752.30 612.10 752.90 610.62 754.55 C 607.91 757.34 605.56 761.20 602.12 763.15 C 597.50 765.62 591.49 765.51 586.91 767.96 C 584.50 769.58 582.47 771.74 580.17 773.52 C 573.65 767.50 567.62 760.94 561.34 754.65 C 559.21 752.58 557.19 750.06 554.66 748.48 C 550.60 747.61 546.25 747.86 542.11 747.58 C 542.19 745.92 541.79 744.50 543.44 743.50 C 546.74 741.11 550.01 738.93 552.61 735.72 C 551.49 733.39 550.73 731.11 548.47 729.61 C 545.80 727.85 542.67 726.74 539.86 725.18 C 534.55 722.47 530.39 717.08 526.09 712.89 C 522.38 709.64 524.53 704.34 521.10 700.94 C 516.97 696.63 512.67 692.65 509.29 687.67 C 506.20 683.08 502.99 678.70 498.66 675.19 C 493.93 675.89 489.29 677.87 485.14 680.21 C 483.78 680.83 484.23 682.76 484.12 683.97 C 484.08 688.04 485.05 692.39 484.38 696.40 C 483.23 699.13 479.31 700.95 478.58 704.18 C 477.17 709.95 473.80 714.55 470.07 719.04 C 466.15 723.67 460.25 725.76 454.75 727.85 C 448.26 730.16 442.61 733.32 435.92 735.01 C 427.68 737.24 419.16 737.92 410.91 739.94 C 401.73 742.16 395.15 749.12 385.78 751.75 C 384.58 751.30 383.37 750.88 382.18 750.42 C 390.06 747.45 397.06 742.20 404.71 738.75 C 413.14 735.38 423.14 735.15 431.98 732.86 C 440.53 731.03 447.84 726.91 456.07 724.02 C 459.20 722.97 460.12 720.26 461.65 717.63 C 463.49 713.91 465.76 710.10 466.76 706.06 C 465.64 704.14 463.94 702.50 462.47 700.86 C 464.68 698.47 468.43 696.54 469.35 693.37 C 470.89 689.05 472.20 684.55 472.96 680.03 C 473.87 675.49 471.38 671.74 470.68 667.16 C 470.12 663.30 469.68 659.58 468.01 655.99 C 465.02 648.91 466.40 641.29 468.01 634.07 C 469.52 627.52 468.10 621.32 470.08 615.07 C 470.80 612.48 472.05 609.76 471.63 607.05 C 471.18 603.66 470.03 600.40 469.56 597.01 C 468.60 590.83 469.68 584.16 470.23 577.93 C 467.55 576.34 464.62 574.39 461.56 573.66 C 459.73 573.59 457.90 573.97 456.07 573.98 C 453.99 573.63 451.97 572.76 449.94 572.18 C 445.89 570.92 441.56 570.70 437.54 569.45 C 435.78 568.95 434.65 566.79 433.41 565.52 C 431.28 562.84 427.81 561.78 425.61 559.42 C 423.84 557.09 422.98 554.06 421.23 551.70 C 420.06 550.26 418.51 549.07 417.15 547.79 C 413.96 544.92 411.85 541.25 408.57 538.44 C 404.71 535.06 399.30 531.60 396.95 526.90 C 395.10 522.31 396.50 516.46 395.18 511.77 C 393.47 508.14 390.72 504.46 387.53 502.01 C 383.65 508.65 382.20 515.69 380.25 523.05 C 379.41 526.11 378.74 529.11 376.47 531.47 C 373.56 534.69 369.37 536.36 366.36 539.35 C 364.65 541.94 363.35 545.41 362.73 548.45 C 362.62 552.00 364.54 556.42 363.16 559.98 C 362.09 562.21 359.37 563.58 357.89 565.55 C 356.72 568.58 356.19 571.80 354.84 574.78 C 353.64 577.84 351.53 581.21 352.54 584.59 C 354.14 589.65 360.81 591.50 362.78 596.27 C 365.01 601.14 365.98 606.46 364.74 611.75 C 362.15 622.80 360.02 634.93 361.67 646.26 C 362.45 651.76 362.48 656.82 364.12 662.01 C 365.82 667.39 368.16 673.32 368.09 679.03 C 367.98 683.63 364.72 686.93 363.13 691.01 C 362.08 694.25 362.61 698.16 361.31 701.33 C 358.77 706.73 354.25 711.19 351.43 716.39 C 351.00 717.10 351.03 717.79 351.53 718.47 C 355.16 723.77 360.39 727.67 364.11 732.97 C 360.71 731.77 357.28 730.71 353.99 729.18 L 355.76 728.81 C 353.11 725.04 350.03 721.64 347.23 717.99 C 349.79 711.11 355.04 706.75 358.36 700.37 C 359.96 697.37 359.88 694.35 360.42 691.06 C 360.80 687.09 364.67 684.10 364.81 680.05 C 365.27 674.28 363.32 669.56 361.66 664.21 C 359.83 658.44 359.98 652.93 358.94 647.00 C 358.09 641.96 357.28 637.11 357.97 631.98 C 358.98 624.60 360.19 617.25 361.93 610.00 C 363.26 605.46 361.70 600.61 359.14 596.82 C 356.03 592.94 351.40 591.19 350.05 585.95 C 348.51 580.88 350.56 577.04 352.55 572.56 C 355.28 566.83 354.29 560.97 353.43 554.93 C 350.43 561.08 347.09 568.36 347.55 575.32 C 347.47 579.90 345.89 584.47 344.95 588.94 C 344.27 593.12 339.92 594.88 337.73 598.68 C 335.14 602.29 334.03 608.06 329.83 609.92 C 325.36 612.40 320.76 614.73 316.39 617.42 C 311.30 620.30 308.71 626.62 306.93 631.90 C 309.61 634.19 313.47 636.27 314.05 640.04 C 315.02 645.85 313.68 652.13 313.39 658.01 C 313.16 663.53 309.41 667.09 308.39 672.18 C 308.23 675.44 309.41 678.75 309.34 682.04 C 308.40 683.13 307.08 684.17 305.59 683.46 C 300.98 681.16 298.24 675.56 293.91 673.08 C 289.80 671.79 285.23 671.96 281.00 671.01 C 275.50 670.11 270.73 667.74 265.79 665.30 C 264.64 666.74 263.52 668.20 262.44 669.69 C 261.42 668.97 260.41 668.23 259.41 667.49 C 259.06 665.20 259.54 663.13 257.74 661.42 C 258.71 656.66 258.61 652.31 260.79 647.85 C 265.15 637.72 273.47 632.51 276.49 621.64 C 277.47 617.72 274.90 612.77 277.44 609.51 C 280.48 604.88 283.74 600.41 286.68 595.71 C 289.69 590.79 294.27 587.32 297.41 582.48 C 301.86 575.83 307.87 572.03 313.52 566.52 C 320.59 559.29 327.34 551.61 335.02 545.01 C 338.10 542.18 339.65 538.54 342.57 535.58 C 344.48 533.59 346.88 531.76 348.45 529.50 C 351.45 525.10 353.16 518.74 357.02 515.02 C 361.09 511.90 366.28 510.74 370.20 507.23 C 374.76 503.24 378.91 498.62 382.79 493.98 C 382.25 491.04 381.47 487.95 381.60 484.96 C 383.07 482.52 385.78 480.75 387.39 478.49 C 389.03 475.16 389.14 471.07 390.80 467.74 C 392.17 466.05 394.07 464.73 395.76 463.36 C 391.72 462.61 387.75 461.77 384.00 460.01 C 380.23 458.21 376.53 458.45 372.52 457.60 C 367.63 456.62 363.00 455.12 357.94 455.70 C 353.77 456.06 349.21 457.40 345.06 456.91 C 339.41 455.80 334.97 450.33 329.04 450.28 C 319.04 450.16 309.01 450.02 299.00 450.10 C 291.22 450.04 284.73 453.69 277.01 454.05 C 272.15 454.40 267.89 453.58 263.21 455.31 C 258.13 457.16 252.91 457.64 248.01 460.00 C 243.40 462.22 238.34 463.41 234.24 466.25 C 232.27 467.48 230.18 469.22 227.90 469.79 C 223.78 470.60 219.42 470.02 215.48 471.65 C 211.13 473.50 207.45 477.29 203.11 479.15 C 198.59 480.91 192.03 480.17 187.97 482.95 C 186.43 485.15 185.30 487.67 184.04 490.05 C 184.57 486.59 184.51 483.26 183.93 479.81 C 191.02 477.99 199.20 479.26 204.78 474.76 C 207.90 472.67 211.20 469.76 214.81 468.65 C 218.66 467.59 222.98 467.89 226.86 466.72 C 228.91 466.09 230.84 464.77 232.66 463.65 C 237.02 460.75 242.19 459.20 247.07 456.98 C 250.20 455.55 253.49 455.13 256.83 454.47 C 260.69 453.70 264.23 451.48 268.05 451.30 C 271.73 451.09 275.37 451.23 279.04 450.79 C 284.89 450.17 290.16 447.81 296.05 447.09 C 301.30 446.38 306.50 446.70 311.74 447.27 C 318.93 448.02 327.07 446.89 334.02 448.76 C 338.19 449.86 341.83 452.98 346.01 453.76 C 350.53 454.29 355.39 452.47 359.99 452.64 C 364.04 452.82 368.12 453.97 372.17 454.46 C 375.25 454.88 378.39 454.95 381.45 455.49 C 384.83 456.12 387.46 459.77 390.95 459.79 C 394.17 459.89 399.24 460.38 401.45 457.48 C 404.12 454.36 406.73 451.24 409.72 448.41 C 403.33 445.68 397.37 442.47 391.99 438.02 C 386.66 434.02 382.35 429.04 377.47 424.57 C 374.34 421.68 370.04 421.72 366.04 421.47 C 361.99 421.40 358.02 420.77 354.00 420.46 C 349.05 420.02 344.46 423.62 339.56 422.56 C 333.12 421.09 326.68 417.92 320.65 415.34 C 318.00 414.10 315.76 415.02 313.00 415.31 C 307.63 416.25 302.74 414.62 297.02 414.38 C 289.57 413.78 282.53 416.05 275.05 414.89 C 269.42 414.55 264.24 412.81 258.80 411.57 C 252.28 410.96 244.98 410.55 238.73 412.80 C 234.92 414.08 231.01 415.07 227.21 416.39 C 222.86 417.92 219.24 420.48 214.86 421.89 C 208.21 424.04 201.60 424.10 195.07 427.09 C 187.32 430.66 180.47 435.74 171.92 438.04 C 167.73 439.07 163.79 440.08 159.45 439.53 C 158.64 438.68 157.83 437.84 156.96 437.05 C 161.78 436.72 166.48 436.59 171.04 434.97 C 177.20 432.77 183.18 430.04 188.90 426.88 C 192.26 425.04 195.53 423.30 199.28 422.37 C 204.77 421.02 210.06 420.57 215.38 418.38 C 220.12 416.53 223.40 413.32 228.56 412.47 C 235.03 411.55 240.48 408.64 247.00 408.61 C 252.91 408.51 259.29 408.29 265.01 409.85 C 268.69 410.79 272.18 411.88 276.00 412.18 C 282.52 412.76 288.16 410.18 294.73 411.29 C 301.04 412.40 307.36 412.98 313.74 412.14 C 316.56 411.90 318.94 411.10 321.65 412.36 C 327.39 414.82 333.57 417.93 339.71 419.30 C 343.20 420.10 346.48 418.49 349.80 417.66 C 352.75 416.71 355.97 417.63 359.00 417.93 C 364.10 418.69 369.44 418.37 374.45 419.50 C 378.52 420.49 381.32 424.02 384.20 426.81 C 390.14 432.61 396.23 438.52 403.81 442.12 C 407.65 443.92 411.15 446.25 414.64 448.64 C 416.77 446.77 418.82 444.38 421.62 443.63 C 425.41 442.48 429.04 441.80 432.21 439.21 C 440.17 432.41 449.95 428.90 458.23 422.19 C 461.20 419.93 457.42 413.96 460.51 411.54 C 463.07 408.82 465.86 406.37 468.24 403.49 C 462.61 402.66 457.23 401.00 451.71 399.76 C 448.22 399.85 444.52 401.79 441.44 403.33 C 441.06 405.21 441.02 407.47 440.09 409.15 C 437.81 411.71 434.45 413.17 431.02 413.09 C 427.05 413.03 423.10 412.31 419.14 412.07 C 417.35 414.18 415.66 416.82 413.34 418.36 C 410.50 419.59 406.88 419.53 404.25 417.80 C 398.51 414.20 394.05 408.19 388.79 404.24 C 386.49 402.43 383.37 401.27 381.46 399.06 C 381.54 394.77 383.91 391.72 386.85 388.87 C 392.88 383.33 397.60 376.03 401.80 369.04 C 400.08 366.18 398.26 363.47 395.65 361.32 C 391.36 357.60 386.37 356.79 383.51 351.46 C 381.32 347.35 377.65 342.91 379.11 338.01 C 380.21 332.91 379.42 328.07 378.92 322.96 C 378.52 317.28 373.91 312.84 371.84 307.28 C 375.51 304.53 379.48 302.50 380.55 297.63 C 381.48 293.94 379.53 291.05 378.17 287.78 C 376.69 284.61 375.98 281.29 375.23 277.90 C 373.75 277.36 372.29 276.80 370.81 276.27 C 370.24 274.79 369.66 273.31 369.09 271.83 C 365.83 270.71 361.84 270.12 359.38 267.64 C 357.64 266.12 355.89 264.29 353.91 263.11 C 349.44 260.56 342.93 261.25 338.74 258.30 C 333.71 254.67 333.52 247.74 328.74 243.27 C 322.78 237.57 316.73 231.87 310.25 226.76 C 302.04 220.70 292.68 220.60 283.01 219.08 C 276.06 217.92 269.69 218.86 263.26 216.86 C 257.31 215.08 251.73 211.93 246.74 208.26 C 242.33 204.98 239.82 200.24 234.58 198.49 C 228.17 196.30 220.75 196.59 214.13 197.44 C 207.57 198.34 201.79 194.76 195.09 195.31 C 194.98 196.21 194.88 197.11 194.78 198.01 C 194.32 196.39 193.93 194.75 193.60 193.09 C 199.33 192.94 204.82 193.44 210.47 194.34 C 219.73 195.66 228.21 193.24 236.76 196.24 C 241.63 197.94 244.52 202.50 248.37 205.64 C 250.33 207.29 252.57 208.06 254.92 208.96 C 256.01 204.23 256.65 199.79 258.25 195.28 C 261.04 187.44 264.86 179.87 268.11 172.22 C 268.63 170.80 269.43 169.19 269.37 167.66 C 267.93 165.49 265.87 163.68 264.05 161.83 C 265.69 157.33 268.33 153.36 270.08 148.91 C 268.16 148.84 266.33 148.68 264.42 148.95 C 264.59 148.67 264.77 148.39 264.95 148.11 C 267.62 148.29 270.25 148.42 272.90 147.98 C 272.32 152.85 270.16 156.36 267.28 160.17 C 269.34 162.42 271.40 164.66 273.44 166.91 C 267.96 182.70 259.17 195.16 258.17 211.77 C 266.10 215.42 274.14 214.65 283.02 216.13 C 290.78 217.36 299.67 217.85 306.82 221.09 C 312.56 223.54 316.79 228.48 321.42 232.60 C 325.29 236.36 329.70 239.71 333.21 243.81 C 336.17 247.23 336.52 253.27 340.31 255.69 C 344.70 258.42 351.04 257.82 355.59 260.40 C 358.63 262.18 361.01 265.18 364.08 266.85 C 366.41 268.00 368.97 268.72 371.42 269.57 C 371.98 271.03 372.55 272.48 373.11 273.93 C 374.54 274.54 375.96 275.17 377.39 275.78 C 378.91 280.25 379.96 284.75 382.03 289.02 C 382.92 291.19 384.39 293.63 384.38 296.00 C 383.29 301.37 379.73 305.06 376.28 309.04 C 378.27 313.47 381.58 318.15 382.10 322.97 C 382.67 327.91 382.49 333.00 381.79 337.92 C 381.65 339.68 381.14 341.31 382.07 342.93 C 384.71 347.80 387.90 352.31 392.64 355.34 C 397.13 358.34 401.44 361.27 403.55 366.51 C 404.42 368.94 403.80 371.30 402.57 373.47 C 398.81 380.00 394.10 385.52 388.93 390.94 C 386.80 393.15 385.36 395.33 384.13 398.13 C 386.90 399.29 389.52 400.10 391.71 402.29 C 396.02 406.57 400.30 411.75 405.75 415.22 C 407.12 415.94 408.65 417.05 410.22 416.21 C 413.18 414.66 415.42 411.60 417.86 409.35 C 423.86 409.01 430.25 410.23 436.12 409.11 C 437.61 407.10 437.57 403.47 438.11 401.04 C 442.22 399.23 446.56 397.41 451.00 396.67 C 454.02 396.71 457.12 398.04 460.06 398.72 C 464.12 399.84 468.05 399.62 472.20 399.35 C 469.42 396.02 465.70 395.34 462.32 392.72 C 457.92 389.55 455.04 385.30 452.16 380.80 C 449.14 375.98 443.71 374.18 441.17 368.88 C 445.98 364.28 451.82 363.21 455.50 357.52 C 458.41 352.98 457.63 347.83 457.27 342.74 C 456.56 336.41 457.78 330.35 457.60 324.00 C 457.68 319.66 457.17 315.27 457.51 310.95 C 460.33 307.80 465.54 306.84 468.81 303.73 C 468.13 300.18 467.14 296.58 466.97 293.02 C 466.78 290.31 467.05 287.87 465.51 285.48 C 461.57 279.07 458.51 271.93 453.94 266.02 C 450.40 261.31 444.26 259.35 439.73 255.27 C 437.41 253.34 435.85 250.57 433.48 248.74 C 428.34 246.68 422.32 246.84 417.11 244.92 C 412.02 242.99 408.37 237.80 403.45 235.83 C 395.47 234.17 386.71 237.00 378.84 235.24 C 379.36 231.26 380.71 227.48 381.32 223.54 C 381.16 221.59 379.79 219.62 379.00 217.84 C 380.55 213.48 382.74 209.77 382.91 205.02 C 383.04 200.94 384.55 196.77 384.24 192.74 C 382.75 186.98 377.33 181.90 373.57 177.45 C 370.24 173.43 366.66 169.61 363.39 165.55 C 361.46 163.32 361.98 160.73 361.66 157.96 C 361.49 152.81 359.13 148.95 358.17 143.92 C 357.32 140.63 357.65 137.48 355.02 135.00 C 350.33 130.28 347.25 124.79 343.98 119.02 C 340.37 112.36 340.77 104.31 337.48 97.69 C 338.58 97.26 339.65 96.77 340.69 96.20 C 343.33 102.96 343.56 109.81 346.87 116.20 C 348.88 120.11 350.86 124.08 353.28 127.75 C 355.29 130.83 358.32 132.61 360.65 135.31 C 361.42 138.76 360.90 142.65 361.86 146.10 C 362.61 148.86 364.02 151.40 364.73 154.16 C 365.17 156.69 364.75 159.36 365.03 161.92 C 366.10 164.47 368.57 166.57 370.40 168.61 C 373.65 171.86 375.64 175.72 379.21 178.63 C 382.99 181.59 385.31 186.54 387.32 190.81 C 388.47 193.25 387.53 195.52 387.15 198.04 C 386.49 201.02 386.53 204.00 386.24 207.02 C 385.86 211.37 383.39 214.53 383.57 218.96 C 383.70 223.66 383.48 228.28 383.10 232.97 C 389.09 233.38 395.03 232.71 401.01 232.86 C 402.96 232.95 405.25 233.03 407.03 233.92 C 410.80 235.85 413.56 239.70 417.21 241.70 C 422.15 244.11 428.80 243.62 433.75 245.24 C 436.86 247.27 439.14 250.61 441.97 253.04 C 445.46 256.25 449.95 257.56 453.45 260.56 C 460.87 267.77 463.65 276.64 469.17 284.78 C 471.13 282.89 472.98 280.82 475.12 279.14 C 478.48 276.64 483.11 276.07 485.64 272.66 C 487.91 269.64 490.27 266.56 492.10 263.26 C 493.79 259.48 493.02 252.33 497.20 250.21 C 503.00 247.47 509.01 246.06 514.10 241.87 C 512.90 240.01 510.96 238.10 510.36 235.97 C 510.84 231.71 513.36 228.52 512.66 223.99 C 511.84 217.56 510.97 210.51 512.01 204.09 C 513.06 201.08 516.41 198.81 518.61 196.58 C 517.94 194.15 516.85 191.53 516.89 188.99 C 517.49 185.11 520.14 181.40 521.74 177.84 C 523.72 173.46 525.80 169.11 527.65 164.68 C 529.10 161.65 527.27 157.83 529.15 155.21 C 532.71 149.86 539.22 146.31 542.99 141.00 C 544.04 139.37 545.52 137.36 544.56 135.36 C 542.31 130.32 538.68 126.19 537.09 120.76 C 534.68 112.81 533.31 104.30 533.35 96.00 C 533.44 88.58 530.73 81.55 529.93 74.11 Z" fill="none" />
<!-- Sainte-Marie --><path d="M 533.06 74.71 C 534.72 74.75 536.39 74.79 538.05 74.90 C 545.48 77.09 552.61 80.86 559.90 83.49 C 565.27 85.33 570.46 85.10 575.93 86.56 C 584.21 88.61 593.39 94.05 602.04 94.45 C 606.28 93.99 610.27 90.08 614.23 88.51 C 617.94 87.56 621.37 88.95 624.83 90.05 C 629.38 91.53 633.67 91.19 638.30 91.86 C 639.25 95.68 640.71 99.84 640.52 103.80 C 639.38 108.73 636.00 112.96 635.04 118.05 C 633.79 124.51 634.37 131.46 634.55 138.00 C 634.70 144.50 636.86 150.43 639.78 156.15 C 640.97 158.83 642.95 162.51 641.27 165.34 C 638.00 170.97 632.24 175.21 628.64 180.65 C 626.76 183.58 625.82 187.28 624.38 190.49 C 622.92 193.72 621.46 196.94 620.21 200.26 C 618.17 205.70 614.94 210.26 612.46 215.52 C 610.11 220.46 607.47 225.26 605.21 230.24 C 603.34 234.31 602.34 238.65 600.69 242.80 C 598.83 247.40 595.44 250.55 592.89 254.92 C 590.78 258.39 589.54 262.24 587.60 265.78 C 587.18 266.84 585.55 267.10 584.57 267.42 C 580.10 268.47 575.49 268.90 570.97 269.74 C 565.28 270.66 559.88 272.60 554.22 273.69 C 551.12 269.81 549.32 264.33 545.08 261.90 C 541.25 259.60 536.18 260.54 531.98 260.94 C 523.93 261.79 517.27 265.01 509.66 267.64 C 502.51 270.04 495.58 273.35 488.25 275.10 C 490.70 271.70 493.99 268.53 495.75 264.73 C 497.12 261.12 497.37 257.13 498.42 253.40 C 504.41 250.96 512.46 248.74 516.95 243.87 C 518.24 240.39 515.51 238.14 514.47 235.05 C 514.93 232.31 516.33 229.66 516.66 226.90 C 516.63 223.59 515.45 220.37 515.36 217.03 C 515.25 212.90 514.94 208.56 515.65 204.48 C 517.17 202.69 519.18 201.27 521.00 199.79 C 521.37 195.42 520.79 190.45 522.32 186.37 C 524.74 179.40 528.40 172.86 531.10 166.04 C 532.40 163.01 531.68 160.05 532.18 156.98 C 535.83 151.13 543.17 148.10 546.76 141.73 C 548.66 138.64 548.94 135.17 547.00 132.01 C 543.73 126.47 540.23 121.76 538.95 115.24 C 538.28 111.23 537.76 107.21 536.77 103.26 C 535.60 98.22 537.58 93.69 536.57 88.56 C 535.59 83.90 533.98 79.40 533.06 74.71 Z" fill="#e6ddd3" />
<!-- Sainte-Suzanne --><path d="M 642.51 94.60 C 645.16 96.28 647.85 97.82 651.03 98.17 C 656.09 98.47 661.08 95.34 666.03 95.68 C 674.09 97.43 679.31 102.85 685.91 107.15 C 693.46 111.57 701.27 115.37 709.01 119.42 C 713.61 120.18 718.79 119.51 723.51 119.62 C 722.73 121.43 722.38 123.01 722.43 125.00 C 722.49 130.74 722.27 136.41 722.72 142.13 C 725.36 142.39 727.98 142.69 730.59 143.10 C 731.45 144.34 732.28 145.65 733.32 146.75 C 735.92 148.80 738.98 149.11 740.81 152.10 C 742.62 154.89 744.95 157.32 746.69 160.14 C 746.88 162.22 746.98 164.70 745.17 166.13 C 741.74 169.34 738.08 171.40 735.78 175.73 C 734.46 177.81 733.59 181.08 731.30 182.19 C 728.08 184.09 724.62 185.63 721.15 187.03 C 719.12 185.57 717.04 184.16 714.95 182.77 C 710.95 185.11 708.10 188.76 704.16 191.17 C 701.80 192.74 699.08 194.06 696.97 195.96 C 694.61 198.27 694.13 201.64 690.82 202.64 C 684.69 205.00 678.29 207.30 672.52 210.46 C 667.77 213.10 665.17 217.62 661.60 221.59 C 655.29 228.63 648.86 236.16 644.24 244.43 C 641.75 247.76 638.02 250.11 635.20 253.21 C 629.99 258.42 622.49 261.05 616.51 265.47 C 613.45 267.33 609.98 270.86 606.20 270.45 C 600.96 270.29 595.86 269.43 590.90 267.73 C 592.10 260.74 597.48 254.12 601.38 248.38 C 604.63 243.64 605.29 238.62 607.41 233.42 C 613.45 219.11 622.19 205.96 627.58 191.47 C 628.76 188.48 629.89 185.27 631.58 182.53 C 635.19 176.66 641.82 171.96 644.88 165.79 C 646.63 162.56 644.22 158.24 642.94 155.17 C 640.19 148.65 636.83 141.17 637.07 134.00 C 637.09 129.73 636.92 125.38 637.44 121.13 C 638.28 115.46 642.51 110.13 643.90 104.92 C 644.46 101.61 643.15 97.86 642.51 94.60 Z" fill="#e6ddd3" />
<!-- La Possession --><path d="M 337.48 97.69 C 340.77 104.31 340.37 112.36 343.98 119.02 C 347.25 124.79 350.33 130.28 355.02 135.00 C 357.65 137.48 357.32 140.63 358.17 143.92 C 359.13 148.95 361.49 152.81 361.66 157.96 C 361.98 160.73 361.46 163.32 363.39 165.55 C 366.66 169.61 370.24 173.43 373.57 177.45 C 377.33 181.90 382.75 186.98 384.24 192.74 C 384.55 196.77 383.04 200.94 382.91 205.02 C 382.74 209.77 380.55 213.48 379.00 217.84 C 379.79 219.62 381.16 221.59 381.32 223.54 C 380.71 227.48 379.36 231.26 378.84 235.24 C 386.71 237.00 395.47 234.17 403.45 235.83 C 408.37 237.80 412.02 242.99 417.11 244.92 C 422.32 246.84 428.34 246.68 433.48 248.74 C 435.85 250.57 437.41 253.34 439.73 255.27 C 444.26 259.35 450.40 261.31 453.94 266.02 C 458.51 271.93 461.57 279.07 465.51 285.48 C 467.05 287.87 466.78 290.31 466.97 293.02 C 467.14 296.58 468.13 300.18 468.81 303.73 C 465.54 306.84 460.33 307.80 457.51 310.95 C 457.17 315.27 457.68 319.66 457.60 324.00 C 457.78 330.35 456.56 336.41 457.27 342.74 C 457.63 347.83 458.41 352.98 455.50 357.52 C 451.82 363.21 445.98 364.28 441.17 368.88 C 443.71 374.18 449.14 375.98 452.16 380.80 C 455.04 385.30 457.92 389.55 462.32 392.72 C 465.70 395.34 469.42 396.02 472.20 399.35 C 468.05 399.62 464.12 399.84 460.06 398.72 C 457.12 398.04 454.02 396.71 451.00 396.67 C 446.56 397.41 442.22 399.23 438.11 401.04 C 437.57 403.47 437.61 407.10 436.12 409.11 C 430.25 410.23 423.86 409.01 417.86 409.35 C 415.42 411.60 413.18 414.66 410.22 416.21 C 408.65 417.05 407.12 415.94 405.75 415.22 C 400.30 411.75 396.02 406.57 391.71 402.29 C 389.52 400.10 386.90 399.29 384.13 398.13 C 385.36 395.33 386.80 393.15 388.93 390.94 C 394.10 385.52 398.81 380.00 402.57 373.47 C 403.80 371.30 404.42 368.94 403.55 366.51 C 401.44 361.27 397.13 358.34 392.64 355.34 C 387.90 352.31 384.71 347.80 382.07 342.93 C 381.14 341.31 381.65 339.68 381.79 337.92 C 382.49 333.00 382.67 327.91 382.10 322.97 C 381.58 318.15 378.27 313.47 376.28 309.04 C 379.73 305.06 383.29 301.37 384.38 296.00 C 384.39 293.63 382.92 291.19 382.03 289.02 C 379.96 284.75 378.91 280.25 377.39 275.78 C 375.96 275.17 374.54 274.54 373.11 273.93 C 372.55 272.48 371.98 271.03 371.42 269.57 C 368.97 268.72 366.41 268.00 364.08 266.85 C 361.01 265.18 358.63 262.18 355.59 260.40 C 351.04 257.82 344.70 258.42 340.31 255.69 C 336.52 253.27 336.17 247.23 333.21 243.81 C 329.70 239.71 325.29 236.36 321.42 232.60 C 316.79 228.48 312.56 223.54 306.82 221.09 C 299.67 217.85 290.78 217.36 283.02 216.13 C 274.14 214.65 266.10 215.42 258.17 211.77 C 259.17 195.16 267.96 182.70 273.44 166.91 C 271.40 164.66 269.34 162.42 267.28 160.17 C 270.16 156.36 272.32 152.85 272.90 147.98 C 276.94 146.11 280.75 143.72 284.85 141.97 C 287.71 140.75 290.59 140.06 293.00 138.04 C 295.16 136.22 297.21 134.19 298.97 131.99 C 301.09 129.27 301.94 125.72 304.02 123.04 C 307.88 119.03 314.76 117.39 319.22 114.39 C 323.61 111.11 326.54 105.96 329.58 101.56 C 331.17 98.67 334.69 98.78 337.48 97.69 Z" fill="#e6ddd3" />
<!-- Saint-André --><path d="M 727.24 121.25 C 728.49 121.08 729.76 120.96 731.03 120.86 C 738.49 122.41 745.70 124.83 752.28 128.74 C 759.56 133.08 766.86 137.45 773.92 142.14 C 778.47 145.01 778.64 149.91 782.02 153.97 C 789.21 162.33 797.82 168.69 804.27 177.71 C 809.03 183.86 811.53 190.77 815.70 197.28 C 818.90 202.69 822.88 207.03 824.58 213.05 C 826.10 218.28 827.15 223.69 827.43 229.13 C 819.64 229.55 812.93 227.87 805.78 231.60 C 800.45 233.78 793.91 238.68 788.02 237.75 C 778.79 236.11 770.66 227.33 761.02 225.99 C 753.23 224.87 744.83 226.76 737.54 229.51 C 733.70 230.87 732.24 233.89 729.70 236.74 C 727.51 239.35 724.23 240.51 721.48 242.51 C 719.38 244.02 717.75 246.11 715.66 247.62 C 711.77 248.52 706.05 246.09 702.49 248.38 C 698.74 250.44 698.26 256.70 695.25 259.18 C 690.29 261.94 684.52 263.47 679.11 265.13 C 673.54 266.76 668.50 265.44 663.15 263.79 C 658.85 262.38 654.43 261.29 650.19 259.71 C 646.22 258.18 643.62 254.98 640.92 251.87 C 642.76 250.45 644.77 249.16 646.42 247.52 C 648.23 244.86 649.27 241.74 651.13 239.09 C 655.11 233.28 660.30 228.19 664.73 222.71 C 667.96 218.84 670.76 214.73 675.42 212.45 C 681.14 209.64 687.28 207.72 693.06 205.05 C 696.08 203.83 697.05 200.60 699.23 198.29 C 702.31 195.10 707.45 193.81 710.59 190.61 C 712.17 189.07 713.65 187.42 715.16 185.82 C 717.10 187.28 718.97 190.62 721.69 189.69 C 726.31 188.62 730.67 186.10 734.82 183.87 C 737.39 182.75 737.52 178.85 738.67 176.51 C 740.13 172.16 745.49 170.63 748.48 167.54 C 749.83 165.18 750.52 161.68 750.24 158.99 C 747.62 155.30 744.56 151.83 741.80 148.23 C 737.89 145.43 734.31 142.69 730.91 139.26 C 728.95 139.44 726.99 139.61 725.03 139.78 C 725.17 133.60 725.52 127.22 727.24 121.25 Z" fill="#e6ddd3" />
<!-- Le Port --><path d="M 204.36 144.50 C 207.97 143.83 210.53 145.67 214.03 146.17 C 217.00 146.60 219.80 147.11 222.42 148.67 C 227.08 151.38 232.70 152.46 238.04 152.47 C 241.48 152.45 244.74 149.36 248.01 148.67 C 249.58 148.47 251.19 148.46 252.77 148.43 C 250.53 149.56 248.27 150.67 246.02 151.78 C 246.40 154.36 248.25 156.34 250.94 156.22 C 255.40 155.82 259.77 155.55 264.26 155.86 C 264.06 153.91 263.87 151.97 263.72 150.02 L 264.42 148.95 C 266.33 148.68 268.16 148.84 270.08 148.91 C 268.33 153.36 265.69 157.33 264.05 161.83 C 265.87 163.68 267.93 165.49 269.37 167.66 C 269.43 169.19 268.63 170.80 268.11 172.22 C 264.86 179.87 261.04 187.44 258.25 195.28 C 256.65 199.79 256.01 204.23 254.92 208.96 C 252.57 208.06 250.33 207.29 248.37 205.64 C 244.52 202.50 241.63 197.94 236.76 196.24 C 228.21 193.24 219.73 195.66 210.47 194.34 C 204.82 193.44 199.33 192.94 193.60 193.09 C 194.43 187.53 198.09 183.44 199.04 177.97 C 199.68 174.00 199.86 169.99 200.70 166.05 C 202.76 166.40 204.82 166.72 206.89 167.01 C 208.38 164.05 209.52 161.35 209.60 157.97 C 207.85 157.19 206.11 156.38 204.38 155.57 C 204.25 151.87 204.12 148.20 204.36 144.50 Z" fill="#e6ddd3" />
<!-- Saint-Paul --><path d="M 195.09 195.31 C 201.79 194.76 207.57 198.34 214.13 197.44 C 220.75 196.59 228.17 196.30 234.58 198.49 C 239.82 200.24 242.33 204.98 246.74 208.26 C 251.73 211.93 257.31 215.08 263.26 216.86 C 269.69 218.86 276.06 217.92 283.01 219.08 C 292.68 220.60 302.04 220.70 310.25 226.76 C 316.73 231.87 322.78 237.57 328.74 243.27 C 333.52 247.74 333.71 254.67 338.74 258.30 C 342.93 261.25 349.44 260.56 353.91 263.11 C 355.89 264.29 357.64 266.12 359.38 267.64 C 361.84 270.12 365.83 270.71 369.09 271.83 C 369.66 273.31 370.24 274.79 370.81 276.27 C 372.29 276.80 373.75 277.36 375.23 277.90 C 375.98 281.29 376.69 284.61 378.17 287.78 C 379.53 291.05 381.48 293.94 380.55 297.63 C 379.48 302.50 375.51 304.53 371.84 307.28 C 373.91 312.84 378.52 317.28 378.92 322.96 C 379.42 328.07 380.21 332.91 379.11 338.01 C 377.65 342.91 381.32 347.35 383.51 351.46 C 386.37 356.79 391.36 357.60 395.65 361.32 C 398.26 363.47 400.08 366.18 401.80 369.04 C 397.60 376.03 392.88 383.33 386.85 388.87 C 383.91 391.72 381.54 394.77 381.46 399.06 C 383.37 401.27 386.49 402.43 388.79 404.24 C 394.05 408.19 398.51 414.20 404.25 417.80 C 406.88 419.53 410.50 419.59 413.34 418.36 C 415.66 416.82 417.35 414.18 419.14 412.07 C 423.10 412.31 427.05 413.03 431.02 413.09 C 434.45 413.17 437.81 411.71 440.09 409.15 C 441.02 407.47 441.06 405.21 441.44 403.33 C 444.52 401.79 448.22 399.85 451.71 399.76 C 457.23 401.00 462.61 402.66 468.24 403.49 C 465.86 406.37 463.07 408.82 460.51 411.54 C 457.42 413.96 461.20 419.93 458.23 422.19 C 449.95 428.90 440.17 432.41 432.21 439.21 C 429.04 441.80 425.41 442.48 421.62 443.63 C 418.82 444.38 416.77 446.77 414.64 448.64 C 411.15 446.25 407.65 443.92 403.81 442.12 C 396.23 438.52 390.14 432.61 384.20 426.81 C 381.32 424.02 378.52 420.49 374.45 419.50 C 369.44 418.37 364.10 418.69 359.00 417.93 C 355.97 417.63 352.75 416.71 349.80 417.66 C 346.48 418.49 343.20 420.10 339.71 419.30 C 333.57 417.93 327.39 414.82 321.65 412.36 C 318.94 411.10 316.56 411.90 313.74 412.14 C 307.36 412.98 301.04 412.40 294.73 411.29 C 288.16 410.18 282.52 412.76 276.00 412.18 C 272.18 411.88 268.69 410.79 265.01 409.85 C 259.29 408.29 252.91 408.51 247.00 408.61 C 240.48 408.64 235.03 411.55 228.56 412.47 C 223.40 413.32 220.12 416.53 215.38 418.38 C 210.06 420.57 204.77 421.02 199.28 422.37 C 195.53 423.30 192.26 425.04 188.90 426.88 C 183.18 430.04 177.20 432.77 171.04 434.97 C 166.48 436.59 161.78 436.72 156.96 437.05 C 154.79 436.29 152.73 435.56 150.98 434.00 C 147.65 431.18 146.71 427.20 143.22 424.78 C 135.67 419.46 128.00 414.17 122.06 406.97 C 118.32 402.69 116.90 397.24 112.82 393.18 C 109.62 389.93 108.04 386.63 107.95 382.03 C 108.18 372.17 109.93 362.27 110.64 352.49 C 111.68 351.44 112.71 350.37 113.75 349.31 C 108.59 341.43 101.50 332.17 102.09 322.31 C 112.82 314.52 118.10 303.26 127.41 294.37 C 129.26 292.28 131.36 293.41 133.76 293.68 C 139.00 294.70 145.15 296.87 150.28 294.53 C 158.65 291.05 166.51 285.90 174.30 281.28 C 179.96 277.92 184.07 273.15 188.10 268.06 C 190.01 265.52 192.93 263.38 194.31 260.53 C 195.80 255.43 197.68 250.26 198.30 245.02 C 199.57 235.80 202.43 225.22 200.67 216.00 C 199.80 209.83 196.40 204.06 194.78 198.01 C 194.88 197.11 194.98 196.21 195.09 195.31 Z" fill="#F4C430" />
<!-- Bras-Panon --><path d="M 762.80 229.28 C 770.42 232.14 777.14 237.46 784.82 240.31 C 786.84 241.03 788.85 241.54 791.02 241.19 C 799.13 239.96 806.05 233.35 814.17 232.54 C 818.63 232.23 823.02 232.99 827.49 232.31 C 826.82 241.53 827.65 250.64 828.35 259.82 C 828.45 261.90 828.45 263.96 828.23 266.03 C 827.92 267.55 828.26 268.82 826.54 269.46 C 824.02 270.60 820.95 270.77 818.27 271.53 C 816.03 272.21 814.10 273.89 811.86 274.57 C 806.82 275.42 800.85 274.55 796.08 277.04 C 793.93 278.96 792.30 281.41 790.08 283.30 C 789.85 285.08 789.68 286.88 789.30 288.63 C 786.87 290.28 783.74 291.05 781.05 292.23 C 781.84 298.07 785.00 303.14 785.84 308.89 C 784.77 311.16 781.72 312.51 779.54 313.49 C 774.49 315.42 769.46 317.28 763.97 316.70 C 758.28 316.10 752.69 316.86 747.00 316.77 C 742.20 316.72 737.66 317.05 733.31 319.27 C 729.80 321.10 727.35 325.20 723.71 326.61 C 718.62 328.55 712.19 325.62 707.10 326.81 C 703.99 329.81 701.65 333.70 699.20 337.25 C 696.83 340.72 696.61 344.47 695.12 348.26 C 693.82 351.17 691.08 353.62 689.03 356.03 C 686.92 358.36 685.31 360.99 683.44 363.50 C 680.66 367.23 676.97 369.26 673.76 372.76 C 670.07 376.67 667.47 381.17 664.64 385.69 C 663.02 388.32 660.59 390.21 658.80 392.67 C 658.08 394.26 657.77 396.07 657.35 397.76 C 654.18 398.54 651.16 399.09 647.96 398.04 C 642.79 396.41 639.34 393.07 635.34 389.66 C 632.69 387.35 629.67 386.62 626.47 385.40 C 622.12 383.80 617.94 381.12 613.96 378.75 C 616.38 374.41 620.01 369.83 620.97 364.96 C 621.95 359.88 621.22 354.16 621.03 349.00 C 620.83 345.32 621.13 341.66 621.12 337.98 C 621.24 334.00 619.21 330.20 616.97 327.04 C 615.73 325.08 613.20 324.91 611.17 324.15 C 611.84 318.69 614.73 314.22 615.92 308.91 C 617.00 304.68 618.03 299.33 620.97 295.96 C 622.89 294.46 625.53 293.85 627.67 292.66 C 631.40 290.70 633.71 287.36 635.93 283.91 C 636.88 282.65 637.56 280.99 639.20 280.54 C 643.66 279.01 647.98 277.81 651.75 274.81 C 654.93 272.62 655.82 269.38 657.39 266.05 C 663.13 266.37 668.26 268.53 674.00 268.49 C 680.03 268.45 685.55 266.16 691.21 264.34 C 693.36 263.59 695.74 262.94 697.65 261.68 C 700.87 259.03 701.01 252.81 704.59 250.64 C 708.03 249.54 712.41 251.41 716.02 251.25 C 718.33 250.08 720.20 247.87 722.21 246.24 C 725.66 243.30 729.51 242.07 732.37 238.40 C 734.46 236.04 735.74 233.03 738.96 232.13 C 746.78 229.52 754.52 226.64 762.80 229.28 Z" fill="#e6ddd3" />
<!-- Salazie --><path d="M 639.78 255.05 C 641.97 256.92 643.89 259.07 646.07 260.93 C 648.23 262.81 651.21 263.68 653.86 264.67 C 653.56 266.45 653.61 268.95 652.37 270.34 C 647.43 275.02 641.73 276.36 635.67 278.75 C 632.70 281.66 631.14 286.14 628.00 288.96 C 625.45 290.95 621.73 291.27 619.21 293.21 C 614.71 298.10 614.02 303.65 612.54 309.81 C 611.57 314.35 608.21 318.44 607.84 323.00 C 608.14 327.55 612.72 327.88 615.60 330.40 C 618.01 332.99 617.90 336.70 617.95 340.00 C 617.87 346.17 617.72 352.30 618.39 358.45 C 619.30 365.08 615.33 371.45 611.34 376.39 C 606.50 382.64 598.94 386.63 591.01 386.85 C 588.67 387.16 586.27 386.67 584.53 388.51 C 581.06 391.77 577.76 396.39 572.50 396.50 C 570.62 395.10 569.07 393.24 567.20 391.81 C 565.89 390.92 564.93 390.19 563.69 391.70 C 559.52 396.97 559.69 405.41 555.57 410.59 C 552.12 413.93 546.16 414.42 542.09 417.06 C 537.74 419.87 533.22 423.06 530.51 427.56 C 527.66 432.13 524.87 436.68 521.32 440.77 C 518.38 436.02 516.73 431.30 512.30 427.68 C 508.50 424.34 504.09 423.01 499.40 421.45 C 498.55 417.72 498.45 413.33 495.42 410.59 C 490.86 406.23 483.94 403.69 478.73 400.19 C 475.68 398.16 473.63 395.43 470.34 393.72 C 466.44 391.76 462.93 389.22 459.79 386.18 C 456.76 383.15 455.29 378.95 452.18 375.81 C 449.99 373.64 447.56 371.70 445.34 369.56 C 450.14 365.62 457.24 362.46 459.44 356.40 C 462.09 349.62 458.85 341.43 459.92 334.00 C 460.82 326.96 460.16 320.06 459.95 313.02 C 463.57 309.64 468.91 308.87 472.47 305.10 C 471.84 300.65 470.11 296.42 469.58 291.99 C 469.61 288.42 473.31 285.00 475.82 282.79 C 478.48 280.29 481.53 280.27 484.94 279.69 C 490.02 278.95 494.31 276.90 499.08 275.12 C 507.58 271.89 516.10 268.69 524.72 265.78 C 529.61 264.10 534.91 263.84 540.04 264.16 C 542.17 264.28 544.07 264.83 545.60 266.39 C 548.86 269.25 549.65 274.90 552.97 277.31 C 559.02 277.28 564.80 274.01 570.97 273.21 C 575.53 272.61 579.98 271.57 584.49 270.71 C 587.28 270.15 589.87 270.72 592.55 271.47 C 598.18 273.11 604.14 273.51 609.94 272.73 C 612.53 272.45 614.84 270.36 616.93 268.93 C 622.23 264.97 628.14 262.27 633.61 258.61 C 635.59 257.28 637.60 256.02 639.78 255.05 Z" fill="#e6ddd3" />
<!-- Saint-Benoit --><path d="M 829.02 272.42 C 829.53 277.70 829.87 283.45 831.39 288.54 C 832.42 291.85 835.09 293.63 835.49 297.03 C 836.21 301.05 837.06 306.77 841.19 308.75 C 846.74 309.87 852.17 311.88 856.77 315.22 C 861.73 319.77 864.26 326.96 866.60 333.09 C 867.99 337.82 872.85 339.97 876.43 342.91 C 873.88 348.31 872.17 353.62 874.13 359.57 C 876.39 365.87 881.10 371.52 885.16 376.78 C 889.43 382.27 893.10 388.00 897.85 393.16 C 900.46 396.04 903.95 397.53 906.62 400.37 C 909.04 402.94 911.41 405.64 913.40 408.57 C 916.40 413.10 917.11 419.24 920.53 423.33 C 922.69 425.83 925.08 428.13 927.48 430.39 C 926.18 432.44 924.78 434.33 922.89 435.88 C 919.26 438.94 916.14 442.43 912.33 445.27 C 910.01 447.10 907.12 449.01 905.60 451.59 C 903.83 454.61 902.80 457.83 900.69 460.70 C 897.47 465.06 892.76 469.57 890.67 474.62 C 890.25 478.12 890.87 480.99 888.78 484.15 C 889.68 487.81 890.94 490.88 892.94 494.07 C 894.53 494.22 896.12 494.41 897.71 494.57 C 896.08 496.55 894.11 498.44 892.87 500.69 C 892.54 502.29 892.58 503.97 892.29 505.58 C 890.53 509.83 887.18 511.58 883.28 513.52 C 881.88 516.97 883.05 522.42 880.72 525.69 C 879.30 527.77 877.60 529.94 875.47 531.32 C 871.81 532.63 867.76 532.72 864.07 534.04 C 860.69 535.28 857.51 536.98 854.11 538.18 C 849.47 533.76 845.47 528.57 841.30 523.69 C 827.50 506.85 813.23 490.40 799.40 473.59 C 789.08 461.27 778.76 448.94 768.25 436.78 C 764.42 432.46 759.26 427.62 753.44 426.44 C 747.24 425.31 740.26 428.05 734.81 430.85 C 729.64 434.69 728.39 443.47 724.15 448.11 C 718.46 450.88 711.58 450.77 705.85 453.81 C 700.96 456.08 698.56 460.37 694.47 463.40 C 690.49 464.03 685.15 460.74 682.26 464.27 C 679.64 466.73 677.15 469.21 674.08 471.11 C 671.65 468.83 669.43 466.21 666.75 464.22 C 661.41 460.77 654.04 461.07 648.93 464.87 C 644.37 468.23 639.82 469.90 636.46 474.51 C 633.97 477.83 630.47 480.06 626.63 481.54 C 623.67 482.56 620.12 482.43 617.00 482.71 C 614.54 482.82 611.98 483.36 609.51 483.15 C 605.65 481.70 602.14 477.90 598.03 476.97 C 593.33 478.00 588.80 481.25 584.01 481.89 C 580.66 481.92 577.31 480.27 573.99 479.79 C 568.94 478.83 564.19 479.80 559.35 481.28 C 553.38 483.13 547.26 484.22 541.05 484.84 C 540.59 482.24 540.27 479.62 540.03 476.98 C 539.55 470.07 536.72 463.10 534.58 456.51 C 532.58 450.61 528.48 446.92 524.31 442.56 C 525.80 440.00 527.44 437.55 529.17 435.15 C 531.69 431.64 533.74 427.76 536.84 424.84 C 540.49 421.49 544.31 418.59 549.15 417.22 C 552.07 416.20 555.96 415.48 557.78 412.75 C 561.59 407.26 562.17 401.04 564.90 394.71 C 567.28 396.57 569.68 398.40 572.08 400.22 C 574.68 399.57 577.17 398.98 579.45 397.49 C 582.35 395.71 584.26 392.94 586.92 390.98 C 590.30 389.71 594.19 389.72 597.67 388.63 C 602.78 387.41 607.11 384.66 611.97 382.88 C 614.30 381.93 616.48 383.50 618.45 384.60 C 621.21 386.40 623.99 387.87 627.15 388.85 C 633.66 390.67 637.29 396.70 643.62 399.38 C 649.05 402.48 654.71 402.10 660.57 400.59 C 661.44 396.98 662.23 393.52 664.55 390.51 C 669.94 383.32 673.24 376.10 680.69 370.75 C 685.80 367.23 687.51 361.97 691.63 357.60 C 693.45 355.51 695.75 353.51 697.12 351.10 C 698.72 347.83 699.23 344.09 700.88 340.81 C 703.08 336.58 706.03 332.67 709.39 329.30 C 714.21 330.00 719.18 331.91 723.95 330.07 C 727.19 329.02 729.19 326.79 731.63 324.59 C 734.31 322.04 737.97 320.59 741.48 319.61 C 744.44 318.66 747.04 320.24 750.02 320.54 C 752.71 320.34 755.28 319.16 757.99 318.93 C 762.13 319.14 765.54 320.87 769.76 319.85 C 774.29 318.74 778.93 317.20 783.14 315.17 C 786.22 313.59 789.38 310.40 788.42 306.62 C 787.44 302.18 785.68 297.93 784.47 293.54 C 787.17 292.51 791.15 292.50 792.19 289.36 C 793.97 285.57 795.82 281.91 799.24 279.29 C 803.26 277.79 808.00 278.55 812.18 277.38 C 817.92 275.76 822.94 272.94 829.02 272.42 Z" fill="#e6ddd3" />
<!-- Cilaos --><path d="M 474.88 401.40 C 479.35 403.75 483.58 406.55 487.98 409.03 C 490.40 410.55 493.74 412.31 495.03 414.96 C 496.01 417.81 496.25 420.93 496.91 423.88 C 501.66 425.63 506.69 427.00 510.53 430.48 C 514.25 433.83 515.54 438.41 518.93 442.05 C 522.64 446.04 527.30 449.01 529.96 453.96 C 531.84 457.64 532.85 461.83 534.31 465.70 C 536.26 471.19 538.42 475.99 537.75 482.01 C 537.01 488.98 531.49 494.90 529.68 501.83 C 528.05 507.54 528.59 513.03 528.25 518.82 C 527.55 522.45 525.13 525.61 524.24 529.24 C 522.47 536.10 521.26 542.70 518.02 549.12 C 516.58 551.95 514.05 553.71 511.61 555.64 C 505.92 559.98 499.60 564.37 492.81 566.77 C 488.70 568.22 484.08 566.09 480.58 568.53 C 477.52 570.39 474.71 572.65 471.71 574.62 C 467.93 573.22 464.06 570.14 460.03 570.29 C 456.94 570.34 454.07 569.65 451.12 568.81 C 447.21 567.69 443.03 567.87 439.19 566.64 C 437.62 565.72 436.47 564.07 435.12 562.85 C 433.05 560.81 430.18 559.78 428.06 557.95 C 426.59 556.04 425.75 553.62 424.50 551.54 C 423.10 549.07 420.85 547.16 418.87 545.13 C 415.76 542.04 413.52 538.65 410.05 535.92 C 406.39 533.00 402.79 530.82 400.31 526.67 C 396.76 521.70 400.17 514.30 397.09 508.94 C 394.25 504.02 389.79 500.07 387.04 494.99 C 385.44 492.13 384.62 489.09 383.77 485.95 C 385.92 484.17 388.72 482.77 390.54 480.69 C 391.62 477.07 391.42 472.94 393.85 469.84 C 396.47 466.51 399.82 463.80 402.54 460.53 C 404.56 458.34 406.26 455.61 408.60 453.78 C 411.75 452.44 415.08 451.90 418.06 450.09 C 421.51 448.02 425.06 446.34 428.75 444.74 C 433.56 442.62 436.77 438.99 441.33 436.40 C 447.67 432.81 453.96 429.07 460.03 425.04 C 464.74 422.55 460.95 415.80 464.42 412.43 C 467.89 408.75 471.13 404.79 474.88 401.40 Z" fill="#e6ddd3" />
<!-- Trois-Bassins --><path d="M 258.80 411.57 C 264.24 412.81 269.42 414.55 275.05 414.89 C 282.53 416.05 289.57 413.78 297.02 414.38 C 302.74 414.62 307.63 416.25 313.00 415.31 C 315.76 415.02 318.00 414.10 320.65 415.34 C 326.68 417.92 333.12 421.09 339.56 422.56 C 344.46 423.62 349.05 420.02 354.00 420.46 C 358.02 420.77 361.99 421.40 366.04 421.47 C 370.04 421.72 374.34 421.68 377.47 424.57 C 382.35 429.04 386.66 434.02 391.99 438.02 C 397.37 442.47 403.33 445.68 409.72 448.41 C 406.73 451.24 404.12 454.36 401.45 457.48 C 399.24 460.38 394.17 459.89 390.95 459.79 C 387.46 459.77 384.83 456.12 381.45 455.49 C 378.39 454.95 375.25 454.88 372.17 454.46 C 368.12 453.97 364.04 452.82 359.99 452.64 C 355.39 452.47 350.53 454.29 346.01 453.76 C 341.83 452.98 338.19 449.86 334.02 448.76 C 327.07 446.89 318.93 448.02 311.74 447.27 C 306.50 446.70 301.30 446.38 296.05 447.09 C 290.16 447.81 284.89 450.17 279.04 450.79 C 275.37 451.23 271.73 451.09 268.05 451.30 C 264.23 451.48 260.69 453.70 256.83 454.47 C 253.49 455.13 250.20 455.55 247.07 456.98 C 242.19 459.20 237.02 460.75 232.66 463.65 C 230.84 464.77 228.91 466.09 226.86 466.72 C 222.98 467.89 218.66 467.59 214.81 468.65 C 211.20 469.76 207.90 472.67 204.78 474.76 C 199.20 479.26 191.02 477.99 183.93 479.81 C 183.61 477.95 183.34 476.04 182.74 474.25 C 181.19 471.89 179.17 469.78 177.16 467.81 C 175.41 466.15 172.82 465.58 171.03 464.04 C 169.10 461.23 167.88 457.99 165.76 455.27 C 163.27 451.82 159.55 449.23 157.30 445.66 C 157.14 443.61 158.65 441.35 159.45 439.53 C 163.79 440.08 167.73 439.07 171.92 438.04 C 180.47 435.74 187.32 430.66 195.07 427.09 C 201.60 424.10 208.21 424.04 214.86 421.89 C 219.24 420.48 222.86 417.92 227.21 416.39 C 231.01 415.07 234.92 414.08 238.73 412.80 C 244.98 410.55 252.28 410.96 258.80 411.57 Z" fill="#e6ddd3" />
<!-- La Plaine des Palmistes --><path d="M 750.00 428.81 C 756.81 429.06 762.99 434.95 767.08 439.94 C 773.92 448.41 781.16 456.54 788.10 464.93 C 805.50 486.14 823.58 506.77 840.87 528.08 C 843.99 532.05 847.42 535.67 850.19 539.91 C 844.68 542.72 839.24 544.29 834.40 548.37 C 830.78 551.19 828.71 555.31 825.36 558.31 C 821.40 561.39 815.56 562.99 810.72 561.24 C 806.35 559.92 802.78 557.96 798.23 560.14 C 793.38 562.21 791.87 566.26 789.49 570.55 C 787.83 573.82 785.22 576.12 782.40 578.36 C 778.09 581.72 774.27 585.62 769.92 588.93 C 766.58 585.58 763.84 581.80 761.27 577.84 C 758.68 573.77 757.40 569.20 754.88 565.13 C 753.09 562.20 750.90 559.70 749.64 556.52 C 748.48 553.76 747.76 550.45 745.96 548.07 C 743.92 545.35 741.56 543.22 739.90 540.18 C 738.34 537.25 737.16 534.11 735.74 531.10 C 731.96 531.88 728.45 532.88 725.43 535.41 C 720.36 540.09 717.54 545.92 715.18 552.29 C 714.51 554.82 710.97 555.11 708.82 555.65 C 705.47 556.39 703.18 554.62 700.00 554.03 C 697.83 554.20 695.64 555.23 693.49 555.19 C 689.73 554.06 686.10 552.15 682.66 550.25 C 680.22 549.23 680.22 545.79 679.39 543.54 C 675.02 543.03 670.67 542.69 666.38 541.64 C 666.17 539.50 666.81 536.38 665.27 534.73 C 663.29 532.30 661.12 530.26 659.94 527.26 C 661.41 525.58 663.03 523.88 664.18 521.95 C 665.04 518.51 663.57 515.94 661.98 513.05 C 660.35 510.33 659.70 507.31 658.51 504.41 C 656.29 501.59 651.96 499.23 650.24 495.81 C 650.01 493.27 651.48 490.52 651.78 487.95 C 652.14 486.15 651.64 483.96 649.71 483.33 C 646.88 482.10 642.34 482.14 640.46 479.54 C 638.92 477.94 638.88 474.23 641.17 473.29 C 644.67 471.46 648.08 469.70 651.20 467.23 C 654.45 464.75 658.04 463.49 662.06 464.91 C 667.65 466.46 669.46 471.45 674.09 474.09 C 678.61 473.80 681.48 468.27 685.11 466.07 C 688.07 465.18 691.76 467.38 694.80 466.82 C 699.04 464.52 701.81 459.53 706.05 457.11 C 711.40 454.20 717.21 453.39 722.98 452.07 C 724.28 451.68 726.35 451.35 727.09 450.08 C 730.36 445.11 731.99 438.40 735.96 433.96 C 739.21 431.66 746.05 429.13 750.00 428.81 Z" fill="#e6ddd3" />
<!-- Sainte-Rose --><path d="M 930.76 432.00 C 933.51 433.06 934.82 435.28 936.38 437.61 C 940.99 444.73 942.35 452.50 947.75 459.22 C 950.27 462.37 953.66 466.36 957.99 466.54 C 961.36 467.02 963.91 464.88 966.99 464.66 C 971.35 465.80 975.88 467.69 979.28 470.74 C 981.76 472.96 984.42 474.95 987.00 477.05 C 989.55 478.96 989.61 483.12 992.16 484.83 C 995.08 486.94 998.28 488.62 1001.98 488.60 C 1004.28 488.77 1006.27 488.35 1008.26 489.75 C 1011.29 491.79 1014.85 493.03 1017.79 495.10 C 1019.27 499.08 1018.96 503.79 1020.14 507.87 C 1021.71 510.61 1023.66 513.04 1024.91 515.97 C 1026.10 518.89 1028.48 520.29 1030.46 522.54 C 1031.53 525.21 1029.26 528.37 1028.59 530.97 C 1027.42 540.35 1029.48 549.02 1032.68 557.77 C 1029.68 559.86 1026.78 561.37 1023.14 562.00 C 1021.62 561.15 1019.74 559.27 1017.95 559.46 C 1014.79 560.99 1015.00 565.01 1014.67 567.98 C 1014.12 573.29 1017.00 577.75 1016.20 582.99 C 1015.84 585.91 1015.73 589.02 1014.81 591.82 C 1013.55 594.90 1010.66 596.36 1007.99 598.01 C 1004.18 600.08 1001.40 603.74 999.20 607.40 C 997.51 610.18 999.18 614.54 997.15 617.17 C 994.01 621.79 991.39 626.57 990.09 632.05 C 989.10 636.49 989.75 641.28 989.14 645.76 C 988.60 649.44 986.79 652.31 985.75 655.76 C 984.97 658.69 984.97 661.97 984.75 664.99 C 984.46 665.83 984.15 666.66 983.82 667.49 C 964.52 665.80 945.24 663.63 925.97 661.62 C 885.95 657.80 845.99 653.31 805.97 649.54 C 787.95 647.61 769.92 646.00 751.98 643.49 C 754.13 635.75 760.02 630.71 762.35 623.19 C 764.24 616.81 762.34 609.64 763.55 603.44 C 765.32 598.28 770.39 593.97 773.98 589.98 C 778.13 585.36 782.81 581.50 787.72 577.73 C 791.98 574.50 792.94 570.01 795.97 565.94 C 797.92 563.58 800.67 561.39 803.94 562.23 C 809.11 563.51 813.53 565.50 819.00 564.34 C 826.43 563.37 829.58 557.19 834.42 552.41 C 839.18 547.37 845.04 545.98 851.14 543.23 C 858.28 540.17 864.13 536.06 871.93 534.91 C 874.21 534.40 877.00 534.41 878.63 532.60 C 880.81 530.42 882.95 527.96 884.29 525.16 C 885.32 522.14 885.06 518.60 885.31 515.44 C 890.88 514.13 893.68 510.27 896.97 506.01 C 896.72 504.40 896.48 502.79 896.23 501.18 C 897.62 499.53 899.16 497.89 900.23 496.01 C 900.27 494.71 900.26 493.42 900.20 492.12 C 897.77 490.97 894.83 490.02 892.82 488.19 C 890.70 485.98 894.35 483.03 895.35 481.02 C 894.86 479.33 893.68 477.25 893.79 475.50 C 895.74 470.65 900.01 466.26 903.31 462.32 C 905.63 459.49 906.56 456.31 908.30 453.17 C 909.71 450.57 912.37 448.53 914.63 446.68 C 920.36 442.18 925.84 437.39 930.76 432.00 Z" fill="#e6ddd3" />
<!-- Saint-Leu --><path d="M 299.00 450.10 C 309.01 450.02 319.04 450.16 329.04 450.28 C 334.97 450.33 339.41 455.80 345.06 456.91 C 349.21 457.40 353.77 456.06 357.94 455.70 C 363.00 455.12 367.63 456.62 372.52 457.60 C 376.53 458.45 380.23 458.21 384.00 460.01 C 387.75 461.77 391.72 462.61 395.76 463.36 C 394.07 464.73 392.17 466.05 390.80 467.74 C 389.14 471.07 389.03 475.16 387.39 478.49 C 385.78 480.75 383.07 482.52 381.60 484.96 C 381.47 487.95 382.25 491.04 382.79 493.98 C 378.91 498.62 374.76 503.24 370.20 507.23 C 366.28 510.74 361.09 511.90 357.02 515.02 C 353.16 518.74 351.45 525.10 348.45 529.50 C 346.88 531.76 344.48 533.59 342.57 535.58 C 339.65 538.54 338.10 542.18 335.02 545.01 C 327.34 551.61 320.59 559.29 313.52 566.52 C 307.87 572.03 301.86 575.83 297.41 582.48 C 294.27 587.32 289.69 590.79 286.68 595.71 C 283.74 600.41 280.48 604.88 277.44 609.51 C 274.90 612.77 277.47 617.72 276.49 621.64 C 273.47 632.51 265.15 637.72 260.79 647.85 C 258.61 652.31 258.71 656.66 257.74 661.42 C 254.99 660.08 252.26 658.84 249.69 657.15 C 246.38 655.10 244.37 651.33 241.58 648.45 C 239.22 646.17 237.66 643.47 234.03 643.42 C 227.34 643.06 222.22 637.69 217.77 633.21 C 214.38 629.62 216.43 624.36 213.65 620.37 C 211.78 617.44 209.84 614.64 208.68 611.32 C 206.86 606.77 206.74 601.68 204.83 597.21 C 203.08 594.46 200.12 592.45 197.89 590.07 C 200.15 586.90 202.39 584.07 203.57 580.28 C 205.49 574.11 205.81 567.52 207.35 561.19 C 209.34 552.57 207.70 544.48 206.33 536.00 C 205.38 531.33 208.19 526.89 207.76 522.46 C 205.43 518.77 202.84 515.20 200.47 511.52 C 196.73 506.49 191.17 505.90 186.35 502.95 C 184.92 498.27 182.13 495.09 184.04 490.05 C 185.30 487.67 186.43 485.15 187.97 482.95 C 192.03 480.17 198.59 480.91 203.11 479.15 C 207.45 477.29 211.13 473.50 215.48 471.65 C 219.42 470.02 223.78 470.60 227.90 469.79 C 230.18 469.22 232.27 467.48 234.24 466.25 C 238.34 463.41 243.40 462.22 248.01 460.00 C 252.91 457.64 258.13 457.16 263.21 455.31 C 267.89 453.58 272.15 454.40 277.01 454.05 C 284.73 453.69 291.22 450.04 299.00 450.10 Z" fill="#e6ddd3" />
<!-- Le Tampon --><path d="M 597.88 480.12 C 601.82 481.49 605.12 484.78 609.03 486.25 C 611.67 486.38 614.40 485.38 617.01 485.01 C 620.62 484.30 624.34 484.61 627.94 483.92 C 630.75 483.07 633.34 481.42 635.99 480.15 C 640.17 483.48 644.54 485.18 649.67 486.51 C 648.72 489.63 647.29 492.74 646.78 495.97 C 648.06 499.35 651.05 501.99 653.42 504.61 C 655.54 506.85 656.85 509.86 658.49 512.55 C 659.66 514.68 661.12 516.44 660.93 519.02 C 661.08 521.98 657.38 524.28 656.83 527.00 C 657.75 531.55 661.78 534.34 663.14 538.73 C 663.84 540.28 664.08 542.59 665.29 543.77 C 668.56 545.50 672.77 545.35 676.11 546.91 C 678.03 549.09 678.98 552.02 681.64 553.39 C 685.37 555.38 689.39 557.24 693.40 558.58 C 695.67 559.44 698.10 556.84 700.47 557.66 C 703.65 558.33 706.35 559.46 709.68 558.68 C 713.35 557.72 717.41 556.78 718.53 552.62 C 720.35 546.71 723.74 541.46 728.32 537.33 C 729.86 535.97 731.66 535.55 733.57 535.02 C 735.66 538.78 737.49 542.47 740.26 545.76 C 741.70 547.54 743.47 549.38 744.45 551.45 C 745.78 554.29 746.35 557.24 747.97 560.00 C 749.74 562.94 751.85 565.56 753.26 568.73 C 755.19 573.05 756.83 577.36 759.78 581.14 C 762.09 584.61 765.74 587.90 767.04 591.88 C 765.63 594.99 763.17 597.81 761.01 600.44 C 758.53 597.05 756.58 593.32 754.10 589.94 C 751.04 585.76 745.73 583.78 741.64 580.33 C 738.59 578.14 736.14 574.98 731.98 575.82 C 726.75 576.33 723.52 579.51 720.18 583.19 C 715.35 588.57 709.30 592.19 703.97 596.94 C 698.80 601.59 697.03 607.62 693.45 613.50 C 689.30 620.30 685.86 627.24 684.21 635.09 C 683.12 640.51 684.46 646.22 683.41 651.57 C 682.13 655.84 679.63 659.51 678.82 664.00 C 677.61 670.31 676.61 676.96 678.70 683.19 C 680.26 688.20 682.10 693.49 679.48 698.53 C 677.86 700.76 674.60 701.89 672.29 703.31 C 668.57 705.24 665.97 708.17 662.99 711.01 C 658.00 715.77 650.38 717.73 645.58 722.56 C 642.01 727.01 640.41 733.20 636.57 737.59 C 634.25 740.25 630.99 741.40 627.82 742.72 C 623.78 744.29 619.98 746.32 615.89 747.78 C 613.99 748.51 611.91 749.10 610.17 750.18 C 606.67 752.86 604.85 757.65 601.37 760.30 C 596.89 762.99 590.59 762.55 585.88 764.88 C 583.80 766.06 582.03 767.93 580.28 769.54 C 572.70 762.52 565.75 754.83 558.30 747.68 C 555.72 745.12 552.61 744.61 549.26 743.66 C 551.69 741.27 553.99 738.81 556.00 736.05 C 554.39 732.57 552.93 728.59 549.43 726.57 C 544.47 723.66 539.39 722.04 534.99 718.02 C 532.43 715.59 530.03 712.90 527.83 710.14 C 525.50 707.62 526.92 703.15 524.71 700.36 C 520.87 695.22 515.60 691.39 511.88 686.10 C 508.59 681.42 504.75 677.25 501.01 672.94 C 506.25 667.28 512.83 664.04 517.58 658.00 C 515.55 655.80 513.33 653.82 511.03 651.91 C 514.16 651.71 517.33 651.87 520.45 651.51 C 523.31 650.99 526.31 649.32 527.88 646.81 C 528.98 644.57 529.19 641.81 529.64 639.37 C 533.54 636.85 538.14 636.39 542.14 634.22 C 546.02 632.03 546.83 627.02 547.37 623.00 C 547.80 618.40 548.48 613.63 548.06 609.02 C 546.97 606.70 544.74 604.83 543.06 602.91 C 544.21 599.91 545.57 597.07 547.52 594.50 C 549.02 592.25 551.34 589.85 551.33 587.03 C 551.71 580.35 550.57 572.21 552.83 565.75 C 554.00 562.97 557.90 561.10 560.74 560.65 C 564.54 561.38 568.03 564.60 571.24 566.67 C 574.37 563.85 573.82 560.31 574.70 556.48 C 575.22 553.08 576.66 549.69 576.74 546.26 C 576.34 543.18 574.05 540.18 572.69 537.42 C 570.65 533.88 571.59 529.52 570.49 525.53 C 569.57 522.39 567.82 519.35 567.08 516.03 C 566.17 511.84 567.06 507.21 566.06 503.05 C 565.22 500.47 563.71 498.07 562.49 495.64 C 566.63 491.78 565.64 486.42 570.17 483.07 C 575.33 482.63 580.70 485.07 586.03 484.20 C 590.26 483.69 593.79 480.77 597.88 480.12 Z" fill="#e6ddd3" />
<!-- Entre-Deux --><path d="M 565.81 482.93 C 563.28 485.80 562.19 487.38 562.13 491.33 C 560.75 492.31 559.36 493.27 557.97 494.24 C 559.57 497.16 561.73 499.92 562.92 503.04 C 564.13 507.47 563.10 512.40 564.15 516.92 C 565.00 520.60 567.35 523.93 568.42 527.41 C 568.89 530.14 567.98 533.11 568.13 535.89 C 569.35 539.17 572.55 541.85 573.42 545.21 C 573.56 550.76 572.05 556.49 570.96 561.91 C 567.89 560.42 564.44 558.14 561.00 557.91 C 556.92 558.04 552.86 560.67 549.62 562.94 C 549.73 571.25 548.24 579.34 548.38 587.63 C 545.05 593.06 540.91 597.58 539.27 603.99 C 541.08 605.88 543.74 607.68 544.89 610.04 C 544.73 613.37 544.03 616.65 543.96 620.00 C 543.78 623.33 543.79 627.88 541.60 630.61 C 537.56 633.76 531.31 633.95 527.26 637.34 C 526.13 639.91 525.97 642.98 525.54 645.74 C 521.87 648.16 519.42 648.79 515.01 648.67 C 512.49 649.00 508.51 647.77 507.57 651.00 C 508.35 654.03 511.26 656.56 513.13 659.01 C 509.07 662.68 504.57 665.81 500.33 669.28 C 496.05 672.76 491.15 674.17 486.09 676.04 C 484.59 676.74 482.49 677.27 482.04 679.10 C 480.11 684.70 481.73 689.78 481.79 695.64 C 480.10 696.91 478.23 698.12 476.83 699.71 C 475.53 702.57 475.08 705.73 473.53 708.55 C 471.27 712.57 468.65 716.31 464.99 719.19 C 466.42 714.90 469.00 710.58 469.58 706.13 C 469.92 704.41 468.38 702.58 467.64 701.09 C 472.49 697.58 473.08 692.58 474.47 687.18 C 475.23 683.52 476.19 679.73 476.26 675.97 C 476.04 672.87 474.03 669.93 473.60 666.83 C 473.19 663.74 473.34 660.84 472.15 657.88 C 470.79 654.31 469.42 650.94 469.38 647.04 C 469.10 641.82 470.71 637.15 471.00 632.00 C 471.25 628.36 470.89 624.63 471.33 621.02 C 471.90 617.05 474.80 613.09 474.76 609.09 C 474.72 603.87 472.25 598.57 471.55 593.81 C 471.10 589.23 472.03 584.44 473.19 580.01 C 473.97 576.43 478.12 573.87 480.98 571.96 C 485.28 568.78 490.08 571.27 495.19 569.30 C 502.99 566.10 510.14 561.01 516.51 555.54 C 522.88 549.97 524.33 540.83 526.26 533.03 C 527.19 528.70 529.51 524.95 530.69 520.73 C 531.87 514.90 530.21 509.14 532.39 503.21 C 533.94 499.04 536.00 494.96 538.15 491.06 C 539.59 487.97 544.05 487.57 547.00 487.01 C 553.44 486.27 559.52 484.32 565.81 482.93 Z" fill="#e6ddd3" />
<!-- Les Avirons --><path d="M 384.67 497.88 C 384.02 500.73 383.15 503.51 382.18 506.27 C 379.77 513.12 378.66 521.69 375.06 528.12 C 371.80 532.91 365.47 534.02 362.68 539.80 C 359.31 545.69 359.83 551.54 360.10 558.03 C 360.30 560.44 358.55 560.22 356.94 561.22 C 356.41 556.67 356.53 552.12 356.17 547.57 C 349.85 549.54 349.02 556.69 346.95 562.03 C 343.19 570.82 345.34 579.97 341.91 588.93 C 340.62 591.63 338.01 593.79 336.14 596.13 C 332.56 600.30 330.71 604.88 325.90 607.85 C 319.80 611.97 311.64 614.23 307.98 621.04 C 305.88 624.95 303.17 629.46 302.85 633.95 C 304.40 636.27 308.00 636.99 309.91 639.04 C 311.76 641.85 311.61 644.88 311.18 648.07 C 310.63 651.67 310.23 655.30 309.61 658.89 C 308.76 663.53 305.38 667.50 304.52 671.97 C 304.32 674.27 304.93 676.68 305.30 678.95 C 302.93 676.55 300.84 673.93 298.63 671.39 C 297.45 669.80 295.75 670.05 293.98 669.69 C 288.63 669.10 283.35 668.21 278.18 666.68 C 273.16 665.26 268.91 662.35 263.96 660.64 C 262.49 662.88 261.06 665.13 259.59 667.37 C 260.08 662.91 261.59 658.78 262.67 654.46 C 263.54 651.00 264.74 647.67 266.60 644.61 C 269.43 639.78 273.72 636.33 276.30 631.29 C 278.58 626.57 281.35 622.71 280.73 617.23 C 280.16 608.95 286.30 603.66 290.04 597.03 C 291.47 594.40 293.55 592.64 295.91 590.89 C 299.73 588.18 300.67 582.98 303.49 579.42 C 305.32 577.60 307.72 576.33 309.75 574.74 C 315.42 570.46 318.72 565.02 323.99 560.00 C 327.93 556.25 331.53 552.19 335.40 548.38 C 340.22 543.76 343.68 538.12 348.92 533.88 C 354.25 529.28 354.24 521.64 359.31 517.32 C 362.85 514.43 367.41 512.93 371.12 510.20 C 376.24 506.63 379.58 501.47 384.67 497.88 Z" fill="#e6ddd3" />
<!-- Saint-Louis --><path d="M 387.53 502.01 C 390.72 504.46 393.47 508.14 395.18 511.77 C 396.50 516.46 395.10 522.31 396.95 526.90 C 399.30 531.60 404.71 535.06 408.57 538.44 C 411.85 541.25 413.96 544.92 417.15 547.79 C 418.51 549.07 420.06 550.26 421.23 551.70 C 422.98 554.06 423.84 557.09 425.61 559.42 C 427.81 561.78 431.28 562.84 433.41 565.52 C 434.65 566.79 435.78 568.95 437.54 569.45 C 441.56 570.70 445.89 570.92 449.94 572.18 C 451.97 572.76 453.99 573.63 456.07 573.98 C 457.90 573.97 459.73 573.59 461.56 573.66 C 464.62 574.39 467.55 576.34 470.23 577.93 C 469.68 584.16 468.60 590.83 469.56 597.01 C 470.03 600.40 471.18 603.66 471.63 607.05 C 472.05 609.76 470.80 612.48 470.08 615.07 C 468.10 621.32 469.52 627.52 468.01 634.07 C 466.40 641.29 465.02 648.91 468.01 655.99 C 469.68 659.58 470.12 663.30 470.68 667.16 C 471.38 671.74 473.87 675.49 472.96 680.03 C 472.20 684.55 470.89 689.05 469.35 693.37 C 468.43 696.54 464.68 698.47 462.47 700.86 C 463.94 702.50 465.64 704.14 466.76 706.06 C 465.76 710.10 463.49 713.91 461.65 717.63 C 460.12 720.26 459.20 722.97 456.07 724.02 C 447.84 726.91 440.53 731.03 431.98 732.86 C 423.14 735.15 413.14 735.38 404.71 738.75 C 397.06 742.20 390.06 747.45 382.18 750.42 C 377.44 746.93 376.68 741.29 371.90 738.15 C 369.29 736.43 366.60 734.86 364.11 732.97 C 360.39 727.67 355.16 723.77 351.53 718.47 C 351.03 717.79 351.00 717.10 351.43 716.39 C 354.25 711.19 358.77 706.73 361.31 701.33 C 362.61 698.16 362.08 694.25 363.13 691.01 C 364.72 686.93 367.98 683.63 368.09 679.03 C 368.16 673.32 365.82 667.39 364.12 662.01 C 362.48 656.82 362.45 651.76 361.67 646.26 C 360.02 634.93 362.15 622.80 364.74 611.75 C 365.98 606.46 365.01 601.14 362.78 596.27 C 360.81 591.50 354.14 589.65 352.54 584.59 C 351.53 581.21 353.64 577.84 354.84 574.78 C 356.19 571.80 356.72 568.58 357.89 565.55 C 359.37 563.58 362.09 562.21 363.16 559.98 C 364.54 556.42 362.62 552.00 362.73 548.45 C 363.35 545.41 364.65 541.94 366.36 539.35 C 369.37 536.36 373.56 534.69 376.47 531.47 C 378.74 529.11 379.41 526.11 380.25 523.05 C 382.20 515.69 383.65 508.65 387.53 502.01 Z" fill="#e6ddd3" />
<!-- Étang-Salé --><path d="M 353.43 554.93 C 354.29 560.97 355.28 566.83 352.55 572.56 C 350.56 577.04 348.51 580.88 350.05 585.95 C 351.40 591.19 356.03 592.94 359.14 596.82 C 361.70 600.61 363.26 605.46 361.93 610.00 C 360.19 617.25 358.98 624.60 357.97 631.98 C 357.28 637.11 358.09 641.96 358.94 647.00 C 359.98 652.93 359.83 658.44 361.66 664.21 C 363.32 669.56 365.27 674.28 364.81 680.05 C 364.67 684.10 360.80 687.09 360.42 691.06 C 359.88 694.35 359.96 697.37 358.36 700.37 C 355.04 706.75 349.79 711.11 347.23 717.99 C 350.03 721.64 353.11 725.04 355.76 728.81 L 353.99 729.18 C 350.74 727.80 347.45 726.55 344.04 725.64 C 331.19 722.17 319.53 717.68 306.00 717.37 C 299.52 717.27 293.48 715.63 287.21 714.25 C 281.91 712.86 278.30 708.38 275.41 704.02 C 276.83 702.43 278.38 700.82 279.56 699.05 C 279.79 695.66 276.78 692.41 276.50 689.00 C 276.17 685.84 275.86 682.84 274.25 680.02 C 271.81 675.39 266.58 672.61 262.44 669.69 C 263.52 668.20 264.64 666.74 265.79 665.30 C 270.73 667.74 275.50 670.11 281.00 671.01 C 285.23 671.96 289.80 671.79 293.91 673.08 C 298.24 675.56 300.98 681.16 305.59 683.46 C 307.08 684.17 308.40 683.13 309.34 682.04 C 309.41 678.75 308.23 675.44 308.39 672.18 C 309.41 667.09 313.16 663.53 313.39 658.01 C 313.68 652.13 315.02 645.85 314.05 640.04 C 313.47 636.27 309.61 634.19 306.93 631.90 C 308.71 626.62 311.30 620.30 316.39 617.42 C 320.76 614.73 325.36 612.40 329.83 609.92 C 334.03 608.06 335.14 602.29 337.73 598.68 C 339.92 594.88 344.27 593.12 344.95 588.94 C 345.89 584.47 347.47 579.90 347.55 575.32 C 347.09 568.36 350.43 561.08 353.43 554.93 Z" fill="#e6ddd3" />
<!-- Saint-Joseph --><path d="M 731.98 578.98 C 735.33 578.41 737.61 581.25 739.98 583.08 C 742.57 585.37 745.63 586.71 748.49 588.58 C 751.19 590.33 752.99 593.65 754.68 596.33 C 756.98 600.21 759.91 604.65 760.62 609.15 C 761.04 613.27 760.36 617.56 759.43 621.58 C 757.74 628.24 752.00 633.97 749.34 640.32 C 748.33 642.32 749.44 643.89 749.95 645.86 C 764.49 648.94 779.15 649.04 793.65 651.37 C 793.76 657.41 794.29 663.24 795.52 669.16 C 797.06 676.36 797.06 684.33 799.96 690.93 C 801.87 695.36 804.23 699.89 807.96 703.07 C 810.43 705.14 813.16 706.90 815.69 708.91 C 814.52 711.89 813.22 714.78 812.84 717.97 C 812.21 723.15 812.69 728.31 811.32 733.54 C 809.67 739.41 805.68 744.05 805.35 750.33 C 805.03 757.14 808.13 763.85 811.13 769.80 C 815.15 777.37 816.94 785.63 820.54 793.44 C 821.88 796.63 823.93 799.70 824.78 803.06 C 824.29 806.47 822.76 809.36 823.21 812.93 C 823.89 821.08 823.45 830.66 826.70 838.20 C 828.30 842.07 831.68 844.75 833.38 848.44 C 834.88 852.58 834.58 857.44 833.47 861.63 C 832.08 864.69 829.65 867.91 825.87 867.46 C 819.56 867.22 813.30 866.64 807.00 866.29 C 802.66 865.93 798.82 867.14 794.93 868.88 C 793.71 873.80 789.17 877.55 785.11 880.20 C 780.10 880.23 774.95 879.25 769.97 878.82 C 768.74 878.70 767.54 878.89 766.36 879.38 C 760.13 881.95 754.98 885.81 749.78 890.02 C 748.38 889.57 746.77 889.26 745.53 888.43 C 744.57 886.92 744.53 884.71 744.12 882.98 C 735.70 876.92 724.68 878.31 714.96 879.10 C 709.75 879.22 708.10 884.40 703.04 884.60 C 699.48 885.01 695.61 886.12 692.03 885.62 C 689.01 884.90 686.18 883.05 683.74 881.16 C 681.15 879.11 679.76 875.77 677.16 873.82 C 673.77 872.02 669.72 871.57 666.34 869.46 C 663.11 867.52 661.14 864.22 658.55 861.51 L 657.16 861.26 C 656.20 861.08 655.24 860.91 654.27 860.74 C 654.24 858.71 653.82 856.35 654.43 854.39 C 656.99 851.44 660.19 849.69 662.14 846.09 C 664.43 842.29 664.46 838.30 664.40 834.00 C 664.22 825.33 664.24 816.67 664.31 808.00 C 664.18 806.40 664.47 803.96 663.25 802.75 C 661.19 800.55 658.97 798.58 657.20 796.11 C 658.83 793.16 660.81 790.39 661.25 786.99 C 662.09 781.20 662.90 775.73 665.43 770.37 C 666.07 769.01 666.85 768.07 668.09 767.21 C 671.97 764.51 677.06 761.80 679.88 757.90 C 682.42 753.45 683.88 748.23 684.55 743.16 C 685.29 737.71 687.35 733.34 687.28 728.00 C 687.19 723.67 686.51 719.33 685.82 715.06 C 685.15 710.97 683.58 707.11 683.02 703.02 C 682.39 698.33 684.05 693.54 683.81 689.07 C 683.22 684.83 680.15 680.60 680.26 676.03 C 680.38 671.65 681.05 667.20 681.92 662.91 C 682.77 658.78 685.89 655.84 686.96 651.96 C 687.78 646.69 686.05 641.38 687.19 636.00 C 689.08 625.54 694.85 617.83 699.72 608.71 C 701.82 604.92 703.28 600.58 706.96 598.00 C 710.89 595.21 714.93 592.83 718.22 589.22 C 722.08 585.28 726.11 579.71 731.98 578.98 Z" fill="#e6ddd3" />
<!-- Saint-Philippe --><path d="M 797.41 652.18 C 800.62 651.78 803.80 652.04 807.00 652.45 C 818.30 653.91 829.66 654.76 840.98 656.02 C 887.33 660.75 933.70 665.32 980.03 670.07 C 981.13 670.40 983.82 670.15 983.24 672.02 L 983.02 674.01 C 979.58 682.40 982.34 689.53 983.37 697.98 C 984.48 704.46 981.44 711.63 981.92 718.00 C 983.03 725.26 986.81 731.25 986.68 739.00 C 986.45 744.93 985.55 750.83 985.15 756.76 C 983.70 766.68 984.99 776.22 986.74 786.01 C 987.81 791.66 991.55 795.08 990.78 801.01 C 990.31 806.47 986.49 810.22 983.16 814.16 C 979.99 817.79 978.72 822.09 975.28 825.25 C 970.31 829.90 963.70 832.97 958.52 837.54 C 954.58 840.93 951.58 844.64 946.52 846.49 C 942.49 848.14 938.30 850.43 934.00 851.14 C 931.49 851.06 928.91 850.07 926.49 849.43 C 921.44 848.00 915.99 848.19 910.80 848.31 C 908.64 850.66 907.38 854.53 903.75 854.63 C 897.08 855.66 890.59 857.21 884.01 857.29 C 880.41 857.34 876.89 857.42 873.40 858.44 C 866.22 860.32 861.10 865.05 853.98 866.55 C 846.54 867.87 839.61 869.29 832.01 868.27 C 833.82 866.77 836.17 865.24 837.32 863.16 C 838.09 859.24 837.79 854.94 837.21 850.99 C 836.67 847.15 834.31 844.82 832.23 841.76 C 829.60 838.19 828.64 833.77 827.53 829.55 C 826.02 823.96 826.29 817.71 826.42 811.95 C 826.52 809.07 827.92 806.89 828.54 804.19 C 827.79 801.37 826.12 798.77 825.00 796.08 C 822.25 789.66 819.59 783.22 817.62 776.52 C 815.93 770.82 812.70 766.00 810.49 760.56 C 808.51 755.78 808.21 750.42 809.53 745.42 C 810.74 741.05 813.98 737.53 814.52 733.18 C 815.10 728.32 814.71 722.78 815.83 717.90 C 816.69 714.48 818.41 711.24 819.68 707.94 C 815.68 704.31 809.80 702.44 807.09 697.95 C 803.36 691.81 800.60 685.22 799.97 678.01 C 799.02 668.67 796.45 661.10 797.41 652.18 Z" fill="#e6ddd3" />
<!-- Saint-Pierre --><path d="M 498.66 675.19 C 502.99 678.70 506.20 683.08 509.29 687.67 C 512.67 692.65 516.97 696.63 521.10 700.94 C 524.53 704.34 522.38 709.64 526.09 712.89 C 530.39 717.08 534.55 722.47 539.86 725.18 C 542.67 726.74 545.80 727.85 548.47 729.61 C 550.73 731.11 551.49 733.39 552.61 735.72 C 550.01 738.93 546.74 741.11 543.44 743.50 C 541.79 744.50 542.19 745.92 542.11 747.58 C 546.25 747.86 550.60 747.61 554.66 748.48 C 557.19 750.06 559.21 752.58 561.34 754.65 C 567.62 760.94 573.65 767.50 580.17 773.52 C 582.47 771.74 584.50 769.58 586.91 767.96 C 591.49 765.51 597.50 765.62 602.12 763.15 C 605.56 761.20 607.91 757.34 610.62 754.55 C 612.10 752.90 614.44 752.30 616.45 751.46 C 620.92 749.78 624.88 747.13 629.33 745.37 C 632.47 743.96 636.64 742.63 638.88 739.92 C 642.52 735.15 644.51 728.05 648.91 723.90 C 653.15 720.14 659.10 718.14 663.62 714.67 C 666.92 712.15 669.26 709.06 672.69 706.74 C 674.98 705.17 677.44 704.21 679.99 703.16 C 681.77 710.58 684.03 717.30 683.81 724.88 C 679.92 725.98 675.84 726.59 672.04 727.97 C 668.95 729.00 667.93 731.82 666.34 734.37 C 663.94 738.72 660.54 742.46 657.35 746.44 C 655.14 749.21 652.25 751.31 650.00 754.02 C 648.34 756.46 647.46 759.48 646.28 762.18 C 644.05 762.61 641.74 762.94 639.58 763.66 C 636.04 764.98 633.32 768.31 629.82 769.62 C 625.72 770.50 621.30 769.69 617.27 771.20 C 612.58 772.93 608.17 775.48 603.68 777.68 C 598.85 779.90 594.32 784.16 592.35 789.13 C 592.33 793.12 593.39 796.82 592.69 800.88 C 591.09 809.91 587.28 818.90 584.45 827.30 C 583.02 833.97 582.76 840.61 580.04 847.01 C 575.96 846.68 572.03 846.66 568.07 845.50 C 563.77 844.45 560.18 842.11 556.04 840.70 C 546.82 838.00 538.71 831.87 529.85 828.34 C 521.27 826.98 512.68 826.34 504.27 828.94 C 500.95 825.33 498.96 820.83 495.80 817.14 C 494.42 817.08 493.13 819.02 492.05 819.81 C 490.43 818.48 489.29 817.32 487.04 817.37 C 479.84 816.91 474.15 813.93 467.52 811.38 C 464.60 810.35 463.02 807.02 461.47 804.53 C 459.92 802.13 460.32 799.75 460.15 797.02 C 456.63 794.65 453.59 791.04 448.99 791.49 C 441.41 791.46 434.41 789.35 426.99 788.34 C 416.41 787.21 406.27 780.42 398.66 773.31 C 395.15 770.01 394.18 766.00 392.23 761.81 C 390.49 757.81 386.67 756.20 385.78 751.75 C 395.15 749.12 401.73 742.16 410.91 739.94 C 419.16 737.92 427.68 737.24 435.92 735.01 C 442.61 733.32 448.26 730.16 454.75 727.85 C 460.25 725.76 466.15 723.67 470.07 719.04 C 473.80 714.55 477.17 709.95 478.58 704.18 C 479.31 700.95 483.23 699.13 484.38 696.40 C 485.05 692.39 484.08 688.04 484.12 683.97 C 484.23 682.76 483.78 680.83 485.14 680.21 C 489.29 677.87 493.93 675.89 498.66 675.19 Z" fill="#e6ddd3" />
<!-- Petite-Île --><path d="M 683.74 729.18 C 683.02 733.79 682.29 738.38 681.85 743.04 C 681.61 746.42 679.34 748.73 678.25 752.13 C 677.51 753.93 677.11 756.29 675.62 757.60 C 672.23 760.86 667.76 763.25 664.18 766.21 C 662.99 767.16 662.25 768.40 661.70 769.79 C 659.65 775.04 658.58 780.48 657.83 786.04 C 657.43 789.91 654.55 793.22 654.67 797.02 C 654.15 800.94 659.09 803.01 661.53 805.39 C 660.97 816.78 662.55 828.91 661.07 840.02 C 660.46 845.95 654.87 848.86 650.57 852.04 C 650.29 855.64 650.83 858.89 651.80 862.35 C 646.94 864.18 642.01 866.28 636.97 867.50 C 631.46 867.74 626.73 862.98 621.04 862.46 C 615.33 862.10 610.54 860.18 605.25 862.79 C 603.31 860.28 601.28 857.11 598.51 855.48 C 595.82 853.85 592.48 854.98 590.23 852.79 C 588.06 850.99 585.98 849.08 583.77 847.32 C 586.36 839.72 585.20 831.82 588.62 824.62 C 591.60 817.59 594.15 810.23 595.72 802.75 C 596.69 798.00 595.37 792.99 596.43 788.34 C 597.66 784.09 601.24 782.73 604.79 780.83 C 609.43 778.60 614.15 775.59 619.13 774.29 C 623.11 773.20 627.00 773.79 630.98 773.18 C 634.21 771.61 636.65 768.58 640.05 767.12 C 642.78 765.86 646.13 765.31 648.60 763.58 C 651.10 760.39 651.22 756.42 654.65 753.71 C 659.30 749.90 662.88 745.24 666.48 740.47 C 668.63 737.67 669.94 733.96 672.47 731.53 C 675.93 729.38 679.81 729.25 683.74 729.18 Z" fill="#e6ddd3" />
</svg>